<svg xmlns="http://www.w3.org/2000/svg" xmlns:xlink="http://www.w3.org/1999/xlink" width="1080" zoomAndPan="magnify" viewBox="0 0 810 1012.49997" height="1350" preserveAspectRatio="xMidYMid meet" version="1.0"><defs><clipPath id="ad62ba1e47"><path d="M 243.078125 340.492188 L 566.921875 340.492188 L 566.921875 671.832031 L 243.078125 671.832031 Z M 243.078125 340.492188 " clip-rule="nonzero"/></clipPath><clipPath id="9052bd849c"><path d="M 139 108 L 672 108 L 672 931.039062 L 139 931.039062 Z M 139 108 " clip-rule="nonzero"/></clipPath><clipPath id="e01c764d80"><path d="M 101.097656 80.960938 L 709 80.960938 L 709 242 L 101.097656 242 Z M 101.097656 80.960938 " clip-rule="nonzero"/></clipPath><clipPath id="51425f1912"><path d="M 101.097656 255 L 709 255 L 709 397 L 101.097656 397 Z M 101.097656 255 " clip-rule="nonzero"/></clipPath><clipPath id="5fe31f2c26"><path d="M 101.097656 410 L 709 410 L 709 552 L 101.097656 552 Z M 101.097656 410 " clip-rule="nonzero"/></clipPath><clipPath id="c891b9d48e"><path d="M 101.097656 566 L 709 566 L 709 709 L 101.097656 709 Z M 101.097656 566 " clip-rule="nonzero"/></clipPath><clipPath id="389ea2d8b4"><path d="M 101.097656 724 L 709 724 L 709 871 L 101.097656 871 Z M 101.097656 724 " clip-rule="nonzero"/></clipPath></defs><g clip-path="url(#ad62ba1e47)"><path fill="#000000" d="M 565.617188 572.472656 L 537.152344 511.492188 L 537.152344 412.382812 C 537.152344 411.605469 537.003906 410.859375 536.707031 410.140625 C 536.410156 409.421875 535.984375 408.789062 535.4375 408.238281 L 483.773438 356.507812 C 483.222656 355.960938 482.589844 355.535156 481.875 355.238281 C 481.15625 354.941406 480.410156 354.789062 479.632812 354.789062 L 447.550781 354.789062 L 439.605469 349.988281 C 438.941406 349.585938 438.222656 349.328125 437.453125 349.210938 C 436.6875 349.09375 435.925781 349.128906 435.171875 349.3125 L 427.660156 351.164062 L 399.269531 340.851562 C 398.539062 340.585938 397.785156 340.46875 397.007812 340.503906 C 396.234375 340.539062 395.492188 340.71875 394.789062 341.050781 L 365.375 354.804688 L 314.691406 354.804688 C 314.308594 354.804688 313.925781 354.84375 313.550781 354.917969 C 313.171875 354.992188 312.804688 355.105469 312.449219 355.25 C 312.09375 355.398438 311.757812 355.578125 311.4375 355.792969 C 311.117188 356.007812 310.820312 356.25 310.550781 356.523438 C 310.277344 356.792969 310.035156 357.089844 309.820312 357.410156 C 309.605469 357.730469 309.425781 358.070312 309.28125 358.425781 C 309.132812 358.78125 309.019531 359.148438 308.945312 359.527344 C 308.871094 359.902344 308.832031 360.285156 308.832031 360.667969 L 308.832031 380.421875 L 277.003906 388.265625 C 276.632812 388.355469 276.269531 388.484375 275.921875 388.648438 C 275.574219 388.808594 275.246094 389.007812 274.933594 389.234375 C 274.625 389.460938 274.339844 389.71875 274.082031 390.003906 C 273.820312 390.285156 273.589844 390.59375 273.390625 390.921875 C 273.191406 391.25 273.027344 391.597656 272.898438 391.960938 C 272.765625 392.320312 272.671875 392.691406 272.613281 393.074219 C 272.554688 393.453125 272.535156 393.835938 272.554688 394.222656 C 272.570312 394.605469 272.625 394.984375 272.71875 395.359375 L 273.332031 397.851562 L 247.210938 410.078125 C 246.863281 410.242188 246.53125 410.4375 246.222656 410.664062 C 245.914062 410.890625 245.628906 411.148438 245.367188 411.433594 C 245.109375 411.71875 244.878906 412.023438 244.679688 412.351562 C 244.480469 412.683594 244.3125 413.027344 244.183594 413.390625 C 244.050781 413.753906 243.957031 414.125 243.898438 414.503906 C 243.839844 414.886719 243.820312 415.269531 243.835938 415.652344 C 243.855469 416.039062 243.910156 416.417969 244 416.792969 C 244.09375 417.164062 244.222656 417.527344 244.382812 417.875 L 308.835938 555.941406 L 308.835938 640.3125 C 308.835938 640.699219 308.875 641.078125 308.949219 641.457031 C 309.023438 641.832031 309.136719 642.199219 309.28125 642.554688 C 309.429688 642.910156 309.609375 643.25 309.824219 643.570312 C 310.039062 643.890625 310.28125 644.183594 310.550781 644.457031 C 310.824219 644.730469 311.121094 644.972656 311.4375 645.1875 C 311.757812 645.398438 312.097656 645.582031 312.453125 645.726562 C 312.808594 645.875 313.171875 645.988281 313.550781 646.0625 C 313.925781 646.136719 314.308594 646.175781 314.691406 646.175781 L 334.335938 646.175781 L 338.601562 663.554688 C 338.695312 663.929688 338.820312 664.292969 338.984375 664.640625 C 339.148438 664.988281 339.34375 665.320312 339.570312 665.628906 C 339.796875 665.9375 340.054688 666.222656 340.335938 666.484375 C 340.621094 666.742188 340.925781 666.972656 341.257812 667.171875 C 341.585938 667.371094 341.929688 667.535156 342.292969 667.667969 C 342.65625 667.800781 343.023438 667.894531 343.40625 667.953125 C 343.785156 668.011719 344.167969 668.03125 344.550781 668.011719 C 344.9375 667.996094 345.316406 667.941406 345.6875 667.847656 L 359.492188 664.453125 L 361.191406 668.09375 C 361.351562 668.441406 361.546875 668.773438 361.773438 669.085938 C 362 669.394531 362.257812 669.683594 362.539062 669.941406 C 362.824219 670.203125 363.128906 670.433594 363.457031 670.632812 C 363.785156 670.835938 364.132812 671 364.492188 671.132812 C 364.855469 671.265625 365.226562 671.363281 365.605469 671.421875 C 365.988281 671.480469 366.371094 671.5 366.753906 671.484375 C 367.140625 671.46875 367.519531 671.414062 367.890625 671.320312 C 368.265625 671.230469 368.628906 671.105469 368.976562 670.941406 L 408.738281 652.339844 L 433.707031 646.191406 L 531.296875 646.191406 C 531.679688 646.191406 532.058594 646.15625 532.4375 646.078125 C 532.816406 646.003906 533.179688 645.894531 533.535156 645.746094 C 533.890625 645.597656 534.230469 645.417969 534.546875 645.203125 C 534.867188 644.992188 535.164062 644.746094 535.4375 644.476562 C 535.707031 644.203125 535.949219 643.90625 536.164062 643.585938 C 536.378906 643.265625 536.558594 642.929688 536.707031 642.574219 C 536.851562 642.21875 536.964844 641.851562 537.039062 641.472656 C 537.113281 641.097656 537.152344 640.714844 537.152344 640.332031 L 537.152344 620.707031 L 553.429688 616.695312 C 553.804688 616.605469 554.164062 616.476562 554.515625 616.3125 C 554.863281 616.152344 555.191406 615.957031 555.5 615.726562 C 555.8125 615.5 556.097656 615.242188 556.355469 614.960938 C 556.617188 614.675781 556.84375 614.367188 557.042969 614.039062 C 557.242188 613.710938 557.410156 613.363281 557.539062 613 C 557.671875 612.640625 557.765625 612.269531 557.824219 611.886719 C 557.878906 611.507812 557.902344 611.125 557.882812 610.738281 C 557.867188 610.355469 557.8125 609.976562 557.71875 609.601562 L 551.773438 585.402344 L 562.796875 580.25 C 563.144531 580.085938 563.476562 579.890625 563.785156 579.664062 C 564.097656 579.4375 564.382812 579.179688 564.644531 578.898438 C 564.902344 578.613281 565.132812 578.308594 565.332031 577.976562 C 565.535156 577.648438 565.699219 577.304688 565.832031 576.941406 C 565.964844 576.578125 566.058594 576.207031 566.117188 575.828125 C 566.175781 575.445312 566.199219 575.0625 566.183594 574.679688 C 566.164062 574.292969 566.113281 573.914062 566.019531 573.539062 C 565.929688 573.164062 565.804688 572.804688 565.640625 572.453125 Z M 485.488281 374.824219 L 517.152344 406.519531 L 485.488281 406.519531 Z M 397.550781 352.699219 L 403.347656 354.804688 L 393.035156 354.804688 Z M 308.835938 392.496094 L 308.835938 493.316406 L 285.472656 398.253906 Z M 276.167969 409.476562 L 301.484375 512.484375 L 257.476562 418.222656 Z M 346.402344 646.175781 L 384.671875 646.175781 L 348.585938 655.070312 Z M 320.554688 634.429688 L 320.554688 366.53125 L 473.773438 366.53125 L 473.773438 412.382812 C 473.773438 412.769531 473.808594 413.152344 473.886719 413.527344 C 473.960938 413.90625 474.070312 414.273438 474.21875 414.628906 C 474.367188 414.984375 474.546875 415.320312 474.761719 415.640625 C 474.972656 415.960938 475.214844 416.257812 475.488281 416.53125 C 475.761719 416.800781 476.058594 417.046875 476.375 417.257812 C 476.695312 417.472656 477.035156 417.652344 477.390625 417.800781 C 477.746094 417.949219 478.113281 418.058594 478.488281 418.132812 C 478.867188 418.207031 479.246094 418.246094 479.632812 418.246094 L 525.4375 418.246094 L 525.4375 634.460938 Z M 537.152344 608.609375 L 537.152344 575.027344 L 544.945312 606.703125 Z M 548.921875 573.789062 L 544.042969 553.957031 L 552.523438 572.109375 Z M 338.085938 416.890625 C 338.085938 416.503906 338.125 416.125 338.199219 415.746094 C 338.273438 415.367188 338.386719 415 338.535156 414.644531 C 338.679688 414.289062 338.859375 413.953125 339.074219 413.632812 C 339.289062 413.3125 339.53125 413.015625 339.804688 412.742188 C 340.074219 412.472656 340.371094 412.230469 340.691406 412.015625 C 341.011719 411.800781 341.347656 411.621094 341.703125 411.472656 C 342.058594 411.328125 342.425781 411.214844 342.804688 411.140625 C 343.179688 411.066406 343.5625 411.027344 343.945312 411.027344 L 393.699219 411.027344 C 394.074219 411.039062 394.449219 411.082031 394.820312 411.164062 C 395.1875 411.246094 395.546875 411.363281 395.894531 411.515625 C 396.242188 411.667969 396.570312 411.851562 396.882812 412.066406 C 397.195312 412.28125 397.484375 412.523438 397.746094 412.796875 C 398.011719 413.066406 398.246094 413.363281 398.453125 413.679688 C 398.664062 413.996094 398.835938 414.328125 398.980469 414.679688 C 399.121094 415.03125 399.230469 415.394531 399.304688 415.765625 C 399.375 416.136719 399.414062 416.511719 399.414062 416.890625 C 399.414062 417.269531 399.375 417.644531 399.304688 418.019531 C 399.230469 418.390625 399.121094 418.75 398.980469 419.101562 C 398.835938 419.453125 398.664062 419.789062 398.453125 420.105469 C 398.246094 420.421875 398.011719 420.714844 397.746094 420.988281 C 397.484375 421.257812 397.195312 421.503906 396.882812 421.71875 C 396.570312 421.933594 396.242188 422.117188 395.894531 422.269531 C 395.546875 422.417969 395.1875 422.535156 394.820312 422.617188 C 394.449219 422.699219 394.074219 422.746094 393.699219 422.753906 L 343.949219 422.753906 C 343.566406 422.753906 343.1875 422.71875 342.808594 422.644531 C 342.433594 422.566406 342.066406 422.457031 341.710938 422.308594 C 341.355469 422.164062 341.019531 421.984375 340.699219 421.769531 C 340.382812 421.558594 340.085938 421.316406 339.8125 421.042969 C 339.542969 420.773438 339.296875 420.476562 339.085938 420.15625 C 338.871094 419.839844 338.691406 419.5 338.542969 419.148438 C 338.394531 418.792969 338.28125 418.425781 338.207031 418.050781 C 338.128906 417.671875 338.09375 417.292969 338.089844 416.90625 Z M 338.085938 441.074219 C 338.085938 440.6875 338.125 440.308594 338.199219 439.929688 C 338.273438 439.550781 338.386719 439.183594 338.535156 438.828125 C 338.679688 438.472656 338.859375 438.136719 339.074219 437.816406 C 339.289062 437.496094 339.53125 437.199219 339.804688 436.925781 C 340.074219 436.65625 340.371094 436.410156 340.691406 436.199219 C 341.011719 435.984375 341.347656 435.804688 341.703125 435.65625 C 342.058594 435.507812 342.425781 435.398438 342.804688 435.324219 C 343.179688 435.25 343.5625 435.210938 343.945312 435.210938 L 433.796875 435.210938 C 434.183594 435.210938 434.566406 435.25 434.941406 435.324219 C 435.320312 435.398438 435.6875 435.511719 436.042969 435.660156 C 436.398438 435.804688 436.738281 435.988281 437.058594 436.199219 C 437.378906 436.414062 437.675781 436.660156 437.945312 436.929688 C 438.21875 437.203125 438.460938 437.5 438.675781 437.820312 C 438.890625 438.140625 439.070312 438.480469 439.21875 438.835938 C 439.367188 439.191406 439.476562 439.558594 439.550781 439.9375 C 439.628906 440.316406 439.664062 440.699219 439.664062 441.082031 C 439.664062 441.46875 439.628906 441.851562 439.550781 442.230469 C 439.476562 442.609375 439.367188 442.976562 439.21875 443.332031 C 439.070312 443.6875 438.890625 444.027344 438.675781 444.347656 C 438.460938 444.667969 438.21875 444.964844 437.945312 445.234375 C 437.675781 445.507812 437.378906 445.753906 437.058594 445.964844 C 436.738281 446.179688 436.398438 446.363281 436.042969 446.507812 C 435.6875 446.65625 435.320312 446.769531 434.941406 446.84375 C 434.566406 446.917969 434.183594 446.957031 433.796875 446.957031 L 343.949219 446.957031 C 343.566406 446.957031 343.183594 446.917969 342.808594 446.84375 C 342.429688 446.769531 342.0625 446.65625 341.707031 446.507812 C 341.351562 446.363281 341.015625 446.179688 340.695312 445.96875 C 340.375 445.753906 340.078125 445.511719 339.808594 445.238281 C 339.535156 444.964844 339.292969 444.667969 339.078125 444.347656 C 338.863281 444.027344 338.683594 443.691406 338.535156 443.335938 C 338.390625 442.980469 338.277344 442.613281 338.203125 442.234375 C 338.128906 441.855469 338.089844 441.476562 338.089844 441.089844 Z M 507.898438 473.554688 C 507.898438 473.941406 507.859375 474.320312 507.785156 474.699219 C 507.710938 475.078125 507.597656 475.445312 507.449219 475.800781 C 507.304688 476.15625 507.125 476.492188 506.910156 476.8125 C 506.695312 477.132812 506.453125 477.429688 506.179688 477.703125 C 505.910156 477.976562 505.613281 478.21875 505.292969 478.433594 C 504.972656 478.644531 504.636719 478.828125 504.28125 478.972656 C 503.925781 479.121094 503.558594 479.234375 503.179688 479.308594 C 502.804688 479.382812 502.421875 479.421875 502.039062 479.421875 L 343.949219 479.421875 C 343.566406 479.421875 343.183594 479.382812 342.804688 479.308594 C 342.429688 479.230469 342.0625 479.121094 341.707031 478.972656 C 341.347656 478.824219 341.011719 478.644531 340.691406 478.429688 C 340.371094 478.214844 340.074219 477.972656 339.800781 477.699219 C 339.53125 477.429688 339.285156 477.132812 339.074219 476.8125 C 338.859375 476.488281 338.675781 476.152344 338.53125 475.796875 C 338.382812 475.4375 338.273438 475.070312 338.195312 474.695312 C 338.121094 474.316406 338.082031 473.933594 338.082031 473.546875 C 338.082031 473.164062 338.121094 472.78125 338.195312 472.402344 C 338.273438 472.023438 338.382812 471.65625 338.53125 471.300781 C 338.675781 470.945312 338.859375 470.605469 339.074219 470.285156 C 339.285156 469.964844 339.53125 469.667969 339.800781 469.394531 C 340.074219 469.125 340.371094 468.878906 340.691406 468.664062 C 341.011719 468.453125 341.347656 468.269531 341.707031 468.121094 C 342.0625 467.976562 342.429688 467.863281 342.804688 467.789062 C 343.183594 467.714844 343.566406 467.675781 343.949219 467.675781 L 502.042969 467.675781 C 502.425781 467.675781 502.808594 467.714844 503.1875 467.789062 C 503.566406 467.863281 503.933594 467.976562 504.289062 468.125 C 504.648438 468.273438 504.984375 468.457031 505.304688 468.671875 C 505.628906 468.886719 505.921875 469.132812 506.195312 469.40625 C 506.46875 469.679688 506.710938 469.976562 506.925781 470.300781 C 507.136719 470.621094 507.316406 470.960938 507.464844 471.320312 C 507.609375 471.675781 507.71875 472.046875 507.792969 472.425781 C 507.867188 472.804688 507.902344 473.1875 507.902344 473.574219 Z M 507.898438 500.441406 C 507.898438 500.828125 507.863281 501.210938 507.789062 501.589844 C 507.71875 501.972656 507.609375 502.339844 507.460938 502.695312 C 507.316406 503.054688 507.136719 503.394531 506.921875 503.714844 C 506.710938 504.039062 506.464844 504.335938 506.195312 504.609375 C 505.921875 504.886719 505.625 505.128906 505.304688 505.34375 C 504.984375 505.558594 504.648438 505.742188 504.289062 505.890625 C 503.933594 506.039062 503.566406 506.152344 503.1875 506.226562 C 502.808594 506.300781 502.425781 506.339844 502.042969 506.339844 L 343.949219 506.339844 C 343.566406 506.339844 343.183594 506.300781 342.804688 506.226562 C 342.429688 506.152344 342.0625 506.039062 341.707031 505.894531 C 341.347656 505.746094 341.011719 505.566406 340.691406 505.351562 C 340.371094 505.136719 340.074219 504.894531 339.800781 504.621094 C 339.53125 504.347656 339.285156 504.050781 339.074219 503.730469 C 338.859375 503.410156 338.675781 503.070312 338.53125 502.714844 C 338.382812 502.359375 338.273438 501.992188 338.195312 501.613281 C 338.121094 501.234375 338.082031 500.855469 338.082031 500.46875 C 338.082031 500.082031 338.121094 499.699219 338.195312 499.324219 C 338.273438 498.945312 338.382812 498.578125 338.53125 498.222656 C 338.675781 497.863281 338.859375 497.527344 339.074219 497.207031 C 339.285156 496.886719 339.53125 496.589844 339.800781 496.316406 C 340.074219 496.042969 340.371094 495.800781 340.691406 495.585938 C 341.011719 495.371094 341.347656 495.191406 341.707031 495.042969 C 342.0625 494.894531 342.429688 494.785156 342.804688 494.707031 C 343.183594 494.632812 343.566406 494.597656 343.949219 494.597656 L 502.042969 494.597656 C 502.425781 494.597656 502.808594 494.632812 503.183594 494.707031 C 503.5625 494.785156 503.929688 494.894531 504.285156 495.042969 C 504.640625 495.191406 504.976562 495.371094 505.296875 495.585938 C 505.617188 495.796875 505.914062 496.042969 506.183594 496.3125 C 506.457031 496.585938 506.699219 496.882812 506.914062 497.203125 C 507.125 497.523438 507.308594 497.859375 507.453125 498.214844 C 507.601562 498.570312 507.714844 498.9375 507.789062 499.316406 C 507.863281 499.695312 507.902344 500.074219 507.902344 500.460938 Z M 507.898438 527.332031 C 507.898438 527.714844 507.859375 528.097656 507.785156 528.476562 C 507.710938 528.851562 507.597656 529.21875 507.449219 529.574219 C 507.304688 529.929688 507.125 530.269531 506.910156 530.589844 C 506.695312 530.910156 506.453125 531.203125 506.179688 531.476562 C 505.910156 531.75 505.613281 531.992188 505.292969 532.207031 C 504.972656 532.417969 504.636719 532.601562 504.28125 532.746094 C 503.925781 532.894531 503.558594 533.003906 503.179688 533.082031 C 502.804688 533.15625 502.421875 533.191406 502.039062 533.191406 L 343.949219 533.191406 C 343.566406 533.191406 343.183594 533.15625 342.804688 533.082031 C 342.425781 533.007812 342.058594 532.894531 341.703125 532.746094 C 341.347656 532.601562 341.007812 532.417969 340.6875 532.207031 C 340.367188 531.992188 340.070312 531.746094 339.796875 531.476562 C 339.523438 531.203125 339.28125 530.90625 339.066406 530.585938 C 338.851562 530.265625 338.671875 529.925781 338.523438 529.570312 C 338.375 529.210938 338.265625 528.84375 338.1875 528.464844 C 338.113281 528.089844 338.074219 527.707031 338.074219 527.320312 C 338.074219 526.933594 338.113281 526.550781 338.1875 526.171875 C 338.265625 525.796875 338.375 525.425781 338.523438 525.070312 C 338.671875 524.714844 338.851562 524.375 339.066406 524.054688 C 339.28125 523.734375 339.523438 523.4375 339.796875 523.164062 C 340.070312 522.890625 340.367188 522.648438 340.6875 522.433594 C 341.007812 522.21875 341.347656 522.039062 341.703125 521.894531 C 342.058594 521.746094 342.425781 521.632812 342.804688 521.558594 C 343.183594 521.484375 343.566406 521.449219 343.949219 521.449219 L 502.042969 521.449219 C 502.425781 521.449219 502.808594 521.484375 503.1875 521.5625 C 503.566406 521.636719 503.933594 521.75 504.289062 521.898438 C 504.644531 522.042969 504.984375 522.226562 505.304688 522.441406 C 505.625 522.65625 505.921875 522.902344 506.191406 523.175781 C 506.464844 523.449219 506.707031 523.746094 506.921875 524.066406 C 507.136719 524.390625 507.316406 524.730469 507.460938 525.085938 C 507.609375 525.441406 507.71875 525.8125 507.792969 526.191406 C 507.867188 526.570312 507.902344 526.953125 507.902344 527.339844 Z M 507.898438 554.21875 C 507.898438 554.605469 507.859375 554.984375 507.785156 555.363281 C 507.710938 555.738281 507.597656 556.105469 507.449219 556.460938 C 507.304688 556.816406 507.125 557.15625 506.910156 557.476562 C 506.695312 557.796875 506.453125 558.09375 506.179688 558.363281 C 505.910156 558.636719 505.613281 558.878906 505.292969 559.09375 C 504.972656 559.308594 504.636719 559.488281 504.28125 559.636719 C 503.925781 559.78125 503.558594 559.894531 503.179688 559.96875 C 502.804688 560.042969 502.421875 560.082031 502.039062 560.082031 L 343.949219 560.082031 C 343.566406 560.082031 343.183594 560.042969 342.804688 559.96875 C 342.429688 559.890625 342.0625 559.78125 341.707031 559.632812 C 341.347656 559.484375 341.011719 559.304688 340.691406 559.089844 C 340.371094 558.875 340.074219 558.632812 339.800781 558.359375 C 339.53125 558.085938 339.285156 557.789062 339.074219 557.46875 C 338.859375 557.148438 338.675781 556.8125 338.53125 556.453125 C 338.382812 556.097656 338.273438 555.730469 338.195312 555.351562 C 338.121094 554.976562 338.082031 554.59375 338.082031 554.207031 C 338.082031 553.824219 338.121094 553.441406 338.195312 553.0625 C 338.273438 552.683594 338.382812 552.316406 338.53125 551.960938 C 338.675781 551.605469 338.859375 551.265625 339.074219 550.945312 C 339.285156 550.625 339.53125 550.328125 339.800781 550.054688 C 340.074219 549.78125 340.371094 549.539062 340.691406 549.324219 C 341.011719 549.109375 341.347656 548.929688 341.707031 548.78125 C 342.0625 548.636719 342.429688 548.523438 342.804688 548.449219 C 343.183594 548.375 343.566406 548.335938 343.949219 548.335938 L 502.042969 548.335938 C 502.425781 548.335938 502.808594 548.375 503.1875 548.449219 C 503.566406 548.523438 503.933594 548.636719 504.292969 548.785156 C 504.648438 548.933594 504.988281 549.117188 505.308594 549.332031 C 505.628906 549.546875 505.925781 549.792969 506.195312 550.066406 C 506.46875 550.339844 506.710938 550.636719 506.925781 550.960938 C 507.140625 551.28125 507.320312 551.621094 507.464844 551.980469 C 507.609375 552.339844 507.722656 552.707031 507.792969 553.085938 C 507.867188 553.464844 507.902344 553.851562 507.902344 554.234375 Z M 507.898438 581.101562 C 507.898438 581.488281 507.859375 581.871094 507.785156 582.246094 C 507.710938 582.625 507.597656 582.992188 507.449219 583.347656 C 507.304688 583.703125 507.125 584.039062 506.910156 584.359375 C 506.695312 584.679688 506.453125 584.976562 506.179688 585.25 C 505.910156 585.523438 505.613281 585.765625 505.292969 585.980469 C 504.972656 586.191406 504.636719 586.375 504.28125 586.519531 C 503.925781 586.667969 503.558594 586.78125 503.179688 586.855469 C 502.804688 586.929688 502.421875 586.96875 502.039062 586.96875 L 451.335938 586.96875 C 450.953125 586.96875 450.570312 586.929688 450.191406 586.855469 C 449.816406 586.78125 449.449219 586.667969 449.09375 586.519531 C 448.738281 586.375 448.398438 586.191406 448.078125 585.976562 C 447.757812 585.765625 447.460938 585.519531 447.1875 585.246094 C 446.917969 584.976562 446.675781 584.679688 446.460938 584.359375 C 446.246094 584.039062 446.066406 583.699219 445.917969 583.34375 C 445.769531 582.988281 445.660156 582.621094 445.582031 582.242188 C 445.507812 581.863281 445.472656 581.480469 445.472656 581.09375 C 445.472656 580.710938 445.507812 580.328125 445.582031 579.949219 C 445.660156 579.570312 445.769531 579.203125 445.917969 578.847656 C 446.066406 578.492188 446.246094 578.152344 446.460938 577.832031 C 446.675781 577.511719 446.917969 577.214844 447.1875 576.941406 C 447.460938 576.671875 447.757812 576.425781 448.078125 576.210938 C 448.398438 576 448.738281 575.816406 449.09375 575.671875 C 449.449219 575.523438 449.816406 575.410156 450.191406 575.335938 C 450.570312 575.261719 450.953125 575.222656 451.335938 575.222656 L 502.042969 575.222656 C 502.425781 575.222656 502.808594 575.261719 503.1875 575.335938 C 503.566406 575.410156 503.933594 575.523438 504.292969 575.671875 C 504.648438 575.820312 504.988281 576.003906 505.308594 576.21875 C 505.628906 576.433594 505.925781 576.675781 506.195312 576.953125 C 506.46875 577.226562 506.710938 577.523438 506.925781 577.84375 C 507.140625 578.167969 507.320312 578.507812 507.464844 578.867188 C 507.609375 579.222656 507.722656 579.59375 507.792969 579.972656 C 507.867188 580.351562 507.902344 580.734375 507.902344 581.121094 Z M 507.898438 581.101562 " fill-opacity="1" fill-rule="nonzero"/></g><g clip-path="url(#9052bd849c)"><path fill="#002250" d="M 671.957031 108.898438 L 139.90625 108.898438 L 139.90625 854.839844 L 177.738281 854.839844 L 177.738281 892.273438 C 177.738281 913.660156 195.117188 931.039062 216.503906 931.039062 C 237.894531 931.039062 255.273438 913.660156 255.273438 892.273438 L 255.273438 854.839844 L 566.75 854.839844 L 566.75 892.273438 C 566.75 913.660156 584.128906 931.039062 605.515625 931.039062 C 626.90625 931.039062 644.285156 913.660156 644.285156 892.273438 L 644.285156 854.839844 L 671.957031 854.839844 Z M 671.957031 108.898438 " fill-opacity="1" fill-rule="nonzero"/></g><g clip-path="url(#e01c764d80)"><path fill="#023d8b" d="M 708.71875 241.777344 L 101.269531 241.777344 L 101.269531 125.34375 C 101.269531 100.746094 121.1875 80.960938 145.652344 80.960938 L 664.335938 80.960938 C 688.933594 80.960938 708.71875 100.878906 708.71875 125.34375 Z M 708.71875 241.777344 " fill-opacity="1" fill-rule="nonzero"/></g><g clip-path="url(#51425f1912)"><path fill="#023d8b" d="M 101.269531 255.148438 L 708.851562 255.148438 L 708.851562 396.847656 L 101.269531 396.847656 Z M 101.269531 255.148438 " fill-opacity="1" fill-rule="nonzero"/></g><g clip-path="url(#5fe31f2c26)"><path fill="#023d8b" d="M 101.269531 410.21875 L 708.851562 410.21875 L 708.851562 551.917969 L 101.269531 551.917969 Z M 101.269531 410.21875 " fill-opacity="1" fill-rule="nonzero"/></g><g clip-path="url(#c891b9d48e)"><path fill="#023d8b" d="M 101.269531 566.625 L 708.851562 566.625 L 708.851562 708.328125 L 101.269531 708.328125 Z M 101.269531 566.625 " fill-opacity="1" fill-rule="nonzero"/></g><g clip-path="url(#389ea2d8b4)"><path fill="#023d8b" d="M 680.113281 870.882812 L 129.878906 870.882812 C 113.96875 870.882812 101.136719 858.050781 101.136719 842.140625 L 101.136719 724.367188 L 708.71875 724.367188 L 708.71875 842.140625 C 708.71875 858.050781 695.886719 870.882812 680.113281 870.882812 Z M 680.113281 870.882812 " fill-opacity="1" fill-rule="nonzero"/></g><path fill="#ffffff" d="M 589.074219 156.222656 C 589.074219 157.1875 589.027344 158.148438 588.933594 159.105469 C 588.839844 160.0625 588.695312 161.015625 588.507812 161.960938 C 588.320312 162.90625 588.085938 163.839844 587.808594 164.761719 C 587.527344 165.679688 587.203125 166.585938 586.835938 167.476562 C 586.46875 168.367188 586.054688 169.238281 585.601562 170.085938 C 585.148438 170.9375 584.652344 171.761719 584.117188 172.5625 C 583.582031 173.363281 583.011719 174.136719 582.398438 174.878906 C 581.789062 175.625 581.140625 176.335938 580.460938 177.019531 C 579.78125 177.699219 579.066406 178.347656 578.320312 178.957031 C 577.578125 179.566406 576.804688 180.140625 576.003906 180.675781 C 575.203125 181.210938 574.378906 181.707031 573.527344 182.160156 C 572.679688 182.613281 571.808594 183.023438 570.917969 183.394531 C 570.027344 183.761719 569.125 184.085938 568.203125 184.367188 C 567.28125 184.644531 566.347656 184.878906 565.402344 185.066406 C 564.457031 185.253906 563.503906 185.398438 562.546875 185.492188 C 561.589844 185.585938 560.628906 185.632812 559.664062 185.632812 C 558.703125 185.632812 557.742188 185.585938 556.78125 185.492188 C 555.824219 185.398438 554.871094 185.253906 553.925781 185.066406 C 552.980469 184.878906 552.050781 184.644531 551.128906 184.367188 C 550.207031 184.085938 549.300781 183.761719 548.410156 183.394531 C 547.519531 183.023438 546.648438 182.613281 545.800781 182.160156 C 544.953125 181.707031 544.125 181.210938 543.324219 180.675781 C 542.523438 180.140625 541.75 179.566406 541.007812 178.957031 C 540.261719 178.347656 539.550781 177.699219 538.867188 177.019531 C 538.1875 176.335938 537.542969 175.625 536.929688 174.878906 C 536.320312 174.136719 535.746094 173.363281 535.210938 172.5625 C 534.675781 171.761719 534.179688 170.9375 533.726562 170.085938 C 533.273438 169.238281 532.863281 168.367188 532.492188 167.476562 C 532.125 166.585938 531.800781 165.679688 531.519531 164.761719 C 531.242188 163.839844 531.007812 162.90625 530.820312 161.960938 C 530.632812 161.015625 530.492188 160.0625 530.394531 159.105469 C 530.300781 158.148438 530.253906 157.1875 530.253906 156.222656 C 530.253906 155.257812 530.300781 154.296875 530.394531 153.339844 C 530.492188 152.382812 530.632812 151.429688 530.820312 150.484375 C 531.007812 149.539062 531.242188 148.605469 531.519531 147.683594 C 531.800781 146.761719 532.125 145.859375 532.492188 144.96875 C 532.863281 144.078125 533.273438 143.207031 533.726562 142.359375 C 534.179688 141.507812 534.675781 140.683594 535.210938 139.882812 C 535.746094 139.082031 536.320312 138.308594 536.929688 137.566406 C 537.542969 136.820312 538.1875 136.109375 538.867188 135.425781 C 539.550781 134.746094 540.261719 134.097656 541.007812 133.488281 C 541.75 132.878906 542.523438 132.304688 543.324219 131.769531 C 544.125 131.234375 544.953125 130.738281 545.800781 130.285156 C 546.648438 129.832031 547.519531 129.421875 548.410156 129.050781 C 549.300781 128.683594 550.207031 128.359375 551.128906 128.078125 C 552.050781 127.800781 552.980469 127.566406 553.925781 127.378906 C 554.871094 127.191406 555.824219 127.046875 556.78125 126.953125 C 557.742188 126.859375 558.703125 126.8125 559.664062 126.8125 C 560.628906 126.8125 561.589844 126.859375 562.546875 126.953125 C 563.503906 127.046875 564.457031 127.191406 565.402344 127.378906 C 566.347656 127.566406 567.28125 127.800781 568.203125 128.078125 C 569.125 128.359375 570.027344 128.683594 570.917969 129.050781 C 571.808594 129.421875 572.679688 129.832031 573.527344 130.285156 C 574.378906 130.738281 575.203125 131.234375 576.003906 131.769531 C 576.804688 132.304688 577.578125 132.878906 578.320312 133.488281 C 579.066406 134.097656 579.78125 134.746094 580.460938 135.425781 C 581.140625 136.109375 581.789062 136.820312 582.398438 137.566406 C 583.007812 138.308594 583.582031 139.082031 584.117188 139.882812 C 584.652344 140.683594 585.148438 141.507812 585.601562 142.359375 C 586.054688 143.207031 586.46875 144.078125 586.835938 144.96875 C 587.203125 145.859375 587.527344 146.761719 587.808594 147.683594 C 588.085938 148.605469 588.320312 149.539062 588.507812 150.484375 C 588.695312 151.429688 588.839844 152.382812 588.933594 153.339844 C 589.027344 154.296875 589.074219 155.257812 589.074219 156.222656 Z M 589.074219 156.222656 " fill-opacity="1" fill-rule="nonzero"/><path fill="#f25d00" d="M 670.621094 156.222656 C 670.621094 157.1875 670.574219 158.148438 670.480469 159.105469 C 670.382812 160.0625 670.242188 161.015625 670.054688 161.960938 C 669.867188 162.90625 669.632812 163.839844 669.355469 164.761719 C 669.074219 165.679688 668.75 166.585938 668.382812 167.476562 C 668.011719 168.367188 667.601562 169.238281 667.148438 170.085938 C 666.691406 170.9375 666.199219 171.761719 665.664062 172.5625 C 665.128906 173.363281 664.554688 174.136719 663.945312 174.878906 C 663.332031 175.625 662.6875 176.335938 662.007812 177.019531 C 661.324219 177.699219 660.613281 178.347656 659.867188 178.957031 C 659.121094 179.566406 658.351562 180.140625 657.550781 180.675781 C 656.75 181.210938 655.921875 181.707031 655.074219 182.160156 C 654.222656 182.613281 653.355469 183.023438 652.464844 183.394531 C 651.574219 183.761719 650.667969 184.085938 649.746094 184.367188 C 648.824219 184.644531 647.890625 184.878906 646.949219 185.066406 C 646.003906 185.253906 645.050781 185.398438 644.09375 185.492188 C 643.132812 185.585938 642.171875 185.632812 641.210938 185.632812 C 640.246094 185.632812 639.285156 185.585938 638.328125 185.492188 C 637.367188 185.398438 636.417969 185.253906 635.472656 185.066406 C 634.527344 184.878906 633.59375 184.644531 632.671875 184.367188 C 631.75 184.085938 630.84375 183.761719 629.957031 183.394531 C 629.066406 183.023438 628.195312 182.613281 627.347656 182.160156 C 626.496094 181.707031 625.671875 181.210938 624.871094 180.675781 C 624.070312 180.140625 623.296875 179.566406 622.550781 178.957031 C 621.808594 178.347656 621.09375 177.699219 620.414062 177.019531 C 619.734375 176.335938 619.085938 175.625 618.476562 174.878906 C 617.863281 174.136719 617.292969 173.363281 616.757812 172.5625 C 616.222656 171.761719 615.726562 170.9375 615.273438 170.085938 C 614.820312 169.238281 614.40625 168.367188 614.039062 167.476562 C 613.671875 166.585938 613.347656 165.679688 613.066406 164.761719 C 612.785156 163.839844 612.554688 162.90625 612.363281 161.960938 C 612.175781 161.015625 612.035156 160.0625 611.941406 159.105469 C 611.847656 158.148438 611.800781 157.1875 611.800781 156.222656 C 611.800781 155.257812 611.847656 154.296875 611.941406 153.339844 C 612.035156 152.382812 612.175781 151.429688 612.363281 150.484375 C 612.554688 149.539062 612.785156 148.605469 613.066406 147.683594 C 613.347656 146.761719 613.671875 145.859375 614.039062 144.96875 C 614.40625 144.078125 614.820312 143.207031 615.273438 142.359375 C 615.726562 141.507812 616.222656 140.683594 616.757812 139.882812 C 617.292969 139.082031 617.863281 138.308594 618.476562 137.566406 C 619.085938 136.820312 619.734375 136.109375 620.414062 135.425781 C 621.09375 134.746094 621.808594 134.097656 622.550781 133.488281 C 623.296875 132.878906 624.070312 132.304688 624.871094 131.769531 C 625.671875 131.234375 626.496094 130.738281 627.347656 130.285156 C 628.195312 129.832031 629.066406 129.421875 629.957031 129.050781 C 630.84375 128.683594 631.75 128.359375 632.671875 128.078125 C 633.59375 127.800781 634.527344 127.566406 635.472656 127.378906 C 636.417969 127.191406 637.367188 127.046875 638.328125 126.953125 C 639.285156 126.859375 640.246094 126.8125 641.210938 126.8125 C 642.171875 126.8125 643.132812 126.859375 644.09375 126.953125 C 645.050781 127.046875 646.003906 127.191406 646.949219 127.378906 C 647.890625 127.566406 648.824219 127.800781 649.746094 128.078125 C 650.667969 128.359375 651.574219 128.683594 652.464844 129.050781 C 653.355469 129.421875 654.222656 129.832031 655.074219 130.285156 C 655.921875 130.738281 656.75 131.234375 657.550781 131.769531 C 658.351562 132.304688 659.121094 132.878906 659.867188 133.488281 C 660.613281 134.097656 661.324219 134.746094 662.007812 135.425781 C 662.6875 136.109375 663.332031 136.820312 663.945312 137.566406 C 664.554688 138.308594 665.128906 139.082031 665.664062 139.882812 C 666.199219 140.683594 666.691406 141.507812 667.148438 142.359375 C 667.601562 143.207031 668.011719 144.078125 668.382812 144.96875 C 668.75 145.859375 669.074219 146.761719 669.355469 147.683594 C 669.632812 148.605469 669.867188 149.539062 670.054688 150.484375 C 670.242188 151.429688 670.382812 152.382812 670.480469 153.339844 C 670.574219 154.296875 670.621094 155.257812 670.621094 156.222656 Z M 670.621094 156.222656 " fill-opacity="1" fill-rule="nonzero"/><path fill="#ffffff" d="M 589.074219 321.988281 C 589.074219 322.949219 589.027344 323.910156 588.933594 324.871094 C 588.839844 325.828125 588.695312 326.78125 588.507812 327.726562 C 588.320312 328.667969 588.085938 329.601562 587.808594 330.523438 C 587.527344 331.445312 587.203125 332.351562 586.835938 333.242188 C 586.46875 334.132812 586.054688 335 585.601562 335.851562 C 585.148438 336.699219 584.652344 337.527344 584.117188 338.328125 C 583.582031 339.128906 583.011719 339.902344 582.398438 340.644531 C 581.789062 341.390625 581.140625 342.101562 580.460938 342.785156 C 579.78125 343.464844 579.066406 344.109375 578.320312 344.722656 C 577.578125 345.332031 576.804688 345.90625 576.003906 346.441406 C 575.203125 346.976562 574.378906 347.46875 573.527344 347.925781 C 572.679688 348.378906 571.808594 348.789062 570.917969 349.160156 C 570.027344 349.527344 569.125 349.851562 568.203125 350.132812 C 567.28125 350.410156 566.347656 350.644531 565.402344 350.832031 C 564.457031 351.019531 563.503906 351.160156 562.546875 351.257812 C 561.589844 351.351562 560.628906 351.398438 559.664062 351.398438 C 558.703125 351.398438 557.742188 351.351562 556.78125 351.257812 C 555.824219 351.160156 554.871094 351.019531 553.925781 350.832031 C 552.980469 350.644531 552.050781 350.410156 551.128906 350.132812 C 550.207031 349.851562 549.300781 349.527344 548.410156 349.160156 C 547.519531 348.789062 546.648438 348.378906 545.800781 347.925781 C 544.953125 347.46875 544.125 346.976562 543.324219 346.441406 C 542.523438 345.90625 541.75 345.332031 541.007812 344.722656 C 540.261719 344.109375 539.550781 343.464844 538.867188 342.785156 C 538.1875 342.101562 537.542969 341.390625 536.929688 340.644531 C 536.320312 339.902344 535.746094 339.128906 535.210938 338.328125 C 534.675781 337.527344 534.179688 336.699219 533.726562 335.851562 C 533.273438 335 532.863281 334.132812 532.492188 333.242188 C 532.125 332.351562 531.800781 331.445312 531.519531 330.523438 C 531.242188 329.601562 531.007812 328.667969 530.820312 327.726562 C 530.632812 326.78125 530.492188 325.828125 530.394531 324.871094 C 530.300781 323.910156 530.253906 322.949219 530.253906 321.988281 C 530.253906 321.023438 530.300781 320.0625 530.394531 319.105469 C 530.492188 318.144531 530.632812 317.195312 530.820312 316.25 C 531.007812 315.304688 531.242188 314.371094 531.519531 313.449219 C 531.800781 312.527344 532.125 311.621094 532.492188 310.734375 C 532.863281 309.84375 533.273438 308.972656 533.726562 308.125 C 534.179688 307.273438 534.675781 306.449219 535.210938 305.648438 C 535.746094 304.847656 536.320312 304.074219 536.929688 303.332031 C 537.542969 302.585938 538.1875 301.871094 538.867188 301.191406 C 539.550781 300.511719 540.261719 299.863281 541.007812 299.253906 C 541.75 298.640625 542.523438 298.070312 543.324219 297.535156 C 544.125 297 544.953125 296.503906 545.800781 296.050781 C 546.648438 295.597656 547.519531 295.183594 548.410156 294.816406 C 549.300781 294.449219 550.207031 294.125 551.128906 293.84375 C 552.050781 293.566406 552.980469 293.332031 553.925781 293.144531 C 554.871094 292.953125 555.824219 292.8125 556.78125 292.71875 C 557.742188 292.625 558.703125 292.578125 559.664062 292.578125 C 560.628906 292.578125 561.589844 292.625 562.546875 292.71875 C 563.503906 292.8125 564.457031 292.953125 565.402344 293.144531 C 566.347656 293.332031 567.28125 293.566406 568.203125 293.84375 C 569.125 294.125 570.027344 294.449219 570.917969 294.816406 C 571.808594 295.183594 572.679688 295.597656 573.527344 296.050781 C 574.378906 296.503906 575.203125 297 576.003906 297.535156 C 576.804688 298.070312 577.578125 298.640625 578.320312 299.253906 C 579.066406 299.863281 579.78125 300.511719 580.460938 301.191406 C 581.140625 301.871094 581.789062 302.585938 582.398438 303.332031 C 583.007812 304.074219 583.582031 304.847656 584.117188 305.648438 C 584.652344 306.449219 585.148438 307.273438 585.601562 308.125 C 586.054688 308.972656 586.46875 309.84375 586.835938 310.734375 C 587.203125 311.621094 587.527344 312.527344 587.808594 313.449219 C 588.085938 314.371094 588.320312 315.304688 588.507812 316.25 C 588.695312 317.195312 588.839844 318.144531 588.933594 319.105469 C 589.027344 320.0625 589.074219 321.023438 589.074219 321.988281 Z M 589.074219 321.988281 " fill-opacity="1" fill-rule="nonzero"/><path fill="#f25d00" d="M 670.621094 321.988281 C 670.621094 322.949219 670.574219 323.910156 670.480469 324.871094 C 670.382812 325.828125 670.242188 326.78125 670.054688 327.726562 C 669.867188 328.667969 669.632812 329.601562 669.355469 330.523438 C 669.074219 331.445312 668.75 332.351562 668.382812 333.242188 C 668.011719 334.132812 667.601562 335 667.148438 335.851562 C 666.691406 336.699219 666.199219 337.527344 665.664062 338.328125 C 665.128906 339.128906 664.554688 339.902344 663.945312 340.644531 C 663.332031 341.390625 662.6875 342.101562 662.007812 342.785156 C 661.324219 343.464844 660.613281 344.109375 659.867188 344.722656 C 659.121094 345.332031 658.351562 345.90625 657.550781 346.441406 C 656.75 346.976562 655.921875 347.46875 655.074219 347.925781 C 654.222656 348.378906 653.355469 348.789062 652.464844 349.160156 C 651.574219 349.527344 650.667969 349.851562 649.746094 350.132812 C 648.824219 350.410156 647.890625 350.644531 646.949219 350.832031 C 646.003906 351.019531 645.050781 351.160156 644.09375 351.257812 C 643.132812 351.351562 642.171875 351.398438 641.210938 351.398438 C 640.246094 351.398438 639.285156 351.351562 638.328125 351.257812 C 637.367188 351.160156 636.417969 351.019531 635.472656 350.832031 C 634.527344 350.644531 633.59375 350.410156 632.671875 350.132812 C 631.75 349.851562 630.84375 349.527344 629.957031 349.160156 C 629.066406 348.789062 628.195312 348.378906 627.347656 347.925781 C 626.496094 347.46875 625.671875 346.976562 624.871094 346.441406 C 624.070312 345.90625 623.296875 345.332031 622.550781 344.722656 C 621.808594 344.109375 621.09375 343.464844 620.414062 342.785156 C 619.734375 342.101562 619.085938 341.390625 618.476562 340.644531 C 617.863281 339.902344 617.292969 339.128906 616.757812 338.328125 C 616.222656 337.527344 615.726562 336.699219 615.273438 335.851562 C 614.820312 335 614.40625 334.132812 614.039062 333.242188 C 613.671875 332.351562 613.347656 331.445312 613.066406 330.523438 C 612.785156 329.601562 612.554688 328.667969 612.363281 327.726562 C 612.175781 326.78125 612.035156 325.828125 611.941406 324.871094 C 611.847656 323.910156 611.800781 322.949219 611.800781 321.988281 C 611.800781 321.023438 611.847656 320.0625 611.941406 319.105469 C 612.035156 318.144531 612.175781 317.195312 612.363281 316.25 C 612.554688 315.304688 612.785156 314.371094 613.066406 313.449219 C 613.347656 312.527344 613.671875 311.621094 614.039062 310.734375 C 614.40625 309.84375 614.820312 308.972656 615.273438 308.125 C 615.726562 307.273438 616.222656 306.449219 616.757812 305.648438 C 617.292969 304.847656 617.863281 304.074219 618.476562 303.332031 C 619.085938 302.585938 619.734375 301.871094 620.414062 301.191406 C 621.09375 300.511719 621.808594 299.863281 622.550781 299.253906 C 623.296875 298.640625 624.070312 298.070312 624.871094 297.535156 C 625.671875 297 626.496094 296.503906 627.347656 296.050781 C 628.195312 295.597656 629.066406 295.183594 629.957031 294.816406 C 630.84375 294.449219 631.75 294.125 632.671875 293.84375 C 633.59375 293.566406 634.527344 293.332031 635.472656 293.144531 C 636.417969 292.953125 637.367188 292.8125 638.328125 292.71875 C 639.285156 292.625 640.246094 292.578125 641.210938 292.578125 C 642.171875 292.578125 643.132812 292.625 644.09375 292.71875 C 645.050781 292.8125 646.003906 292.953125 646.949219 293.144531 C 647.890625 293.332031 648.824219 293.566406 649.746094 293.84375 C 650.667969 294.125 651.574219 294.449219 652.464844 294.816406 C 653.355469 295.183594 654.222656 295.597656 655.074219 296.050781 C 655.921875 296.503906 656.75 297 657.550781 297.535156 C 658.351562 298.070312 659.121094 298.640625 659.867188 299.253906 C 660.613281 299.863281 661.324219 300.511719 662.007812 301.191406 C 662.6875 301.871094 663.332031 302.585938 663.945312 303.332031 C 664.554688 304.074219 665.128906 304.847656 665.664062 305.648438 C 666.199219 306.449219 666.691406 307.273438 667.148438 308.125 C 667.601562 308.972656 668.011719 309.84375 668.382812 310.734375 C 668.75 311.621094 669.074219 312.527344 669.355469 313.449219 C 669.632812 314.371094 669.867188 315.304688 670.054688 316.25 C 670.242188 317.195312 670.382812 318.144531 670.480469 319.105469 C 670.574219 320.0625 670.621094 321.023438 670.621094 321.988281 Z M 670.621094 321.988281 " fill-opacity="1" fill-rule="nonzero"/><path fill="#ffffff" d="M 589.074219 474.382812 C 589.074219 475.347656 589.027344 476.308594 588.933594 477.265625 C 588.839844 478.226562 588.695312 479.175781 588.507812 480.121094 C 588.320312 481.066406 588.085938 482 587.808594 482.921875 C 587.527344 483.84375 587.203125 484.75 586.835938 485.640625 C 586.46875 486.527344 586.054688 487.398438 585.601562 488.25 C 585.148438 489.097656 584.652344 489.921875 584.117188 490.722656 C 583.582031 491.523438 583.011719 492.296875 582.398438 493.042969 C 581.789062 493.785156 581.140625 494.5 580.460938 495.179688 C 579.78125 495.863281 579.066406 496.507812 578.320312 497.117188 C 577.578125 497.730469 576.804688 498.300781 576.003906 498.835938 C 575.203125 499.371094 574.378906 499.867188 573.527344 500.320312 C 572.679688 500.777344 571.808594 501.1875 570.917969 501.554688 C 570.027344 501.925781 569.125 502.25 568.203125 502.527344 C 567.28125 502.808594 566.347656 503.042969 565.402344 503.230469 C 564.457031 503.417969 563.503906 503.558594 562.546875 503.652344 C 561.589844 503.746094 560.628906 503.792969 559.664062 503.792969 C 558.703125 503.792969 557.742188 503.746094 556.78125 503.652344 C 555.824219 503.558594 554.871094 503.417969 553.925781 503.230469 C 552.980469 503.042969 552.050781 502.808594 551.128906 502.527344 C 550.207031 502.25 549.300781 501.925781 548.410156 501.554688 C 547.519531 501.1875 546.648438 500.777344 545.800781 500.320312 C 544.953125 499.867188 544.125 499.371094 543.324219 498.835938 C 542.523438 498.300781 541.75 497.730469 541.007812 497.117188 C 540.261719 496.507812 539.550781 495.863281 538.867188 495.179688 C 538.1875 494.5 537.542969 493.785156 536.929688 493.042969 C 536.320312 492.296875 535.746094 491.523438 535.210938 490.722656 C 534.675781 489.921875 534.179688 489.097656 533.726562 488.25 C 533.273438 487.398438 532.863281 486.527344 532.492188 485.640625 C 532.125 484.75 531.800781 483.84375 531.519531 482.921875 C 531.242188 482 531.007812 481.066406 530.820312 480.121094 C 530.632812 479.175781 530.492188 478.226562 530.394531 477.265625 C 530.300781 476.308594 530.253906 475.347656 530.253906 474.382812 C 530.253906 473.421875 530.300781 472.460938 530.394531 471.5 C 530.492188 470.542969 530.632812 469.589844 530.820312 468.648438 C 531.007812 467.703125 531.242188 466.769531 531.519531 465.847656 C 531.800781 464.925781 532.125 464.019531 532.492188 463.128906 C 532.863281 462.238281 533.273438 461.371094 533.726562 460.519531 C 534.179688 459.671875 534.675781 458.847656 535.210938 458.046875 C 535.746094 457.246094 536.320312 456.472656 536.929688 455.726562 C 537.542969 454.980469 538.1875 454.269531 538.867188 453.589844 C 539.550781 452.90625 540.261719 452.261719 541.007812 451.648438 C 541.75 451.039062 542.523438 450.464844 543.324219 449.929688 C 544.125 449.394531 544.953125 448.902344 545.800781 448.445312 C 546.648438 447.992188 547.519531 447.582031 548.410156 447.214844 C 549.300781 446.84375 550.207031 446.519531 551.128906 446.242188 C 552.050781 445.960938 552.980469 445.726562 553.925781 445.539062 C 554.871094 445.351562 555.824219 445.210938 556.78125 445.117188 C 557.742188 445.023438 558.703125 444.972656 559.664062 444.972656 C 560.628906 444.972656 561.589844 445.023438 562.546875 445.117188 C 563.503906 445.210938 564.457031 445.351562 565.402344 445.539062 C 566.347656 445.726562 567.28125 445.960938 568.203125 446.242188 C 569.125 446.519531 570.027344 446.84375 570.917969 447.214844 C 571.808594 447.582031 572.679688 447.992188 573.527344 448.445312 C 574.378906 448.902344 575.203125 449.394531 576.003906 449.929688 C 576.804688 450.464844 577.578125 451.039062 578.320312 451.648438 C 579.066406 452.261719 579.78125 452.90625 580.460938 453.589844 C 581.140625 454.269531 581.789062 454.980469 582.398438 455.726562 C 583.007812 456.472656 583.582031 457.246094 584.117188 458.046875 C 584.652344 458.847656 585.148438 459.671875 585.601562 460.519531 C 586.054688 461.371094 586.46875 462.238281 586.835938 463.128906 C 587.203125 464.019531 587.527344 464.925781 587.808594 465.847656 C 588.085938 466.769531 588.320312 467.703125 588.507812 468.648438 C 588.695312 469.589844 588.839844 470.542969 588.933594 471.5 C 589.027344 472.460938 589.074219 473.421875 589.074219 474.382812 Z M 589.074219 474.382812 " fill-opacity="1" fill-rule="nonzero"/><path fill="#f25d00" d="M 670.621094 474.382812 C 670.621094 475.347656 670.574219 476.308594 670.480469 477.265625 C 670.382812 478.226562 670.242188 479.175781 670.054688 480.121094 C 669.867188 481.066406 669.632812 482 669.355469 482.921875 C 669.074219 483.84375 668.75 484.75 668.382812 485.640625 C 668.011719 486.527344 667.601562 487.398438 667.148438 488.25 C 666.691406 489.097656 666.199219 489.921875 665.664062 490.722656 C 665.128906 491.523438 664.554688 492.296875 663.945312 493.042969 C 663.332031 493.785156 662.6875 494.5 662.007812 495.179688 C 661.324219 495.863281 660.613281 496.507812 659.867188 497.117188 C 659.121094 497.730469 658.351562 498.300781 657.550781 498.835938 C 656.75 499.371094 655.921875 499.867188 655.074219 500.320312 C 654.222656 500.777344 653.355469 501.1875 652.464844 501.554688 C 651.574219 501.925781 650.667969 502.25 649.746094 502.527344 C 648.824219 502.808594 647.890625 503.042969 646.949219 503.230469 C 646.003906 503.417969 645.050781 503.558594 644.09375 503.652344 C 643.132812 503.746094 642.171875 503.792969 641.210938 503.792969 C 640.246094 503.792969 639.285156 503.746094 638.328125 503.652344 C 637.367188 503.558594 636.417969 503.417969 635.472656 503.230469 C 634.527344 503.042969 633.59375 502.808594 632.671875 502.527344 C 631.75 502.25 630.84375 501.925781 629.957031 501.554688 C 629.066406 501.1875 628.195312 500.777344 627.347656 500.320312 C 626.496094 499.867188 625.671875 499.371094 624.871094 498.835938 C 624.070312 498.300781 623.296875 497.730469 622.550781 497.117188 C 621.808594 496.507812 621.09375 495.863281 620.414062 495.179688 C 619.734375 494.5 619.085938 493.785156 618.476562 493.042969 C 617.863281 492.296875 617.292969 491.523438 616.757812 490.722656 C 616.222656 489.921875 615.726562 489.097656 615.273438 488.25 C 614.820312 487.398438 614.40625 486.527344 614.039062 485.640625 C 613.671875 484.75 613.347656 483.84375 613.066406 482.921875 C 612.785156 482 612.554688 481.066406 612.363281 480.121094 C 612.175781 479.175781 612.035156 478.226562 611.941406 477.265625 C 611.847656 476.308594 611.800781 475.347656 611.800781 474.382812 C 611.800781 473.421875 611.847656 472.460938 611.941406 471.5 C 612.035156 470.542969 612.175781 469.589844 612.363281 468.648438 C 612.554688 467.703125 612.785156 466.769531 613.066406 465.847656 C 613.347656 464.925781 613.671875 464.019531 614.039062 463.128906 C 614.40625 462.238281 614.820312 461.371094 615.273438 460.519531 C 615.726562 459.671875 616.222656 458.847656 616.757812 458.046875 C 617.292969 457.246094 617.863281 456.472656 618.476562 455.726562 C 619.085938 454.980469 619.734375 454.269531 620.414062 453.589844 C 621.09375 452.90625 621.808594 452.261719 622.550781 451.648438 C 623.296875 451.039062 624.070312 450.464844 624.871094 449.929688 C 625.671875 449.394531 626.496094 448.902344 627.347656 448.445312 C 628.195312 447.992188 629.066406 447.582031 629.957031 447.214844 C 630.84375 446.84375 631.75 446.519531 632.671875 446.242188 C 633.59375 445.960938 634.527344 445.726562 635.472656 445.539062 C 636.417969 445.351562 637.367188 445.210938 638.328125 445.117188 C 639.285156 445.023438 640.246094 444.972656 641.210938 444.972656 C 642.171875 444.972656 643.132812 445.023438 644.09375 445.117188 C 645.050781 445.210938 646.003906 445.351562 646.949219 445.539062 C 647.890625 445.726562 648.824219 445.960938 649.746094 446.242188 C 650.667969 446.519531 651.574219 446.84375 652.464844 447.214844 C 653.355469 447.582031 654.222656 447.992188 655.074219 448.445312 C 655.921875 448.902344 656.75 449.394531 657.550781 449.929688 C 658.351562 450.464844 659.121094 451.039062 659.867188 451.648438 C 660.613281 452.261719 661.324219 452.90625 662.007812 453.589844 C 662.6875 454.269531 663.332031 454.980469 663.945312 455.726562 C 664.554688 456.472656 665.128906 457.246094 665.664062 458.046875 C 666.199219 458.847656 666.691406 459.671875 667.148438 460.519531 C 667.601562 461.371094 668.011719 462.238281 668.382812 463.128906 C 668.75 464.019531 669.074219 464.925781 669.355469 465.847656 C 669.632812 466.769531 669.867188 467.703125 670.054688 468.648438 C 670.242188 469.589844 670.382812 470.542969 670.480469 471.5 C 670.574219 472.460938 670.621094 473.421875 670.621094 474.382812 Z M 670.621094 474.382812 " fill-opacity="1" fill-rule="nonzero"/><path fill="#ffffff" d="M 589.074219 637.476562 C 589.074219 638.4375 589.027344 639.398438 588.933594 640.359375 C 588.839844 641.316406 588.695312 642.269531 588.507812 643.214844 C 588.320312 644.15625 588.085938 645.089844 587.808594 646.011719 C 587.527344 646.933594 587.203125 647.839844 586.835938 648.730469 C 586.46875 649.621094 586.054688 650.488281 585.601562 651.339844 C 585.148438 652.1875 584.652344 653.015625 584.117188 653.816406 C 583.582031 654.617188 583.011719 655.386719 582.398438 656.132812 C 581.789062 656.878906 581.140625 657.589844 580.460938 658.273438 C 579.78125 658.953125 579.066406 659.597656 578.320312 660.210938 C 577.578125 660.820312 576.804688 661.394531 576.003906 661.929688 C 575.203125 662.464844 574.378906 662.957031 573.527344 663.414062 C 572.679688 663.867188 571.808594 664.277344 570.917969 664.648438 C 570.027344 665.015625 569.125 665.339844 568.203125 665.621094 C 567.28125 665.898438 566.347656 666.132812 565.402344 666.320312 C 564.457031 666.507812 563.503906 666.648438 562.546875 666.742188 C 561.589844 666.839844 560.628906 666.886719 559.664062 666.886719 C 558.703125 666.886719 557.742188 666.839844 556.78125 666.742188 C 555.824219 666.648438 554.871094 666.507812 553.925781 666.320312 C 552.980469 666.132812 552.050781 665.898438 551.128906 665.621094 C 550.207031 665.339844 549.300781 665.015625 548.410156 664.648438 C 547.519531 664.277344 546.648438 663.867188 545.800781 663.414062 C 544.953125 662.957031 544.125 662.464844 543.324219 661.929688 C 542.523438 661.394531 541.75 660.820312 541.007812 660.210938 C 540.261719 659.597656 539.550781 658.953125 538.867188 658.273438 C 538.1875 657.589844 537.542969 656.878906 536.929688 656.132812 C 536.320312 655.386719 535.746094 654.617188 535.210938 653.816406 C 534.675781 653.015625 534.179688 652.1875 533.726562 651.339844 C 533.273438 650.488281 532.863281 649.621094 532.492188 648.730469 C 532.125 647.839844 531.800781 646.933594 531.519531 646.011719 C 531.242188 645.089844 531.007812 644.15625 530.820312 643.214844 C 530.632812 642.269531 530.492188 641.316406 530.394531 640.359375 C 530.300781 639.398438 530.253906 638.4375 530.253906 637.476562 C 530.253906 636.511719 530.300781 635.550781 530.394531 634.59375 C 530.492188 633.632812 530.632812 632.683594 530.820312 631.738281 C 531.007812 630.792969 531.242188 629.859375 531.519531 628.9375 C 531.800781 628.015625 532.125 627.109375 532.492188 626.222656 C 532.863281 625.332031 533.273438 624.460938 533.726562 623.613281 C 534.179688 622.761719 534.675781 621.9375 535.210938 621.136719 C 535.746094 620.335938 536.320312 619.5625 536.929688 618.816406 C 537.542969 618.074219 538.1875 617.359375 538.867188 616.679688 C 539.550781 616 540.261719 615.351562 541.007812 614.742188 C 541.75 614.128906 542.523438 613.558594 543.324219 613.023438 C 544.125 612.488281 544.953125 611.992188 545.800781 611.539062 C 546.648438 611.085938 547.519531 610.671875 548.410156 610.304688 C 549.300781 609.9375 550.207031 609.613281 551.128906 609.332031 C 552.050781 609.050781 552.980469 608.820312 553.925781 608.632812 C 554.871094 608.441406 555.824219 608.300781 556.78125 608.207031 C 557.742188 608.113281 558.703125 608.066406 559.664062 608.066406 C 560.628906 608.066406 561.589844 608.113281 562.546875 608.207031 C 563.503906 608.300781 564.457031 608.441406 565.402344 608.632812 C 566.347656 608.820312 567.28125 609.050781 568.203125 609.332031 C 569.125 609.613281 570.027344 609.9375 570.917969 610.304688 C 571.808594 610.671875 572.679688 611.085938 573.527344 611.539062 C 574.378906 611.992188 575.203125 612.488281 576.003906 613.023438 C 576.804688 613.558594 577.578125 614.128906 578.320312 614.742188 C 579.066406 615.351562 579.78125 616 580.460938 616.679688 C 581.140625 617.359375 581.789062 618.074219 582.398438 618.816406 C 583.007812 619.5625 583.582031 620.335938 584.117188 621.136719 C 584.652344 621.9375 585.148438 622.761719 585.601562 623.613281 C 586.054688 624.460938 586.46875 625.332031 586.835938 626.222656 C 587.203125 627.109375 587.527344 628.015625 587.808594 628.9375 C 588.085938 629.859375 588.320312 630.792969 588.507812 631.738281 C 588.695312 632.683594 588.839844 633.632812 588.933594 634.59375 C 589.027344 635.550781 589.074219 636.511719 589.074219 637.476562 Z M 589.074219 637.476562 " fill-opacity="1" fill-rule="nonzero"/><path fill="#f25d00" d="M 670.621094 637.476562 C 670.621094 638.4375 670.574219 639.398438 670.480469 640.359375 C 670.382812 641.316406 670.242188 642.269531 670.054688 643.214844 C 669.867188 644.15625 669.632812 645.089844 669.355469 646.011719 C 669.074219 646.933594 668.75 647.839844 668.382812 648.730469 C 668.011719 649.621094 667.601562 650.488281 667.148438 651.339844 C 666.691406 652.1875 666.199219 653.015625 665.664062 653.816406 C 665.128906 654.617188 664.554688 655.386719 663.945312 656.132812 C 663.332031 656.878906 662.6875 657.589844 662.007812 658.273438 C 661.324219 658.953125 660.613281 659.597656 659.867188 660.210938 C 659.121094 660.820312 658.351562 661.394531 657.550781 661.929688 C 656.75 662.464844 655.921875 662.957031 655.074219 663.414062 C 654.222656 663.867188 653.355469 664.277344 652.464844 664.648438 C 651.574219 665.015625 650.667969 665.339844 649.746094 665.621094 C 648.824219 665.898438 647.890625 666.132812 646.949219 666.320312 C 646.003906 666.507812 645.050781 666.648438 644.09375 666.742188 C 643.132812 666.839844 642.171875 666.886719 641.210938 666.886719 C 640.246094 666.886719 639.285156 666.839844 638.328125 666.742188 C 637.367188 666.648438 636.417969 666.507812 635.472656 666.320312 C 634.527344 666.132812 633.59375 665.898438 632.671875 665.621094 C 631.75 665.339844 630.84375 665.015625 629.957031 664.648438 C 629.066406 664.277344 628.195312 663.867188 627.347656 663.414062 C 626.496094 662.957031 625.671875 662.464844 624.871094 661.929688 C 624.070312 661.394531 623.296875 660.820312 622.550781 660.210938 C 621.808594 659.597656 621.09375 658.953125 620.414062 658.273438 C 619.734375 657.589844 619.085938 656.878906 618.476562 656.132812 C 617.863281 655.386719 617.292969 654.617188 616.757812 653.816406 C 616.222656 653.015625 615.726562 652.1875 615.273438 651.339844 C 614.820312 650.488281 614.40625 649.621094 614.039062 648.730469 C 613.671875 647.839844 613.347656 646.933594 613.066406 646.011719 C 612.785156 645.089844 612.554688 644.15625 612.363281 643.214844 C 612.175781 642.269531 612.035156 641.316406 611.941406 640.359375 C 611.847656 639.398438 611.800781 638.4375 611.800781 637.476562 C 611.800781 636.511719 611.847656 635.550781 611.941406 634.59375 C 612.035156 633.632812 612.175781 632.683594 612.363281 631.738281 C 612.554688 630.792969 612.785156 629.859375 613.066406 628.9375 C 613.347656 628.015625 613.671875 627.109375 614.039062 626.222656 C 614.40625 625.332031 614.820312 624.460938 615.273438 623.613281 C 615.726562 622.761719 616.222656 621.9375 616.757812 621.136719 C 617.292969 620.335938 617.863281 619.5625 618.476562 618.816406 C 619.085938 618.074219 619.734375 617.359375 620.414062 616.679688 C 621.09375 616 621.808594 615.351562 622.550781 614.742188 C 623.296875 614.128906 624.070312 613.558594 624.871094 613.023438 C 625.671875 612.488281 626.496094 611.992188 627.347656 611.539062 C 628.195312 611.085938 629.066406 610.671875 629.957031 610.304688 C 630.84375 609.9375 631.75 609.613281 632.671875 609.332031 C 633.59375 609.050781 634.527344 608.820312 635.472656 608.632812 C 636.417969 608.441406 637.367188 608.300781 638.328125 608.207031 C 639.285156 608.113281 640.246094 608.066406 641.210938 608.066406 C 642.171875 608.066406 643.132812 608.113281 644.09375 608.207031 C 645.050781 608.300781 646.003906 608.441406 646.949219 608.632812 C 647.890625 608.820312 648.824219 609.050781 649.746094 609.332031 C 650.667969 609.613281 651.574219 609.9375 652.464844 610.304688 C 653.355469 610.671875 654.222656 611.085938 655.074219 611.539062 C 655.921875 611.992188 656.75 612.488281 657.550781 613.023438 C 658.351562 613.558594 659.121094 614.128906 659.867188 614.742188 C 660.613281 615.351562 661.324219 616 662.007812 616.679688 C 662.6875 617.359375 663.332031 618.074219 663.945312 618.816406 C 664.554688 619.5625 665.128906 620.335938 665.664062 621.136719 C 666.199219 621.9375 666.691406 622.761719 667.148438 623.613281 C 667.601562 624.460938 668.011719 625.332031 668.382812 626.222656 C 668.75 627.109375 669.074219 628.015625 669.355469 628.9375 C 669.632812 629.859375 669.867188 630.792969 670.054688 631.738281 C 670.242188 632.683594 670.382812 633.632812 670.480469 634.59375 C 670.574219 635.550781 670.621094 636.511719 670.621094 637.476562 Z M 670.621094 637.476562 " fill-opacity="1" fill-rule="nonzero"/><path fill="#ffffff" d="M 589.074219 795.21875 C 589.074219 796.183594 589.027344 797.144531 588.933594 798.101562 C 588.839844 799.0625 588.695312 800.011719 588.507812 800.957031 C 588.320312 801.902344 588.085938 802.835938 587.808594 803.757812 C 587.527344 804.679688 587.203125 805.585938 586.835938 806.472656 C 586.46875 807.363281 586.054688 808.234375 585.601562 809.082031 C 585.148438 809.933594 584.652344 810.757812 584.117188 811.558594 C 583.582031 812.359375 583.011719 813.132812 582.398438 813.878906 C 581.789062 814.621094 581.140625 815.335938 580.460938 816.015625 C 579.78125 816.695312 579.066406 817.34375 578.320312 817.953125 C 577.578125 818.566406 576.804688 819.136719 576.003906 819.671875 C 575.203125 820.207031 574.378906 820.703125 573.527344 821.15625 C 572.679688 821.609375 571.808594 822.023438 570.917969 822.390625 C 570.027344 822.757812 569.125 823.082031 568.203125 823.363281 C 567.28125 823.644531 566.347656 823.875 565.402344 824.066406 C 564.457031 824.253906 563.503906 824.394531 562.546875 824.488281 C 561.589844 824.582031 560.628906 824.628906 559.664062 824.628906 C 558.703125 824.628906 557.742188 824.582031 556.78125 824.488281 C 555.824219 824.394531 554.871094 824.253906 553.925781 824.066406 C 552.980469 823.875 552.050781 823.644531 551.128906 823.363281 C 550.207031 823.082031 549.300781 822.757812 548.410156 822.390625 C 547.519531 822.023438 546.648438 821.609375 545.800781 821.15625 C 544.953125 820.703125 544.125 820.207031 543.324219 819.671875 C 542.523438 819.136719 541.75 818.566406 541.007812 817.953125 C 540.261719 817.34375 539.550781 816.695312 538.867188 816.015625 C 538.1875 815.335938 537.542969 814.621094 536.929688 813.878906 C 536.320312 813.132812 535.746094 812.359375 535.210938 811.558594 C 534.675781 810.757812 534.179688 809.933594 533.726562 809.082031 C 533.273438 808.234375 532.863281 807.363281 532.492188 806.472656 C 532.125 805.585938 531.800781 804.679688 531.519531 803.757812 C 531.242188 802.835938 531.007812 801.902344 530.820312 800.957031 C 530.632812 800.011719 530.492188 799.0625 530.394531 798.101562 C 530.300781 797.144531 530.253906 796.183594 530.253906 795.21875 C 530.253906 794.257812 530.300781 793.296875 530.394531 792.335938 C 530.492188 791.378906 530.632812 790.425781 530.820312 789.480469 C 531.007812 788.539062 531.242188 787.605469 531.519531 786.683594 C 531.800781 785.761719 532.125 784.855469 532.492188 783.964844 C 532.863281 783.074219 533.273438 782.207031 533.726562 781.355469 C 534.179688 780.507812 534.675781 779.679688 535.210938 778.878906 C 535.746094 778.078125 536.320312 777.308594 536.929688 776.5625 C 537.542969 775.816406 538.1875 775.105469 538.867188 774.425781 C 539.550781 773.742188 540.261719 773.097656 541.007812 772.484375 C 541.75 771.875 542.523438 771.300781 543.324219 770.765625 C 544.125 770.230469 544.953125 769.738281 545.800781 769.28125 C 546.648438 768.828125 547.519531 768.417969 548.410156 768.046875 C 549.300781 767.679688 550.207031 767.355469 551.128906 767.078125 C 552.050781 766.796875 552.980469 766.5625 553.925781 766.375 C 554.871094 766.1875 555.824219 766.046875 556.78125 765.953125 C 557.742188 765.855469 558.703125 765.808594 559.664062 765.808594 C 560.628906 765.808594 561.589844 765.855469 562.546875 765.953125 C 563.503906 766.046875 564.457031 766.1875 565.402344 766.375 C 566.347656 766.5625 567.28125 766.796875 568.203125 767.078125 C 569.125 767.355469 570.027344 767.679688 570.917969 768.046875 C 571.808594 768.417969 572.679688 768.828125 573.527344 769.28125 C 574.378906 769.738281 575.203125 770.230469 576.003906 770.765625 C 576.804688 771.300781 577.578125 771.875 578.320312 772.484375 C 579.066406 773.097656 579.78125 773.742188 580.460938 774.425781 C 581.140625 775.105469 581.789062 775.816406 582.398438 776.5625 C 583.007812 777.308594 583.582031 778.078125 584.117188 778.878906 C 584.652344 779.679688 585.148438 780.507812 585.601562 781.355469 C 586.054688 782.207031 586.46875 783.074219 586.835938 783.964844 C 587.203125 784.855469 587.527344 785.761719 587.808594 786.683594 C 588.085938 787.605469 588.320312 788.539062 588.507812 789.480469 C 588.695312 790.425781 588.839844 791.378906 588.933594 792.335938 C 589.027344 793.296875 589.074219 794.257812 589.074219 795.21875 Z M 589.074219 795.21875 " fill-opacity="1" fill-rule="nonzero"/><path fill="#f25d00" d="M 670.621094 795.21875 C 670.621094 796.183594 670.574219 797.144531 670.480469 798.101562 C 670.382812 799.0625 670.242188 800.011719 670.054688 800.957031 C 669.867188 801.902344 669.632812 802.835938 669.355469 803.757812 C 669.074219 804.679688 668.75 805.585938 668.382812 806.472656 C 668.011719 807.363281 667.601562 808.234375 667.148438 809.082031 C 666.691406 809.933594 666.199219 810.757812 665.664062 811.558594 C 665.128906 812.359375 664.554688 813.132812 663.945312 813.878906 C 663.332031 814.621094 662.6875 815.335938 662.007812 816.015625 C 661.324219 816.695312 660.613281 817.34375 659.867188 817.953125 C 659.121094 818.566406 658.351562 819.136719 657.550781 819.671875 C 656.75 820.207031 655.921875 820.703125 655.074219 821.15625 C 654.222656 821.609375 653.355469 822.023438 652.464844 822.390625 C 651.574219 822.757812 650.667969 823.082031 649.746094 823.363281 C 648.824219 823.644531 647.890625 823.875 646.949219 824.066406 C 646.003906 824.253906 645.050781 824.394531 644.09375 824.488281 C 643.132812 824.582031 642.171875 824.628906 641.210938 824.628906 C 640.246094 824.628906 639.285156 824.582031 638.328125 824.488281 C 637.367188 824.394531 636.417969 824.253906 635.472656 824.066406 C 634.527344 823.875 633.59375 823.644531 632.671875 823.363281 C 631.75 823.082031 630.84375 822.757812 629.957031 822.390625 C 629.066406 822.023438 628.195312 821.609375 627.347656 821.15625 C 626.496094 820.703125 625.671875 820.207031 624.871094 819.671875 C 624.070312 819.136719 623.296875 818.566406 622.550781 817.953125 C 621.808594 817.34375 621.09375 816.695312 620.414062 816.015625 C 619.734375 815.335938 619.085938 814.621094 618.476562 813.878906 C 617.863281 813.132812 617.292969 812.359375 616.757812 811.558594 C 616.222656 810.757812 615.726562 809.933594 615.273438 809.082031 C 614.820312 808.234375 614.40625 807.363281 614.039062 806.472656 C 613.671875 805.585938 613.347656 804.679688 613.066406 803.757812 C 612.785156 802.835938 612.554688 801.902344 612.363281 800.957031 C 612.175781 800.011719 612.035156 799.0625 611.941406 798.101562 C 611.847656 797.144531 611.800781 796.183594 611.800781 795.21875 C 611.800781 794.257812 611.847656 793.296875 611.941406 792.335938 C 612.035156 791.378906 612.175781 790.425781 612.363281 789.480469 C 612.554688 788.539062 612.785156 787.605469 613.066406 786.683594 C 613.347656 785.761719 613.671875 784.855469 614.039062 783.964844 C 614.40625 783.074219 614.820312 782.207031 615.273438 781.355469 C 615.726562 780.507812 616.222656 779.679688 616.757812 778.878906 C 617.292969 778.078125 617.863281 777.308594 618.476562 776.5625 C 619.085938 775.816406 619.734375 775.105469 620.414062 774.425781 C 621.09375 773.742188 621.808594 773.097656 622.550781 772.484375 C 623.296875 771.875 624.070312 771.300781 624.871094 770.765625 C 625.671875 770.230469 626.496094 769.738281 627.347656 769.28125 C 628.195312 768.828125 629.066406 768.417969 629.957031 768.046875 C 630.84375 767.679688 631.75 767.355469 632.671875 767.078125 C 633.59375 766.796875 634.527344 766.5625 635.472656 766.375 C 636.417969 766.1875 637.367188 766.046875 638.328125 765.953125 C 639.285156 765.855469 640.246094 765.808594 641.210938 765.808594 C 642.171875 765.808594 643.132812 765.855469 644.09375 765.953125 C 645.050781 766.046875 646.003906 766.1875 646.949219 766.375 C 647.890625 766.5625 648.824219 766.796875 649.746094 767.078125 C 650.667969 767.355469 651.574219 767.679688 652.464844 768.046875 C 653.355469 768.417969 654.222656 768.828125 655.074219 769.28125 C 655.921875 769.738281 656.75 770.230469 657.550781 770.765625 C 658.351562 771.300781 659.121094 771.875 659.867188 772.484375 C 660.613281 773.097656 661.324219 773.742188 662.007812 774.425781 C 662.6875 775.105469 663.332031 775.816406 663.945312 776.5625 C 664.554688 777.308594 665.128906 778.078125 665.664062 778.878906 C 666.199219 779.679688 666.691406 780.507812 667.148438 781.355469 C 667.601562 782.207031 668.011719 783.074219 668.382812 783.964844 C 668.75 784.855469 669.074219 785.761719 669.355469 786.683594 C 669.632812 787.605469 669.867188 788.539062 670.054688 789.480469 C 670.242188 790.425781 670.382812 791.378906 670.480469 792.335938 C 670.574219 793.296875 670.621094 794.257812 670.621094 795.21875 Z M 670.621094 795.21875 " fill-opacity="1" fill-rule="nonzero"/><path fill="#002250" d="M 388.953125 185.632812 L 173.726562 185.632812 C 164.902344 185.632812 157.683594 178.414062 157.683594 169.589844 L 157.683594 162.371094 C 157.683594 153.550781 164.902344 146.332031 173.726562 146.332031 L 388.953125 146.332031 C 397.777344 146.332031 404.996094 153.550781 404.996094 162.371094 L 404.996094 169.589844 C 404.996094 178.414062 397.644531 185.632812 388.953125 185.632812 Z M 388.953125 185.632812 " fill-opacity="1" fill-rule="nonzero"/><path fill="#002250" d="M 388.953125 345.648438 L 173.726562 345.648438 C 164.902344 345.648438 157.683594 338.429688 157.683594 329.609375 L 157.683594 322.386719 C 157.683594 313.566406 164.902344 306.347656 173.726562 306.347656 L 388.953125 306.347656 C 397.777344 306.347656 404.996094 313.566406 404.996094 322.386719 L 404.996094 329.609375 C 404.996094 338.429688 397.644531 345.648438 388.953125 345.648438 Z M 388.953125 345.648438 " fill-opacity="1" fill-rule="nonzero"/><path fill="#002250" d="M 380.933594 500.71875 L 165.707031 500.71875 C 156.882812 500.71875 149.664062 493.5 149.664062 484.679688 L 149.664062 477.460938 C 149.664062 468.636719 156.882812 461.417969 165.707031 461.417969 L 380.933594 461.417969 C 389.753906 461.417969 396.972656 468.636719 396.972656 477.460938 L 396.972656 484.679688 C 396.972656 493.5 389.621094 500.71875 380.933594 500.71875 Z M 380.933594 500.71875 " fill-opacity="1" fill-rule="nonzero"/><path fill="#002250" d="M 380.933594 662.472656 L 165.707031 662.472656 C 156.882812 662.472656 149.664062 655.253906 149.664062 646.433594 L 149.664062 639.214844 C 149.664062 630.390625 156.882812 623.171875 165.707031 623.171875 L 380.933594 623.171875 C 389.753906 623.171875 396.972656 630.390625 396.972656 639.214844 L 396.972656 646.433594 C 396.972656 655.253906 389.621094 662.472656 380.933594 662.472656 Z M 380.933594 662.472656 " fill-opacity="1" fill-rule="nonzero"/><path fill="#002250" d="M 380.933594 824.628906 L 165.707031 824.628906 C 156.882812 824.628906 149.664062 817.410156 149.664062 808.589844 L 149.664062 801.371094 C 149.664062 792.546875 156.882812 785.328125 165.707031 785.328125 L 380.933594 785.328125 C 389.753906 785.328125 396.972656 792.546875 396.972656 801.371094 L 396.972656 808.589844 C 396.972656 817.410156 389.621094 824.628906 380.933594 824.628906 Z M 380.933594 824.628906 " fill-opacity="1" fill-rule="nonzero"/></svg>