<svg xmlns="http://www.w3.org/2000/svg" xmlns:xlink="http://www.w3.org/1999/xlink" width="1080" zoomAndPan="magnify" viewBox="0 0 810 809.999993" height="1080" preserveAspectRatio="xMidYMid meet" version="1.0"><defs><clipPath id="ed624bdef0"><path d="M 81 521.386719 L 319.5 521.386719 L 319.5 729.136719 L 81 729.136719 Z M 81 521.386719 " clip-rule="nonzero"/></clipPath><clipPath id="c634ae4ec4"><path d="M 490.582031 490.582031 L 729.082031 490.582031 L 729.082031 729.082031 L 490.582031 729.082031 Z M 490.582031 490.582031 " clip-rule="nonzero"/></clipPath><clipPath id="2fa6ba6b10"><path d="M 281.210938 81 L 528.710938 81 L 528.710938 328.5 L 281.210938 328.5 Z M 281.210938 81 " clip-rule="nonzero"/></clipPath><clipPath id="e54f06baf3"><path d="M 195 323 L 256 323 L 256 503 L 195 503 Z M 195 323 " clip-rule="nonzero"/></clipPath><clipPath id="849d85cd14"><path d="M 200.53125 505.980469 L 165.253906 341.726562 L 256.179688 322.199219 L 291.460938 486.453125 Z M 200.53125 505.980469 " clip-rule="nonzero"/></clipPath><clipPath id="ffea97f46e"><path d="M 200.53125 505.980469 L 165.253906 341.726562 L 256.179688 322.199219 L 291.460938 486.453125 Z M 200.53125 505.980469 " clip-rule="nonzero"/></clipPath><clipPath id="63403ba9e0"><path d="M 200.53125 505.980469 L 165.253906 341.726562 L 256.179688 322.199219 L 291.460938 486.453125 Z M 200.53125 505.980469 " clip-rule="nonzero"/></clipPath><clipPath id="0539b27176"><path d="M 261 345 L 346 345 L 346 505.980469 L 261 505.980469 Z M 261 345 " clip-rule="nonzero"/></clipPath><clipPath id="409f382cd5"><path d="M 475 303 L 547 303 L 547 483 L 475 483 Z M 475 303 " clip-rule="nonzero"/></clipPath><clipPath id="80bb100f7f"><path d="M 536.984375 490.578125 L 431.867188 359.527344 L 504.414062 301.335938 L 609.53125 432.386719 Z M 536.984375 490.578125 " clip-rule="nonzero"/></clipPath><clipPath id="690b72bd12"><path d="M 536.984375 490.578125 L 431.867188 359.527344 L 504.414062 301.335938 L 609.53125 432.386719 Z M 536.984375 490.578125 " clip-rule="nonzero"/></clipPath><clipPath id="1894662f7a"><path d="M 536.984375 490.578125 L 431.867188 359.527344 L 504.414062 301.335938 L 609.53125 432.386719 Z M 536.984375 490.578125 " clip-rule="nonzero"/></clipPath><clipPath id="f0e1118008"><path d="M 551 293 L 622 293 L 622 466 L 551 466 Z M 551 293 " clip-rule="nonzero"/></clipPath><clipPath id="64fd32b50f"><path d="M 559.929688 285.960938 L 663.367188 410.640625 L 594.101562 468.105469 L 490.664062 343.425781 Z M 559.929688 285.960938 " clip-rule="nonzero"/></clipPath><clipPath id="a5d550e709"><path d="M 559.929688 285.960938 L 663.367188 410.640625 L 594.101562 468.105469 L 490.664062 343.425781 Z M 559.929688 285.960938 " clip-rule="nonzero"/></clipPath><clipPath id="01ebb93eee"><path d="M 559.929688 285.960938 L 663.367188 410.640625 L 594.101562 468.105469 L 490.664062 343.425781 Z M 559.929688 285.960938 " clip-rule="nonzero"/></clipPath></defs><g clip-path="url(#ed624bdef0)"><path fill="#000000" d="M 306.035156 521.417969 L 94.464844 521.417969 C 93.578125 521.421875 92.703125 521.507812 91.839844 521.679688 C 90.972656 521.855469 90.128906 522.109375 89.3125 522.449219 C 88.496094 522.785156 87.722656 523.203125 86.988281 523.691406 C 86.253906 524.183594 85.574219 524.742188 84.949219 525.367188 C 84.324219 525.992188 83.765625 526.671875 83.273438 527.40625 C 82.78125 528.140625 82.367188 528.914062 82.027344 529.730469 C 81.691406 530.546875 81.433594 531.390625 81.261719 532.253906 C 81.089844 533.121094 81 533.996094 81 534.878906 L 81 677.183594 C 81 678.066406 81.089844 678.941406 81.261719 679.808594 C 81.433594 680.671875 81.691406 681.515625 82.027344 682.332031 C 82.367188 683.148438 82.78125 683.921875 83.273438 684.65625 C 83.765625 685.390625 84.324219 686.070312 84.949219 686.695312 C 85.574219 687.320312 86.253906 687.878906 86.988281 688.371094 C 87.722656 688.859375 88.496094 689.277344 89.3125 689.613281 C 90.128906 689.953125 90.972656 690.207031 91.839844 690.382812 C 92.703125 690.554688 93.578125 690.640625 94.464844 690.644531 L 165.042969 690.644531 L 162.292969 709.871094 L 138.703125 709.871094 C 138.191406 709.871094 137.699219 709.96875 137.230469 710.164062 C 136.757812 710.359375 136.34375 710.636719 135.980469 711 C 135.621094 711.359375 135.34375 711.777344 135.148438 712.246094 C 134.953125 712.71875 134.855469 713.207031 134.855469 713.71875 L 134.855469 725.257812 C 134.855469 725.765625 134.953125 726.257812 135.148438 726.726562 C 135.34375 727.199219 135.621094 727.617188 135.980469 727.976562 C 136.34375 728.335938 136.757812 728.613281 137.230469 728.808594 C 137.699219 729.003906 138.191406 729.101562 138.703125 729.101562 L 261.796875 729.101562 C 262.308594 729.101562 262.800781 729.003906 263.269531 728.808594 C 263.742188 728.613281 264.15625 728.335938 264.519531 727.976562 C 264.878906 727.617188 265.15625 727.199219 265.351562 726.726562 C 265.546875 726.257812 265.644531 725.765625 265.644531 725.257812 L 265.644531 713.71875 C 265.644531 713.207031 265.546875 712.71875 265.351562 712.246094 C 265.15625 711.777344 264.878906 711.359375 264.519531 711 C 264.15625 710.636719 263.742188 710.359375 263.269531 710.164062 C 262.800781 709.96875 262.308594 709.871094 261.796875 709.871094 L 238.207031 709.871094 L 235.457031 690.644531 L 306.035156 690.644531 C 306.921875 690.640625 307.796875 690.554688 308.660156 690.382812 C 309.527344 690.207031 310.371094 689.953125 311.1875 689.613281 C 312.003906 689.277344 312.777344 688.859375 313.511719 688.371094 C 314.246094 687.878906 314.925781 687.320312 315.550781 686.695312 C 316.175781 686.070312 316.734375 685.390625 317.226562 684.65625 C 317.71875 683.921875 318.132812 683.148438 318.472656 682.332031 C 318.808594 681.515625 319.066406 680.671875 319.238281 679.808594 C 319.410156 678.941406 319.5 678.066406 319.5 677.183594 L 319.5 534.878906 C 319.5 533.996094 319.410156 533.121094 319.238281 532.253906 C 319.066406 531.390625 318.808594 530.546875 318.472656 529.730469 C 318.132812 528.914062 317.71875 528.140625 317.226562 527.40625 C 316.734375 526.671875 316.175781 525.992188 315.550781 525.367188 C 314.925781 524.742188 314.246094 524.183594 313.511719 523.691406 C 312.777344 523.203125 312.003906 522.785156 311.1875 522.449219 C 310.371094 522.109375 309.527344 521.855469 308.660156 521.679688 C 307.796875 521.507812 306.921875 521.421875 306.035156 521.417969 Z M 257.953125 717.566406 L 257.953125 721.410156 L 142.546875 721.410156 L 142.546875 717.566406 Z M 170.0625 709.871094 L 172.8125 690.644531 L 227.6875 690.644531 L 230.4375 709.871094 Z M 311.804688 677.183594 C 311.804688 677.5625 311.769531 677.9375 311.695312 678.308594 C 311.621094 678.679688 311.511719 679.039062 311.367188 679.390625 C 311.222656 679.738281 311.042969 680.070312 310.832031 680.386719 C 310.621094 680.699219 310.382812 680.992188 310.113281 681.257812 C 309.847656 681.527344 309.554688 681.765625 309.242188 681.976562 C 308.925781 682.1875 308.59375 682.367188 308.242188 682.511719 C 307.894531 682.65625 307.53125 682.765625 307.160156 682.839844 C 306.789062 682.914062 306.414062 682.949219 306.035156 682.949219 L 94.464844 682.949219 C 94.085938 682.949219 93.710938 682.914062 93.339844 682.839844 C 92.96875 682.765625 92.605469 682.65625 92.257812 682.511719 C 91.90625 682.367188 91.574219 682.1875 91.257812 681.976562 C 90.945312 681.765625 90.652344 681.527344 90.386719 681.257812 C 90.117188 680.992188 89.878906 680.699219 89.667969 680.386719 C 89.457031 680.070312 89.277344 679.738281 89.132812 679.390625 C 88.988281 679.039062 88.878906 678.679688 88.804688 678.308594 C 88.730469 677.9375 88.695312 677.5625 88.695312 677.183594 L 88.695312 667.566406 L 311.804688 667.566406 Z M 311.804688 659.875 L 88.695312 659.875 L 88.695312 534.878906 C 88.695312 534.503906 88.730469 534.128906 88.804688 533.753906 C 88.878906 533.382812 88.988281 533.023438 89.132812 532.675781 C 89.277344 532.324219 89.457031 531.992188 89.667969 531.675781 C 89.878906 531.363281 90.117188 531.070312 90.386719 530.804688 C 90.652344 530.535156 90.945312 530.296875 91.257812 530.085938 C 91.574219 529.875 91.90625 529.699219 92.257812 529.550781 C 92.605469 529.40625 92.96875 529.296875 93.339844 529.222656 C 93.710938 529.148438 94.085938 529.113281 94.464844 529.113281 L 306.035156 529.113281 C 306.414062 529.113281 306.789062 529.148438 307.160156 529.222656 C 307.53125 529.296875 307.894531 529.40625 308.242188 529.550781 C 308.59375 529.699219 308.925781 529.875 309.242188 530.085938 C 309.554688 530.296875 309.847656 530.535156 310.113281 530.804688 C 310.382812 531.070312 310.621094 531.363281 310.832031 531.675781 C 311.042969 531.992188 311.222656 532.324219 311.367188 532.675781 C 311.511719 533.023438 311.621094 533.382812 311.695312 533.753906 C 311.769531 534.128906 311.804688 534.503906 311.804688 534.878906 Z M 311.804688 659.875 " fill-opacity="1" fill-rule="nonzero"/></g><path fill="#000000" d="M 211.789062 671.414062 L 188.710938 671.414062 C 188.199219 671.414062 187.707031 671.511719 187.238281 671.707031 C 186.765625 671.902344 186.351562 672.179688 185.988281 672.539062 C 185.628906 672.898438 185.351562 673.316406 185.15625 673.785156 C 184.960938 674.257812 184.863281 674.75 184.863281 675.257812 C 184.863281 675.769531 184.960938 676.257812 185.15625 676.730469 C 185.351562 677.203125 185.628906 677.617188 185.988281 677.976562 C 186.351562 678.339844 186.765625 678.617188 187.238281 678.8125 C 187.707031 679.007812 188.199219 679.105469 188.710938 679.105469 L 211.789062 679.105469 C 212.300781 679.105469 212.792969 679.007812 213.261719 678.8125 C 213.734375 678.617188 214.148438 678.339844 214.511719 677.976562 C 214.871094 677.617188 215.148438 677.203125 215.34375 676.730469 C 215.539062 676.257812 215.636719 675.769531 215.636719 675.257812 C 215.636719 674.75 215.539062 674.257812 215.34375 673.785156 C 215.148438 673.316406 214.871094 672.898438 214.511719 672.539062 C 214.148438 672.179688 213.734375 671.902344 213.261719 671.707031 C 212.792969 671.511719 212.300781 671.414062 211.789062 671.414062 Z M 211.789062 671.414062 " fill-opacity="1" fill-rule="nonzero"/><g clip-path="url(#c634ae4ec4)"><path fill="#000000" d="M 531.195312 490.582031 C 524.191406 490.582031 517.902344 494.46875 514.785156 500.722656 L 493 544.273438 C 491.421875 547.445312 490.582031 550.992188 490.582031 554.523438 L 490.582031 600.65625 C 490.582031 606.15625 493.070312 611.046875 496.921875 614.417969 C 493.070312 617.785156 490.582031 622.675781 490.582031 628.175781 L 490.582031 655.695312 C 490.582031 661.195312 493.070312 666.085938 496.921875 669.457031 C 493.070312 672.824219 490.582031 677.714844 490.582031 683.214844 L 490.582031 710.734375 C 490.582031 720.855469 498.804688 729.082031 508.925781 729.082031 L 710.734375 729.082031 C 720.855469 729.082031 729.082031 720.855469 729.082031 710.734375 L 729.082031 683.214844 C 729.082031 677.714844 726.589844 672.824219 722.738281 669.457031 C 726.589844 666.085938 729.082031 661.195312 729.082031 655.695312 L 729.082031 628.175781 C 729.082031 622.675781 726.589844 617.785156 722.738281 614.417969 C 726.589844 611.046875 729.082031 606.15625 729.082031 600.65625 L 729.082031 554.523438 C 729.082031 550.992188 728.238281 547.445312 726.660156 544.273438 L 704.875 500.722656 C 701.757812 494.46875 695.46875 490.582031 688.464844 490.582031 Z M 531.195312 499.753906 L 688.464844 499.753906 C 691.957031 499.753906 695.109375 501.707031 696.671875 504.824219 L 718.457031 548.378906 C 719.40625 550.277344 719.90625 552.410156 719.90625 554.523438 L 719.90625 554.792969 L 499.753906 554.792969 L 499.753906 554.523438 C 499.753906 552.410156 500.253906 550.277344 501.203125 548.378906 L 522.972656 504.824219 C 524.550781 501.707031 527.683594 499.753906 531.195312 499.753906 Z M 531.859375 508.925781 C 529.316406 508.925781 527.273438 510.96875 527.273438 513.511719 C 527.273438 516.058594 529.316406 518.097656 531.859375 518.097656 L 651.109375 518.097656 C 653.652344 518.097656 655.695312 516.058594 655.695312 513.511719 C 655.695312 510.96875 653.652344 508.925781 651.109375 508.925781 Z M 669.457031 508.925781 C 666.910156 508.925781 664.867188 510.96875 664.867188 513.511719 C 664.867188 516.058594 666.910156 518.097656 669.457031 518.097656 L 687.800781 518.097656 C 690.34375 518.097656 692.386719 516.058594 692.386719 513.511719 C 692.386719 510.96875 690.34375 508.925781 687.800781 508.925781 Z M 499.753906 563.964844 L 719.90625 563.964844 L 719.90625 600.65625 C 719.90625 605.710938 715.785156 609.832031 710.734375 609.832031 L 508.925781 609.832031 C 503.875 609.832031 499.753906 605.710938 499.753906 600.65625 Z M 687.800781 573.136719 C 680.222656 573.136719 674.042969 579.320312 674.042969 586.898438 C 674.042969 594.476562 680.222656 600.65625 687.800781 600.65625 C 695.378906 600.65625 701.5625 594.476562 701.5625 586.898438 C 701.5625 579.320312 695.378906 573.136719 687.800781 573.136719 Z M 522.6875 577.722656 C 520.140625 577.722656 518.097656 579.765625 518.097656 582.3125 L 518.097656 591.484375 C 518.097656 594.027344 520.140625 596.070312 522.6875 596.070312 C 525.230469 596.070312 527.273438 594.027344 527.273438 591.484375 L 527.273438 582.3125 C 527.273438 579.765625 525.230469 577.722656 522.6875 577.722656 Z M 545.617188 577.722656 C 543.074219 577.722656 541.03125 579.765625 541.03125 582.3125 L 541.03125 591.484375 C 541.03125 594.027344 543.074219 596.070312 545.617188 596.070312 C 548.164062 596.070312 550.207031 594.027344 550.207031 591.484375 L 550.207031 582.3125 C 550.207031 579.765625 548.164062 577.722656 545.617188 577.722656 Z M 568.550781 577.722656 C 566.007812 577.722656 563.964844 579.765625 563.964844 582.3125 L 563.964844 591.484375 C 563.964844 594.027344 566.007812 596.070312 568.550781 596.070312 C 571.09375 596.070312 573.136719 594.027344 573.136719 591.484375 L 573.136719 582.3125 C 573.136719 579.765625 571.09375 577.722656 568.550781 577.722656 Z M 591.484375 577.722656 C 588.941406 577.722656 586.898438 579.765625 586.898438 582.3125 L 586.898438 591.484375 C 586.898438 594.027344 588.941406 596.070312 591.484375 596.070312 C 594.027344 596.070312 596.070312 594.027344 596.070312 591.484375 L 596.070312 582.3125 C 596.070312 579.765625 594.027344 577.722656 591.484375 577.722656 Z M 614.417969 577.722656 C 611.871094 577.722656 609.832031 579.765625 609.832031 582.3125 L 609.832031 591.484375 C 609.832031 594.027344 611.871094 596.070312 614.417969 596.070312 C 616.960938 596.070312 619.003906 594.027344 619.003906 591.484375 L 619.003906 582.3125 C 619.003906 579.765625 616.960938 577.722656 614.417969 577.722656 Z M 687.800781 581.363281 C 690.863281 581.363281 693.335938 583.851562 693.335938 586.898438 C 693.335938 589.960938 690.847656 592.433594 687.800781 592.433594 C 684.753906 592.433594 682.265625 589.960938 682.265625 586.898438 C 682.265625 583.832031 684.738281 581.363281 687.800781 581.363281 Z M 632.761719 582.3125 C 630.21875 582.3125 628.175781 584.355469 628.175781 586.898438 C 628.175781 589.441406 630.21875 591.484375 632.761719 591.484375 L 660.28125 591.484375 C 662.828125 591.484375 664.867188 589.441406 664.867188 586.898438 C 664.867188 584.355469 662.828125 582.3125 660.28125 582.3125 Z M 508.925781 619.003906 L 710.734375 619.003906 C 715.785156 619.003906 719.90625 623.125 719.90625 628.175781 L 719.90625 655.695312 C 719.90625 660.75 715.785156 664.867188 710.734375 664.867188 L 508.925781 664.867188 C 503.875 664.867188 499.753906 660.75 499.753906 655.695312 L 499.753906 628.175781 C 499.753906 623.125 503.875 619.003906 508.925781 619.003906 Z M 687.800781 628.175781 C 680.222656 628.175781 674.042969 634.359375 674.042969 641.9375 C 674.042969 649.515625 680.222656 655.695312 687.800781 655.695312 C 695.378906 655.695312 701.5625 649.515625 701.5625 641.9375 C 701.5625 634.359375 695.378906 628.175781 687.800781 628.175781 Z M 522.6875 632.761719 C 520.140625 632.761719 518.097656 634.804688 518.097656 637.347656 L 518.097656 646.523438 C 518.097656 649.066406 520.140625 651.109375 522.6875 651.109375 C 525.230469 651.109375 527.273438 649.066406 527.273438 646.523438 L 527.273438 637.347656 C 527.273438 634.804688 525.230469 632.761719 522.6875 632.761719 Z M 545.617188 632.761719 C 543.074219 632.761719 541.03125 634.804688 541.03125 637.347656 L 541.03125 646.523438 C 541.03125 649.066406 543.074219 651.109375 545.617188 651.109375 C 548.164062 651.109375 550.207031 649.066406 550.207031 646.523438 L 550.207031 637.347656 C 550.207031 634.804688 548.164062 632.761719 545.617188 632.761719 Z M 568.550781 632.761719 C 566.007812 632.761719 563.964844 634.804688 563.964844 637.347656 L 563.964844 646.523438 C 563.964844 649.066406 566.007812 651.109375 568.550781 651.109375 C 571.09375 651.109375 573.136719 649.066406 573.136719 646.523438 L 573.136719 637.347656 C 573.136719 634.804688 571.09375 632.761719 568.550781 632.761719 Z M 591.484375 632.761719 C 588.941406 632.761719 586.898438 634.804688 586.898438 637.347656 L 586.898438 646.523438 C 586.898438 649.066406 588.941406 651.109375 591.484375 651.109375 C 594.027344 651.109375 596.070312 649.066406 596.070312 646.523438 L 596.070312 637.347656 C 596.070312 634.804688 594.027344 632.761719 591.484375 632.761719 Z M 614.417969 632.761719 C 611.871094 632.761719 609.832031 634.804688 609.832031 637.347656 L 609.832031 646.523438 C 609.832031 649.066406 611.871094 651.109375 614.417969 651.109375 C 616.960938 651.109375 619.003906 649.066406 619.003906 646.523438 L 619.003906 637.347656 C 619.003906 634.804688 616.960938 632.761719 614.417969 632.761719 Z M 687.800781 636.398438 C 690.847656 636.398438 693.335938 638.890625 693.335938 641.9375 C 693.335938 645 690.863281 647.472656 687.800781 647.472656 C 684.738281 647.472656 682.265625 644.980469 682.265625 641.9375 C 682.265625 638.871094 684.753906 636.398438 687.800781 636.398438 Z M 632.761719 637.347656 C 630.21875 637.347656 628.175781 639.390625 628.175781 641.9375 C 628.175781 644.480469 630.21875 646.523438 632.761719 646.523438 L 660.28125 646.523438 C 662.828125 646.523438 664.867188 644.480469 664.867188 641.9375 C 664.867188 639.390625 662.828125 637.347656 660.28125 637.347656 Z M 508.925781 674.042969 L 710.734375 674.042969 C 715.785156 674.042969 719.90625 678.164062 719.90625 683.214844 L 719.90625 710.734375 C 719.90625 715.785156 715.785156 719.90625 710.734375 719.90625 L 508.925781 719.90625 C 503.875 719.90625 499.753906 715.785156 499.753906 710.734375 L 499.753906 683.214844 C 499.753906 678.164062 503.875 674.042969 508.925781 674.042969 Z M 687.800781 683.214844 C 680.222656 683.214844 674.042969 689.394531 674.042969 696.972656 C 674.042969 704.554688 680.222656 710.734375 687.800781 710.734375 C 695.378906 710.734375 701.5625 704.554688 701.5625 696.972656 C 701.5625 689.394531 695.378906 683.214844 687.800781 683.214844 Z M 522.6875 687.800781 C 520.140625 687.800781 518.097656 689.84375 518.097656 692.386719 L 518.097656 701.5625 C 518.097656 704.105469 520.140625 706.148438 522.6875 706.148438 C 525.230469 706.148438 527.273438 704.105469 527.273438 701.5625 L 527.273438 692.386719 C 527.273438 689.84375 525.230469 687.800781 522.6875 687.800781 Z M 545.617188 687.800781 C 543.074219 687.800781 541.03125 689.84375 541.03125 692.386719 L 541.03125 701.5625 C 541.03125 704.105469 543.074219 706.148438 545.617188 706.148438 C 548.164062 706.148438 550.207031 704.105469 550.207031 701.5625 L 550.207031 692.386719 C 550.207031 689.84375 548.164062 687.800781 545.617188 687.800781 Z M 568.550781 687.800781 C 566.007812 687.800781 563.964844 689.84375 563.964844 692.386719 L 563.964844 701.5625 C 563.964844 704.105469 566.007812 706.148438 568.550781 706.148438 C 571.09375 706.148438 573.136719 704.105469 573.136719 701.5625 L 573.136719 692.386719 C 573.136719 689.84375 571.09375 687.800781 568.550781 687.800781 Z M 591.484375 687.800781 C 588.941406 687.800781 586.898438 689.84375 586.898438 692.386719 L 586.898438 701.5625 C 586.898438 704.105469 588.941406 706.148438 591.484375 706.148438 C 594.027344 706.148438 596.070312 704.105469 596.070312 701.5625 L 596.070312 692.386719 C 596.070312 689.84375 594.027344 687.800781 591.484375 687.800781 Z M 614.417969 687.800781 C 611.871094 687.800781 609.832031 689.84375 609.832031 692.386719 L 609.832031 701.5625 C 609.832031 704.105469 611.871094 706.148438 614.417969 706.148438 C 616.960938 706.148438 619.003906 704.105469 619.003906 701.5625 L 619.003906 692.386719 C 619.003906 689.84375 616.960938 687.800781 614.417969 687.800781 Z M 687.800781 691.242188 C 690.972656 691.242188 693.535156 693.804688 693.535156 696.972656 C 693.535156 700.144531 690.972656 702.707031 687.800781 702.707031 C 684.628906 702.707031 682.066406 700.144531 682.066406 696.972656 C 682.066406 693.804688 684.628906 691.242188 687.800781 691.242188 Z M 632.761719 692.386719 C 630.21875 692.386719 628.175781 694.429688 628.175781 696.972656 C 628.175781 699.519531 630.21875 701.5625 632.761719 701.5625 L 660.28125 701.5625 C 662.828125 701.5625 664.867188 699.519531 664.867188 696.972656 C 664.867188 694.429688 662.828125 692.386719 660.28125 692.386719 Z M 632.761719 692.386719 " fill-opacity="1" fill-rule="nonzero"/></g><path fill="#000000" d="M 404.960938 128.210938 C 394.320312 128.210938 384 130.371094 374.332031 134.582031 C 371.363281 135.878906 370.011719 139.335938 371.308594 142.363281 C 372.605469 145.332031 376.0625 146.738281 379.085938 145.386719 C 387.296875 141.820312 395.992188 139.984375 405.015625 139.984375 C 440.773438 139.984375 469.832031 169.046875 469.832031 204.804688 C 469.832031 213.824219 467.996094 222.519531 464.429688 230.730469 C 463.132812 233.703125 464.484375 237.214844 467.457031 238.511719 C 468.210938 238.832031 469.023438 238.996094 469.832031 238.996094 C 472.101562 238.996094 474.261719 237.699219 475.234375 235.484375 C 479.449219 225.816406 481.609375 215.5 481.609375 204.859375 C 481.554688 162.5625 447.199219 128.210938 404.960938 128.210938 Z M 404.960938 128.210938 " fill-opacity="1" fill-rule="nonzero"/><path fill="#000000" d="M 430.886719 264.222656 C 422.675781 267.785156 413.980469 269.621094 404.960938 269.621094 C 369.203125 269.621094 340.140625 240.5625 340.140625 204.804688 C 340.140625 195.785156 341.976562 187.085938 345.542969 178.875 C 346.839844 175.90625 345.488281 172.449219 342.519531 171.097656 C 339.492188 169.800781 336.089844 171.152344 334.738281 174.125 C 330.527344 183.792969 328.367188 194.109375 328.367188 204.75 C 328.367188 246.992188 362.71875 281.34375 404.960938 281.34375 C 415.601562 281.34375 425.917969 279.183594 435.585938 274.96875 C 438.558594 273.675781 439.90625 270.21875 438.613281 267.191406 C 437.316406 264.328125 433.914062 262.925781 430.886719 264.222656 Z M 430.886719 264.222656 " fill-opacity="1" fill-rule="nonzero"/><g clip-path="url(#2fa6ba6b10)"><path fill="#000000" d="M 511.046875 175.3125 L 500.621094 175.3125 C 498.785156 169.316406 496.355469 163.480469 493.4375 157.972656 L 500.785156 150.625 C 504.132812 147.277344 505.96875 142.847656 505.96875 138.148438 C 505.96875 133.449219 504.132812 128.964844 500.785156 125.671875 L 484.09375 108.980469 C 477.394531 102.335938 465.78125 102.28125 459.082031 108.980469 L 451.738281 116.328125 C 446.226562 113.410156 440.394531 111.03125 434.398438 109.140625 L 434.398438 98.71875 C 434.398438 88.996094 426.457031 81.054688 416.734375 81.054688 L 393.183594 81.054688 C 383.40625 81.054688 375.519531 88.996094 375.519531 98.71875 L 375.519531 109.140625 C 369.527344 110.980469 363.691406 113.410156 358.183594 116.328125 L 350.835938 108.980469 C 344.136719 102.28125 332.523438 102.335938 325.828125 108.980469 L 309.136719 125.617188 C 305.785156 128.964844 303.949219 133.394531 303.949219 138.148438 C 303.949219 142.902344 305.785156 147.332031 309.136719 150.625 L 316.480469 157.972656 C 313.566406 163.480469 311.132812 169.316406 309.296875 175.3125 L 298.871094 175.3125 C 289.148438 175.3125 281.210938 183.25 281.210938 192.972656 L 281.210938 216.527344 C 281.210938 226.25 289.148438 234.1875 298.871094 234.1875 L 309.296875 234.1875 C 311.132812 240.183594 313.566406 246.019531 316.480469 251.527344 L 309.136719 258.875 C 305.785156 262.222656 303.949219 266.652344 303.949219 271.351562 C 303.949219 276.050781 305.785156 280.535156 309.136719 283.828125 L 325.773438 300.519531 C 332.472656 307.21875 344.085938 307.21875 350.78125 300.519531 L 358.128906 293.171875 C 363.636719 296.089844 369.472656 298.519531 375.46875 300.359375 L 375.46875 310.78125 C 375.46875 320.503906 383.40625 328.445312 393.128906 328.445312 L 416.679688 328.445312 C 426.402344 328.445312 434.34375 320.503906 434.34375 310.78125 L 434.34375 300.359375 C 440.339844 298.519531 446.171875 296.089844 451.683594 293.171875 L 459.03125 300.519531 C 465.726562 307.21875 477.339844 307.21875 484.039062 300.519531 L 500.730469 283.828125 C 504.078125 280.480469 505.914062 276.050781 505.914062 271.351562 C 505.914062 266.652344 504.078125 262.167969 500.730469 258.875 L 493.382812 251.527344 C 496.300781 246.019531 498.730469 240.183594 500.566406 234.1875 L 510.992188 234.1875 C 520.714844 234.1875 528.65625 226.25 528.65625 216.527344 L 528.65625 192.972656 C 528.710938 183.25 520.769531 175.367188 511.046875 175.3125 Z M 516.933594 216.578125 C 516.933594 219.820312 514.289062 222.46875 511.046875 222.46875 L 496.191406 222.46875 C 493.492188 222.46875 491.167969 224.304688 490.464844 226.894531 C 488.414062 234.890625 485.226562 242.5625 481.066406 249.636719 C 479.71875 251.960938 480.09375 254.929688 481.984375 256.820312 L 492.519531 267.355469 C 493.652344 268.488281 494.246094 269.945312 494.246094 271.511719 C 494.246094 273.078125 493.652344 274.539062 492.519531 275.671875 L 475.773438 292.308594 C 473.558594 294.523438 469.671875 294.523438 467.457031 292.308594 L 456.921875 281.777344 C 455.03125 279.886719 452.0625 279.507812 449.738281 280.859375 C 442.664062 285.015625 435.046875 288.203125 427 290.257812 C 424.40625 290.90625 422.570312 293.28125 422.570312 295.984375 L 422.570312 310.835938 C 422.570312 314.078125 419.921875 316.722656 416.679688 316.722656 L 393.128906 316.722656 C 389.890625 316.722656 387.242188 314.078125 387.242188 310.835938 L 387.242188 295.984375 C 387.242188 293.28125 385.40625 290.960938 382.8125 290.257812 C 374.820312 288.203125 367.148438 285.015625 360.074219 280.859375 C 359.15625 280.316406 358.128906 280.046875 357.046875 280.046875 C 355.535156 280.046875 354.023438 280.640625 352.890625 281.777344 L 342.464844 292.308594 C 340.25 294.523438 336.359375 294.523438 334.144531 292.308594 L 317.453125 275.617188 C 316.320312 274.484375 315.726562 273.027344 315.726562 271.460938 C 315.726562 269.894531 316.320312 268.433594 317.453125 267.300781 L 327.988281 256.765625 C 329.878906 254.875 330.257812 251.90625 328.90625 249.582031 C 324.746094 242.507812 321.558594 234.890625 319.507812 226.84375 C 318.859375 224.25 316.480469 222.414062 313.78125 222.414062 L 298.871094 222.414062 C 295.632812 222.414062 292.984375 219.765625 292.984375 216.527344 L 292.984375 192.972656 C 292.984375 189.734375 295.632812 187.085938 298.871094 187.085938 L 313.726562 187.085938 C 316.429688 187.085938 318.75 185.25 319.453125 182.65625 C 321.503906 174.664062 324.691406 166.992188 328.851562 159.917969 C 330.203125 157.59375 329.824219 154.625 327.933594 152.734375 L 317.398438 142.199219 C 316.265625 141.066406 315.671875 139.605469 315.671875 138.039062 C 315.671875 136.472656 316.265625 134.960938 317.398438 133.882812 L 334.144531 117.296875 C 336.359375 115.082031 340.25 115.082031 342.464844 117.296875 L 352.996094 127.832031 C 354.886719 129.722656 357.859375 130.101562 360.179688 128.75 C 367.257812 124.589844 374.875 121.402344 382.921875 119.351562 C 385.515625 118.703125 387.351562 116.328125 387.351562 113.625 L 387.351562 98.71875 C 387.351562 95.476562 389.996094 92.828125 393.238281 92.828125 L 416.789062 92.828125 C 420.03125 92.828125 422.675781 95.476562 422.675781 98.71875 L 422.675781 113.570312 C 422.675781 116.273438 424.511719 118.59375 427.105469 119.296875 C 435.101562 121.351562 442.769531 124.535156 449.847656 128.695312 C 452.167969 130.046875 455.140625 129.667969 457.03125 127.777344 L 467.457031 117.296875 C 469.671875 115.082031 473.558594 115.082031 475.773438 117.296875 L 492.464844 133.988281 C 493.597656 135.125 494.195312 136.582031 494.195312 138.148438 C 494.195312 139.714844 493.597656 141.226562 492.464844 142.308594 L 481.933594 152.839844 C 480.042969 154.730469 479.664062 157.703125 481.015625 160.023438 C 485.171875 167.101562 488.359375 174.71875 490.414062 182.765625 C 491.0625 185.359375 493.4375 187.195312 496.136719 187.195312 L 510.992188 187.195312 C 514.234375 187.195312 516.878906 189.839844 516.878906 193.082031 Z M 516.933594 216.578125 " fill-opacity="1" fill-rule="nonzero"/></g><path fill="#000000" d="M 368.390625 218.09375 L 382.003906 218.09375 L 383.949219 225.382812 L 396.535156 225.382812 L 381.949219 181.253906 L 368.878906 181.253906 L 354.238281 225.382812 L 366.5 225.382812 Z M 375.25 192.703125 L 379.519531 208.585938 L 370.984375 208.585938 Z M 375.25 192.703125 " fill-opacity="1" fill-rule="nonzero"/><path fill="#000000" d="M 412.359375 209.015625 L 418.949219 209.015625 C 423.8125 209.015625 427.375 207.773438 429.753906 205.234375 C 432.128906 202.75 433.316406 199.242188 433.316406 194.757812 C 433.316406 190.273438 432.238281 187.085938 430.078125 184.710938 C 427.917969 182.332031 424.675781 181.199219 420.300781 181.199219 L 400.316406 181.199219 L 400.316406 225.328125 L 412.359375 225.328125 Z M 412.359375 190.21875 L 415.761719 190.21875 C 418.03125 190.21875 419.542969 190.707031 420.355469 191.679688 C 421.164062 192.652344 421.597656 193.839844 421.597656 195.1875 C 421.597656 196.539062 421.109375 197.78125 420.191406 198.699219 C 419.273438 199.617188 417.597656 200.050781 415.332031 200.050781 L 412.414062 200.050781 Z M 412.359375 190.21875 " fill-opacity="1" fill-rule="nonzero"/><path fill="#000000" d="M 440.070312 181.253906 L 452.117188 181.253906 L 452.117188 225.382812 L 440.070312 225.382812 Z M 440.070312 181.253906 " fill-opacity="1" fill-rule="nonzero"/><g clip-path="url(#e54f06baf3)"><g clip-path="url(#849d85cd14)"><g clip-path="url(#ffea97f46e)"><g clip-path="url(#63403ba9e0)"><path fill="#000000" d="M 254.925781 328.722656 C 254.125 329.632812 253.382812 330.589844 252.699219 331.59375 C 252.019531 332.597656 251.402344 333.640625 250.851562 334.722656 C 250.296875 335.804688 249.8125 336.917969 249.398438 338.058594 C 248.984375 339.203125 248.640625 340.363281 248.371094 341.550781 C 248.101562 342.734375 247.90625 343.933594 247.785156 345.144531 C 247.660156 346.355469 247.613281 347.566406 247.644531 348.785156 C 247.671875 350 247.773438 351.210938 247.953125 352.414062 C 248.132812 353.617188 248.382812 354.804688 248.710938 355.976562 C 249.707031 359.617188 244.019531 360.8125 243.027344 357.199219 C 242.234375 354.273438 241.835938 351.292969 241.828125 348.265625 C 241.820312 345.234375 242.207031 342.257812 242.988281 339.332031 C 237.152344 345.027344 231.859375 351.191406 227.109375 357.824219 C 223.703125 362.585938 220.609375 367.542969 217.820312 372.695312 C 215.035156 377.847656 212.578125 383.15625 210.457031 388.621094 C 208.332031 394.085938 206.558594 399.660156 205.132812 405.347656 C 203.707031 411.039062 202.640625 416.792969 201.933594 422.617188 C 201.183594 429 200.867188 435.40625 200.980469 441.832031 C 201.09375 448.261719 201.640625 454.652344 202.617188 461.007812 C 203.59375 467.359375 204.996094 473.621094 206.816406 479.785156 C 208.640625 485.953125 210.867188 491.96875 213.5 497.832031 C 215.042969 501.226562 209.890625 503.945312 208.339844 500.519531 C 206.238281 495.882812 204.382812 491.144531 202.769531 486.3125 C 201.15625 481.480469 199.796875 476.578125 198.695312 471.605469 C 197.589844 466.632812 196.742188 461.617188 196.15625 456.554688 C 195.570312 451.496094 195.246094 446.417969 195.1875 441.324219 C 195.125 436.234375 195.328125 431.152344 195.792969 426.078125 C 196.257812 421.007812 196.984375 415.976562 197.96875 410.980469 C 198.957031 405.988281 200.199219 401.058594 201.695312 396.195312 C 203.191406 391.332031 204.933594 386.558594 206.925781 381.878906 C 210.636719 373.308594 215.109375 365.164062 220.347656 357.441406 C 225.585938 349.722656 231.496094 342.5625 238.078125 335.960938 C 231.984375 338.105469 225.78125 339.84375 219.464844 341.175781 C 215.804688 341.960938 214.574219 336.226562 218.238281 335.464844 C 229.847656 333.050781 240.976562 329.222656 251.617188 323.976562 C 254.726562 322.445312 257.058594 326.363281 254.925781 328.722656 Z M 254.925781 328.722656 " fill-opacity="1" fill-rule="nonzero"/></g></g></g></g><g clip-path="url(#0539b27176)"><path fill="#000000" d="M 263.0625 500.082031 C 264.957031 498.683594 266.648438 497.074219 268.136719 495.25 C 269.628906 493.425781 270.875 491.449219 271.871094 489.316406 C 272.867188 487.179688 273.585938 484.957031 274.03125 482.644531 C 274.472656 480.328125 274.625 477.996094 274.484375 475.644531 C 274.277344 472.011719 279.902344 472.035156 280.109375 475.644531 C 280.265625 478.5625 280.039062 481.453125 279.425781 484.308594 C 278.816406 487.167969 277.847656 489.898438 276.511719 492.496094 C 283.191406 488.308594 289.453125 483.570312 295.296875 478.277344 C 299.488281 474.476562 303.425781 470.429688 307.109375 466.136719 C 310.792969 461.84375 314.195312 457.335938 317.316406 452.613281 C 320.433594 447.894531 323.246094 442.996094 325.753906 437.921875 C 328.257812 432.847656 330.4375 427.636719 332.289062 422.289062 C 334.296875 416.421875 335.898438 410.449219 337.097656 404.367188 C 338.292969 398.285156 339.074219 392.148438 339.441406 385.957031 C 339.808594 379.769531 339.757812 373.585938 339.285156 367.402344 C 338.816406 361.21875 337.929688 355.097656 336.628906 349.035156 C 335.859375 345.523438 341.289062 344.003906 342.058594 347.546875 C 343.105469 352.34375 343.898438 357.1875 344.441406 362.066406 C 344.988281 366.949219 345.277344 371.847656 345.3125 376.761719 C 345.347656 381.671875 345.125 386.574219 344.652344 391.464844 C 344.179688 396.351562 343.453125 401.203125 342.476562 406.019531 C 341.5 410.832031 340.273438 415.582031 338.804688 420.269531 C 337.332031 424.957031 335.621094 429.554688 333.675781 434.0625 C 331.726562 438.570312 329.550781 442.964844 327.144531 447.25 C 324.738281 451.53125 322.121094 455.675781 319.285156 459.683594 C 314.03125 467.015625 308.144531 473.789062 301.617188 480.007812 C 295.09375 486.226562 288.046875 491.78125 280.476562 496.671875 C 286.675781 495.878906 292.898438 495.496094 299.148438 495.523438 C 302.769531 495.523438 302.769531 501.179688 299.148438 501.152344 C 287.671875 501.078125 276.363281 502.4375 265.226562 505.226562 C 261.976562 506.039062 260.5625 501.875 263.0625 500.082031 Z M 263.0625 500.082031 " fill-opacity="1" fill-rule="nonzero"/></g><g clip-path="url(#409f382cd5)"><g clip-path="url(#80bb100f7f)"><g clip-path="url(#690b72bd12)"><g clip-path="url(#1894662f7a)"><path fill="#000000" d="M 506.214844 307.734375 C 505.90625 308.90625 505.671875 310.09375 505.511719 311.296875 C 505.351562 312.5 505.269531 313.710938 505.257812 314.925781 C 505.25 316.136719 505.3125 317.347656 505.457031 318.554688 C 505.597656 319.761719 505.8125 320.957031 506.101562 322.136719 C 506.390625 323.320312 506.75 324.476562 507.183594 325.613281 C 507.617188 326.75 508.117188 327.855469 508.6875 328.929688 C 509.257812 330.003906 509.894531 331.039062 510.59375 332.039062 C 511.292969 333.035156 512.046875 333.984375 512.863281 334.886719 C 515.386719 337.691406 510.839844 341.308594 508.332031 338.523438 C 506.3125 336.261719 504.621094 333.777344 503.257812 331.070312 C 501.894531 328.367188 500.90625 325.53125 500.296875 322.566406 C 497.628906 330.269531 495.65625 338.152344 494.382812 346.210938 C 493.46875 351.996094 492.921875 357.8125 492.738281 363.667969 C 492.554688 369.523438 492.738281 375.371094 493.285156 381.207031 C 493.835938 387.042969 494.746094 392.820312 496.019531 398.546875 C 497.292969 404.273438 498.917969 409.894531 500.894531 415.421875 C 503.082031 421.460938 505.667969 427.332031 508.648438 433.027344 C 511.632812 438.722656 514.984375 444.191406 518.703125 449.433594 C 522.421875 454.675781 526.480469 459.648438 530.871094 464.34375 C 535.261719 469.039062 539.945312 473.421875 544.925781 477.484375 C 547.828125 479.828125 544.4375 484.566406 541.519531 482.199219 C 537.5625 478.992188 533.78125 475.589844 530.175781 471.992188 C 526.570312 468.394531 523.15625 464.621094 519.941406 460.667969 C 516.726562 456.71875 513.722656 452.609375 510.933594 448.347656 C 508.140625 444.085938 505.578125 439.695312 503.242188 435.167969 C 500.90625 430.640625 498.8125 426.007812 496.957031 421.265625 C 495.101562 416.523438 493.496094 411.699219 492.140625 406.789062 C 490.785156 401.882812 489.6875 396.921875 488.847656 391.902344 C 488.007812 386.882812 487.425781 381.835938 487.109375 376.761719 C 486.589844 367.4375 486.941406 358.148438 488.164062 348.898438 C 489.386719 339.652344 491.464844 330.601562 494.390625 321.75 C 489.90625 326.398438 485.140625 330.730469 480.085938 334.75 C 477.167969 337.09375 473.496094 332.515625 476.433594 330.195312 C 485.734375 322.835938 493.964844 314.429688 501.128906 304.972656 C 503.222656 302.210938 507.066406 304.667969 506.214844 307.734375 Z M 506.214844 307.734375 " fill-opacity="1" fill-rule="nonzero"/></g></g></g></g><g clip-path="url(#f0e1118008)"><g clip-path="url(#64fd32b50f)"><g clip-path="url(#a5d550e709)"><g clip-path="url(#01ebb93eee)"><path fill="#000000" d="M 592.269531 461.964844 C 592.832031 459.675781 593.105469 457.355469 593.089844 455.003906 C 593.070312 452.648438 592.765625 450.332031 592.171875 448.050781 C 591.578125 445.773438 590.710938 443.601562 589.574219 441.539062 C 588.4375 439.476562 587.0625 437.585938 585.453125 435.863281 C 582.976562 433.199219 587.320312 429.625 589.785156 432.273438 C 591.765625 434.417969 593.4375 436.785156 594.792969 439.375 C 596.148438 441.964844 597.140625 444.683594 597.777344 447.539062 C 600.242188 440.050781 602.035156 432.40625 603.152344 424.601562 C 603.953125 419 604.398438 413.371094 604.492188 407.714844 C 604.585938 402.058594 604.328125 396.417969 603.714844 390.789062 C 603.101562 385.164062 602.136719 379.601562 600.824219 374.09375 C 599.515625 368.589844 597.863281 363.1875 595.875 357.890625 C 593.675781 352.09375 591.09375 346.472656 588.128906 341.027344 C 585.167969 335.582031 581.851562 330.359375 578.183594 325.363281 C 574.515625 320.363281 570.523438 315.636719 566.214844 311.179688 C 561.90625 306.722656 557.316406 302.578125 552.445312 298.742188 C 549.605469 296.527344 552.816406 291.894531 555.667969 294.128906 C 559.539062 297.152344 563.242188 300.371094 566.777344 303.78125 C 570.3125 307.191406 573.664062 310.777344 576.828125 314.535156 C 579.988281 318.292969 582.949219 322.207031 585.707031 326.269531 C 588.464844 330.335938 591.003906 334.535156 593.324219 338.863281 C 595.648438 343.191406 597.738281 347.628906 599.597656 352.175781 C 601.457031 356.722656 603.078125 361.351562 604.457031 366.066406 C 605.835938 370.78125 606.96875 375.554688 607.851562 380.382812 C 608.734375 385.214844 609.367188 390.078125 609.746094 394.972656 C 610.382812 403.96875 610.175781 412.941406 609.121094 421.894531 C 608.070312 430.847656 606.195312 439.621094 603.492188 448.21875 C 607.757812 443.652344 612.304688 439.382812 617.128906 435.414062 C 619.917969 433.101562 623.527344 437.453125 620.726562 439.746094 C 611.84375 447.015625 604.007812 455.28125 597.21875 464.539062 C 595.234375 467.242188 591.488281 464.9375 592.269531 461.964844 Z M 592.269531 461.964844 " fill-opacity="1" fill-rule="nonzero"/></g></g></g></g></svg>