<svg xmlns="http://www.w3.org/2000/svg" xmlns:xlink="http://www.w3.org/1999/xlink" width="1080" zoomAndPan="magnify" viewBox="0 0 810 809.999993" height="1080" preserveAspectRatio="xMidYMid meet" version="1.0"><defs><clipPath id="cecc44a6e1"><rect x="0" width="603" y="0" height="585"/></clipPath><clipPath id="66dcc78d07"><path d="M 108.183594 434 L 404 434 L 404 631.675781 L 108.183594 631.675781 Z M 108.183594 434 " clip-rule="nonzero"/></clipPath><clipPath id="90986749f7"><path d="M 375 566 L 500 566 L 500 631.675781 L 375 631.675781 Z M 375 566 " clip-rule="nonzero"/></clipPath></defs><g transform="matrix(1, 0, 0, 1, 96, 99)"><g clip-path="url(#cecc44a6e1)"><path fill="#99b9ff" d="M 168.675781 198.339844 C 160.191406 179.179688 77.441406 153.179688 27.71875 218.046875 C -22.003906 282.914062 9.46875 326.617188 60.105469 312.476562 C 110.742188 298.332031 189.84375 246.238281 168.675781 198.339844 Z M 168.675781 198.339844 " fill-opacity="1" fill-rule="nonzero"/><path fill="#99b9ff" d="M 504.878906 443.945312 C 569.839844 354.167969 639.542969 287.292969 572.210938 167.226562 C 504.878906 47.164062 329.890625 -54.566406 234.640625 51.269531 C 139.390625 157.101562 268.851562 241.039062 155.265625 296.691406 C 41.675781 352.34375 20.234375 395.042969 42.863281 480.53125 C 65.488281 566.019531 344.121094 665.648438 504.878906 443.945312 Z M 504.878906 443.945312 " fill-opacity="1" fill-rule="nonzero"/></g></g><path fill="#5479f7" d="M 475.070312 472.027344 C 474.976562 472.238281 474.84375 472.421875 474.675781 472.578125 C 474.507812 472.738281 474.3125 472.855469 474.097656 472.9375 C 473.882812 473.019531 473.660156 473.054688 473.429688 473.046875 C 473.199219 473.039062 472.976562 472.988281 472.769531 472.890625 C 419.707031 448.90625 399.949219 417.234375 392.492188 405.296875 C 391.777344 404.148438 391.175781 403.179688 390.675781 402.4375 C 390.527344 402.25 390.425781 402.039062 390.363281 401.804688 C 390.304688 401.574219 390.296875 401.339844 390.332031 401.101562 C 390.371094 400.863281 390.457031 400.644531 390.585938 400.441406 C 390.714844 400.242188 390.878906 400.074219 391.078125 399.9375 C 391.28125 399.804688 391.496094 399.71875 391.734375 399.675781 C 391.96875 399.632812 392.207031 399.636719 392.4375 399.695312 C 392.671875 399.75 392.886719 399.847656 393.078125 399.992188 C 393.269531 400.136719 393.425781 400.3125 393.542969 400.519531 C 394.0625 401.289062 394.695312 402.289062 395.433594 403.480469 C 402.722656 415.167969 422.089844 446.199219 474.207031 469.753906 C 474.414062 469.847656 474.59375 469.976562 474.75 470.144531 C 474.90625 470.308594 475.023438 470.5 475.105469 470.710938 C 475.183594 470.925781 475.222656 471.144531 475.214844 471.375 C 475.210938 471.601562 475.160156 471.820312 475.070312 472.027344 Z M 475.070312 472.027344 " fill-opacity="1" fill-rule="evenodd"/><path fill="#5479f7" d="M 657.519531 452.660156 C 618.21875 367.105469 525.632812 330.519531 492.039062 319.773438 C 491.296875 329.625 487.433594 356.742188 467.832031 360.445312 C 466.484375 360.703125 465.121094 360.832031 463.746094 360.832031 C 454.511719 360.832031 442.257812 354.921875 430.363281 331.175781 C 430.085938 330.617188 429.878906 330.203125 429.746094 329.96875 C 429.617188 329.738281 429.546875 329.488281 429.53125 329.226562 C 428.734375 329.296875 427.953125 329.332031 427.183594 329.332031 C 424.453125 329.328125 421.78125 328.914062 419.175781 328.09375 C 419.226562 328.492188 419.144531 328.863281 418.933594 329.203125 C 418.722656 329.546875 418.429688 329.785156 418.050781 329.917969 C 337.023438 359.296875 301.007812 435.050781 297.191406 443.542969 L 327.460938 444.976562 C 327.796875 444.988281 328.105469 445.09375 328.382812 445.285156 C 328.664062 445.480469 328.867188 445.734375 328.996094 446.046875 L 341.273438 476.03125 L 361.027344 417.796875 L 362.878906 406.75 C 362.921875 406.523438 363.003906 406.316406 363.125 406.125 C 363.25 405.933594 363.402344 405.769531 363.589844 405.636719 C 363.773438 405.503906 363.980469 405.414062 364.199219 405.359375 C 364.421875 405.304688 364.644531 405.296875 364.871094 405.328125 C 365.097656 405.367188 365.308594 405.445312 365.503906 405.566406 C 365.695312 405.6875 365.859375 405.84375 365.992188 406.03125 C 366.128906 406.214844 366.21875 406.421875 366.269531 406.644531 C 366.324219 406.867188 366.328125 407.09375 366.289062 407.320312 L 350.855469 499.199219 C 350.84375 499.261719 350.832031 499.324219 350.8125 499.382812 L 378.191406 566.28125 L 498.292969 587.980469 C 498.667969 588.050781 498.988281 588.226562 499.246094 588.507812 C 499.507812 588.789062 499.660156 589.121094 499.699219 589.5 C 499.742188 589.882812 499.664062 590.238281 499.46875 590.566406 C 499.273438 590.898438 499 591.136719 498.648438 591.285156 L 495.273438 592.6875 C 506.015625 592.742188 530.484375 592.6875 575.808594 585.972656 L 576.261719 584.382812 C 564.660156 583.5 552.109375 581.902344 538.613281 579.589844 C 536.695312 584.808594 532.242188 588.167969 526.871094 588.175781 L 526.84375 588.175781 C 520.257812 588.175781 512.609375 582.804688 510.34375 570.859375 C 510.207031 570.132812 510.078125 569.421875 509.960938 568.722656 C 509.472656 568.34375 509.257812 567.84375 509.308594 567.226562 C 509.328125 566.964844 509.40625 566.722656 509.542969 566.5 C 509.09375 564.121094 508.679688 561.894531 508.289062 559.800781 C 501.5 559.839844 497.992188 559.890625 494.53125 559.960938 C 494.128906 562.644531 492.753906 568.480469 488.179688 571.953125 C 485.777344 573.777344 482.878906 574.695312 479.519531 574.695312 C 478.53125 574.691406 477.542969 574.617188 476.5625 574.472656 C 471.660156 573.761719 468 571.628906 465.679688 568.117188 C 464.929688 566.964844 464.339844 565.738281 463.90625 564.429688 C 463.738281 564.492188 463.5625 564.523438 463.382812 564.527344 C 462.949219 564.527344 462.523438 564.527344 462.101562 564.527344 C 453 564.527344 446.871094 562.03125 443.871094 557.105469 C 441.808594 553.71875 441.472656 549.527344 442.097656 545.164062 C 441.832031 545.375 441.53125 545.5 441.191406 545.53125 C 440.851562 545.566406 440.53125 545.503906 440.230469 545.347656 C 435.472656 542.902344 432.625 539.90625 431.535156 536.195312 C 429.816406 530.34375 432.875 523.699219 436.832031 516.660156 C 433.4375 516.703125 431.554688 518.75 428.929688 521.488281 C 425.925781 524.617188 422.1875 528.507812 415.207031 529.542969 C 414.519531 529.652344 413.824219 529.707031 413.125 529.710938 C 410.351562 529.710938 407.980469 528.808594 406.316406 527.082031 C 404.726562 525.441406 403.058594 522.265625 404.125 516.449219 C 407.398438 498.636719 418.703125 487.734375 437.710938 484.042969 C 457.757812 480.167969 482.191406 485.578125 490.90625 488.847656 C 487.929688 475.902344 493.976562 470.78125 496.859375 469.125 C 502.230469 466.058594 509.457031 467.113281 513.609375 471.621094 C 513.960938 472.003906 514.316406 472.410156 514.660156 472.832031 C 529.007812 471.835938 546.003906 473.558594 562.445312 476.347656 C 561.445312 459.105469 547.132812 410.046875 546.988281 409.535156 C 546.921875 409.316406 546.902344 409.09375 546.925781 408.867188 C 546.945312 408.640625 547.011719 408.425781 547.121094 408.222656 C 547.226562 408.023438 547.371094 407.851562 547.546875 407.707031 C 547.722656 407.5625 547.921875 407.457031 548.136719 407.390625 L 548.160156 407.390625 L 548.058594 407.035156 C 548.191406 407.132812 548.332031 407.226562 548.46875 407.332031 C 548.878906 407.292969 549.257812 407.390625 549.601562 407.625 C 549.941406 407.855469 550.171875 408.171875 550.285156 408.570312 L 550.4375 409.09375 C 560.414062 419.324219 571.703125 450.011719 577.785156 468.183594 C 577.917969 467.761719 578.175781 467.445312 578.554688 467.222656 L 602.078125 453.316406 C 602.277344 453.199219 602.488281 453.121094 602.71875 453.085938 C 602.949219 453.050781 603.175781 453.0625 603.398438 453.121094 C 603.621094 453.175781 603.828125 453.273438 604.011719 453.414062 C 604.199219 453.550781 604.347656 453.71875 604.464844 453.917969 C 604.582031 454.117188 604.660156 454.332031 604.691406 454.5625 C 604.722656 454.792969 604.707031 455.015625 604.648438 455.242188 C 604.589844 455.464844 604.488281 455.667969 604.347656 455.851562 C 604.207031 456.035156 604.035156 456.183594 603.835938 456.300781 L 580.3125 470.199219 C 580.019531 470.375 579.703125 470.453125 579.363281 470.441406 C 579.023438 470.429688 578.714844 470.324219 578.4375 470.128906 C 579.898438 474.53125 581.003906 478.039062 581.644531 480.105469 C 607.707031 485.792969 628.574219 492.648438 628.953125 492.765625 C 629.148438 492.832031 629.324219 492.925781 629.488281 493.054688 C 629.648438 493.183594 629.78125 493.335938 629.886719 493.511719 C 629.992188 493.6875 630.066406 493.875 630.105469 494.078125 C 630.144531 494.277344 630.148438 494.480469 630.117188 494.683594 C 630.085938 494.886719 630.015625 495.078125 629.917969 495.253906 C 629.816406 495.433594 629.6875 495.589844 629.53125 495.722656 C 629.375 495.859375 629.203125 495.960938 629.007812 496.03125 C 628.816406 496.101562 628.617188 496.136719 628.414062 496.140625 C 628.226562 496.140625 628.042969 496.109375 627.867188 496.050781 C 627.1875 495.824219 560.71875 474.003906 517.0625 476.160156 C 530.269531 496.445312 537.78125 543.648438 537.355469 564.382812 C 537.335938 565.339844 536.664062 566.023438 535.589844 566.082031 C 535.363281 566.074219 535.140625 566.027344 534.933594 565.933594 C 534.722656 565.839844 534.539062 565.710938 534.378906 565.546875 C 534.21875 565.378906 534.097656 565.191406 534.015625 564.976562 C 533.929688 564.761719 533.890625 564.539062 533.894531 564.3125 C 534.015625 558.753906 533.546875 551.378906 532.5625 543.207031 C 531.777344 543.40625 530.710938 543.660156 529.242188 544.007812 L 520.253906 546.171875 C 520.121094 546.203125 519.984375 546.21875 519.84375 546.21875 C 519.632812 546.222656 519.425781 546.183594 519.226562 546.109375 C 519.027344 546.035156 518.847656 545.925781 518.6875 545.785156 C 518.527344 545.644531 518.398438 545.480469 518.300781 545.292969 C 518.203125 545.105469 518.140625 544.90625 518.117188 544.695312 C 518.089844 544.484375 518.105469 544.273438 518.15625 544.066406 C 518.207031 543.863281 518.292969 543.671875 518.414062 543.496094 C 518.539062 543.324219 518.6875 543.175781 518.863281 543.058594 C 519.039062 542.9375 519.230469 542.855469 519.4375 542.804688 L 528.4375 540.644531 C 530.203125 540.226562 531.433594 539.933594 532.125 539.753906 C 531.019531 531.480469 529.441406 522.558594 527.394531 513.9375 L 525.648438 513.9375 C 516.441406 513.898438 515.421875 513.914062 502.324219 515.707031 C 506.160156 529.636719 507.648438 537.554688 510.992188 555.511719 C 511.566406 558.605469 512.199219 562 512.910156 565.777344 C 518.476562 566.21875 519.265625 566.191406 524.785156 565.996094 L 526.617188 565.929688 C 526.84375 565.929688 527.0625 565.96875 527.277344 566.050781 C 527.488281 566.132812 527.679688 566.253906 527.84375 566.40625 C 528.011719 566.5625 528.144531 566.742188 528.242188 566.949219 C 528.339844 567.15625 528.394531 567.371094 528.410156 567.601562 C 528.414062 567.828125 528.378906 568.050781 528.296875 568.265625 C 528.21875 568.480469 528.097656 568.671875 527.941406 568.839844 C 527.785156 569.007812 527.605469 569.140625 527.394531 569.234375 C 527.1875 569.332031 526.96875 569.382812 526.738281 569.390625 L 524.910156 569.453125 C 522.542969 569.535156 521.019531 569.589844 519.605469 569.589844 C 517.871094 569.589844 516.308594 569.507812 513.574219 569.300781 L 513.746094 570.210938 C 515.640625 580.230469 521.683594 584.710938 526.84375 584.710938 L 526.867188 584.710938 C 531.433594 584.710938 534.992188 581.414062 535.925781 576.335938 C 535.964844 576.109375 536.046875 575.898438 536.171875 575.707031 C 536.296875 575.511719 536.453125 575.351562 536.644531 575.222656 C 536.832031 575.089844 537.042969 575 537.265625 574.953125 C 537.492188 574.90625 537.71875 574.90625 537.941406 574.949219 C 538.269531 575.007812 538.554688 575.152344 538.796875 575.375 C 539.042969 575.601562 539.207031 575.871094 539.296875 576.191406 C 605.988281 587.613281 648.980469 581.46875 667.070312 557.949219 C 683.207031 537.003906 679.988281 501.578125 657.519531 452.660156 Z M 475.070312 472.027344 C 474.976562 472.238281 474.84375 472.421875 474.675781 472.578125 C 474.507812 472.738281 474.3125 472.855469 474.097656 472.9375 C 473.882812 473.019531 473.660156 473.054688 473.429688 473.046875 C 473.199219 473.039062 472.976562 472.988281 472.769531 472.890625 C 419.707031 448.90625 399.949219 417.234375 392.492188 405.296875 C 391.777344 404.148438 391.175781 403.179688 390.675781 402.4375 C 390.527344 402.25 390.425781 402.039062 390.363281 401.804688 C 390.304688 401.574219 390.296875 401.339844 390.332031 401.101562 C 390.371094 400.863281 390.457031 400.644531 390.585938 400.441406 C 390.714844 400.242188 390.878906 400.074219 391.078125 399.9375 C 391.28125 399.804688 391.496094 399.71875 391.734375 399.675781 C 391.96875 399.632812 392.207031 399.636719 392.4375 399.695312 C 392.671875 399.75 392.886719 399.847656 393.078125 399.992188 C 393.269531 400.136719 393.425781 400.3125 393.542969 400.519531 C 394.0625 401.289062 394.695312 402.289062 395.433594 403.480469 C 402.722656 415.167969 422.089844 446.199219 474.207031 469.753906 C 474.414062 469.847656 474.59375 469.976562 474.75 470.144531 C 474.90625 470.308594 475.023438 470.5 475.105469 470.710938 C 475.183594 470.925781 475.222656 471.144531 475.214844 471.375 C 475.210938 471.601562 475.160156 471.820312 475.070312 472.027344 Z M 475.070312 472.027344 " fill-opacity="1" fill-rule="evenodd"/><path fill="#ffffff" d="M 475.070312 472.027344 C 474.976562 472.238281 474.84375 472.421875 474.675781 472.578125 C 474.507812 472.738281 474.3125 472.855469 474.097656 472.9375 C 473.882812 473.019531 473.660156 473.054688 473.429688 473.046875 C 473.199219 473.039062 472.976562 472.988281 472.769531 472.890625 C 419.707031 448.90625 399.949219 417.234375 392.492188 405.296875 C 391.777344 404.148438 391.175781 403.179688 390.675781 402.4375 C 390.527344 402.25 390.425781 402.039062 390.363281 401.804688 C 390.304688 401.574219 390.296875 401.339844 390.332031 401.101562 C 390.371094 400.863281 390.457031 400.644531 390.585938 400.441406 C 390.714844 400.242188 390.878906 400.074219 391.078125 399.9375 C 391.28125 399.804688 391.496094 399.71875 391.734375 399.675781 C 391.96875 399.632812 392.207031 399.636719 392.4375 399.695312 C 392.671875 399.75 392.886719 399.847656 393.078125 399.992188 C 393.269531 400.136719 393.425781 400.3125 393.542969 400.519531 C 394.0625 401.289062 394.695312 402.289062 395.433594 403.480469 C 402.722656 415.167969 422.089844 446.199219 474.207031 469.753906 C 474.414062 469.847656 474.59375 469.976562 474.75 470.144531 C 474.90625 470.308594 475.023438 470.5 475.105469 470.710938 C 475.183594 470.925781 475.222656 471.144531 475.214844 471.375 C 475.210938 471.601562 475.160156 471.820312 475.070312 472.027344 Z M 475.070312 472.027344 " fill-opacity="1" fill-rule="evenodd"/><path fill="#ffffff" d="M 678.066406 516.160156 C 678.136719 467.070312 627.800781 402.203125 627.800781 402.203125 C 590.101562 355.53125 521.453125 328.273438 492.046875 318.25 L 489.210938 317.296875 C 484.179688 315.625 480.628906 314.566406 479.03125 314.101562 L 478.308594 313.894531 L 478.074219 313.832031 L 477.664062 291.410156 L 477.628906 289.539062 C 477.628906 289.539062 477.898438 289.324219 478.375 288.902344 C 480.527344 286.957031 482.503906 284.851562 484.304688 282.578125 C 486.050781 280.394531 487.625 278.089844 489.027344 275.671875 C 489.796875 274.335938 490.5625 272.910156 491.246094 271.402344 C 494.378906 264.617188 490.308594 258.78125 486.429688 255.128906 C 484.808594 253.59375 483.042969 252.246094 481.132812 251.09375 C 481.035156 250.785156 480.933594 250.476562 480.828125 250.175781 C 479.03125 245 476.425781 240.265625 473.011719 235.976562 C 471.183594 233.660156 469.1875 231.492188 467.03125 229.472656 C 453.371094 216.621094 433.875 209.652344 419.984375 208.390625 C 414.003906 207.847656 409.058594 208.390625 406.070312 209.960938 C 402.199219 212.007812 398.742188 216.8125 395.796875 222.566406 C 390.675781 232.5625 387.078125 245.441406 385.484375 251.789062 C 384.878906 254.210938 384.558594 255.683594 384.558594 255.683594 C 384.351562 259.75 384.402344 263.8125 384.707031 267.871094 C 387.851562 308.679688 417.015625 326.082031 417.980469 326.644531 L 418.003906 326.644531 L 416.679688 327.167969 C 400.386719 333.792969 375.007812 348.550781 342.945312 376.046875 C 312.980469 401.757812 298.316406 437.308594 295.925781 443.480469 C 295.6875 444.089844 295.574219 444.414062 295.574219 444.414062 L 293.65625 444.335938 L 110.472656 436.855469 L 186.765625 603.714844 L 392.984375 628.339844 L 400.953125 628.222656 L 402.632812 628.195312 L 403.398438 627.894531 L 404.210938 627.582031 L 411.621094 624.707031 L 411.75 624.652344 L 418.65625 621.964844 L 418.6875 621.964844 L 426.457031 618.953125 L 486.882812 595.546875 L 488.492188 594.925781 L 490.230469 594.800781 L 576.128906 588.511719 L 577.617188 584.507812 L 578.25 582.800781 L 578.425781 582.328125 C 601.449219 586.015625 634.492188 580.40625 634.492188 580.40625 C 693.675781 562.707031 678.066406 516.160156 678.066406 516.160156 Z M 667.089844 557.953125 C 648.988281 581.472656 605.996094 587.617188 539.316406 576.195312 C 539.226562 575.875 539.0625 575.605469 538.816406 575.378906 C 538.574219 575.15625 538.289062 575.011719 537.960938 574.953125 C 537.738281 574.910156 537.511719 574.910156 537.285156 574.957031 C 537.058594 575.003906 536.851562 575.09375 536.664062 575.226562 C 536.472656 575.355469 536.316406 575.515625 536.191406 575.710938 C 536.066406 575.902344 535.984375 576.113281 535.945312 576.339844 C 535.011719 581.417969 531.449219 584.707031 526.886719 584.714844 L 526.863281 584.714844 C 521.703125 584.714844 515.65625 580.234375 513.765625 570.214844 L 513.59375 569.304688 C 516.328125 569.511719 517.890625 569.59375 519.625 569.59375 C 521.039062 569.59375 522.5625 569.539062 524.929688 569.457031 L 526.757812 569.394531 C 526.988281 569.386719 527.207031 569.335938 527.414062 569.238281 C 527.625 569.144531 527.804688 569.011719 527.960938 568.84375 C 528.117188 568.675781 528.238281 568.484375 528.316406 568.269531 C 528.398438 568.054688 528.433594 567.832031 528.425781 567.605469 C 528.414062 567.375 528.359375 567.160156 528.261719 566.953125 C 528.164062 566.746094 528.03125 566.566406 527.863281 566.414062 C 527.699219 566.257812 527.507812 566.136719 527.296875 566.054688 C 527.082031 565.972656 526.863281 565.933594 526.636719 565.933594 L 524.804688 566 C 519.285156 566.195312 518.496094 566.222656 512.929688 565.78125 C 512.21875 562.003906 511.585938 558.609375 511.011719 555.515625 C 507.667969 537.558594 506.195312 529.640625 502.34375 515.710938 C 515.441406 513.917969 516.453125 513.902344 525.667969 513.941406 L 527.414062 513.941406 C 529.441406 522.5625 531.039062 531.484375 532.144531 539.757812 C 531.449219 539.9375 530.226562 540.230469 528.457031 540.648438 L 519.457031 542.808594 C 519.25 542.859375 519.058594 542.941406 518.882812 543.0625 C 518.707031 543.179688 518.558594 543.328125 518.433594 543.5 C 518.3125 543.675781 518.226562 543.867188 518.175781 544.070312 C 518.121094 544.277344 518.109375 544.488281 518.132812 544.699219 C 518.160156 544.910156 518.222656 545.109375 518.320312 545.296875 C 518.417969 545.484375 518.546875 545.648438 518.707031 545.789062 C 518.867188 545.929688 519.046875 546.039062 519.246094 546.113281 C 519.445312 546.1875 519.652344 546.226562 519.863281 546.222656 C 520.003906 546.222656 520.140625 546.207031 520.273438 546.175781 L 529.261719 544.015625 C 530.730469 543.664062 531.796875 543.410156 532.582031 543.210938 C 533.566406 551.402344 534.035156 558.777344 533.914062 564.316406 C 533.910156 564.542969 533.949219 564.765625 534.035156 564.980469 C 534.117188 565.195312 534.238281 565.382812 534.398438 565.550781 C 534.554688 565.714844 534.742188 565.84375 534.949219 565.9375 C 535.160156 566.03125 535.382812 566.078125 535.609375 566.085938 C 536.683594 566.027344 537.355469 565.34375 537.375 564.386719 C 537.808594 543.667969 530.289062 496.449219 517.082031 476.164062 C 560.734375 474.007812 627.203125 495.828125 627.886719 496.054688 C 628.0625 496.113281 628.246094 496.144531 628.433594 496.144531 C 628.636719 496.140625 628.835938 496.105469 629.027344 496.035156 C 629.222656 495.964844 629.394531 495.863281 629.550781 495.726562 C 629.707031 495.59375 629.835938 495.4375 629.9375 495.257812 C 630.035156 495.082031 630.101562 494.890625 630.136719 494.6875 C 630.167969 494.484375 630.164062 494.28125 630.125 494.082031 C 630.085938 493.878906 630.011719 493.691406 629.90625 493.515625 C 629.800781 493.339844 629.667969 493.1875 629.507812 493.058594 C 629.34375 492.929688 629.167969 492.835938 628.972656 492.769531 C 628.589844 492.644531 607.726562 485.789062 581.664062 480.109375 C 576.582031 479 571.300781 477.933594 565.929688 476.972656 C 565.277344 476.855469 564.625 476.734375 563.972656 476.625 L 562.4375 476.359375 C 545.996094 473.570312 529 471.847656 514.652344 472.84375 C 514.308594 472.421875 513.953125 472.015625 513.601562 471.632812 C 509.449219 467.125 502.238281 466.066406 496.851562 469.136719 C 493.957031 470.808594 487.925781 475.941406 490.886719 488.875 C 482.171875 485.625 457.738281 480.195312 437.695312 484.070312 C 418.679688 487.761719 407.382812 498.652344 404.105469 516.476562 C 403.039062 522.292969 404.707031 525.46875 406.296875 527.109375 C 407.960938 528.835938 410.332031 529.734375 413.105469 529.734375 C 413.804688 529.734375 414.5 529.679688 415.191406 529.570312 C 422.167969 528.527344 425.90625 524.636719 428.910156 521.511719 C 431.535156 518.777344 433.417969 516.730469 436.8125 516.6875 C 432.855469 523.726562 429.796875 530.371094 431.515625 536.21875 C 432.605469 539.933594 435.453125 542.929688 440.210938 545.375 C 440.511719 545.53125 440.832031 545.59375 441.171875 545.558594 C 441.511719 545.527344 441.8125 545.402344 442.078125 545.191406 C 441.453125 549.554688 441.789062 553.746094 443.851562 557.132812 C 446.851562 562.058594 452.980469 564.554688 462.082031 564.554688 C 462.503906 564.554688 462.929688 564.554688 463.363281 564.554688 C 463.542969 564.550781 463.71875 564.515625 463.890625 564.457031 C 464.320312 565.761719 464.910156 566.992188 465.660156 568.144531 C 467.964844 571.65625 471.640625 573.789062 476.542969 574.5 C 477.523438 574.644531 478.511719 574.71875 479.5 574.722656 C 482.859375 574.722656 485.761719 573.804688 488.160156 571.980469 C 492.734375 568.507812 494.109375 562.6875 494.511719 559.988281 C 497.964844 559.917969 501.480469 559.867188 508.273438 559.824219 C 508.65625 561.921875 509.074219 564.144531 509.523438 566.527344 C 509.386719 566.75 509.308594 566.992188 509.289062 567.253906 C 509.238281 567.871094 509.453125 568.367188 509.941406 568.75 C 510.070312 569.449219 510.199219 570.160156 510.324219 570.882812 C 512.585938 582.851562 520.234375 588.203125 526.824219 588.203125 L 526.851562 588.203125 C 532.222656 588.203125 536.679688 584.835938 538.59375 579.617188 C 552.089844 581.917969 564.640625 583.515625 576.246094 584.410156 L 575.789062 586 C 530.464844 592.695312 505.992188 592.769531 495.253906 592.714844 L 498.628906 591.3125 C 498.980469 591.164062 499.257812 590.925781 499.449219 590.59375 C 499.644531 590.265625 499.722656 589.910156 499.679688 589.527344 C 499.640625 589.148438 499.488281 588.816406 499.226562 588.535156 C 498.96875 588.253906 498.648438 588.078125 498.273438 588.007812 L 378.171875 566.308594 L 350.8125 499.382812 C 350.832031 499.324219 350.84375 499.261719 350.855469 499.199219 L 366.269531 407.320312 C 366.308594 407.09375 366.304688 406.867188 366.25 406.644531 C 366.199219 406.421875 366.109375 406.214844 365.976562 406.03125 C 365.839844 405.84375 365.679688 405.6875 365.484375 405.566406 C 365.289062 405.445312 365.078125 405.367188 364.851562 405.328125 C 364.625 405.296875 364.402344 405.304688 364.179688 405.359375 C 363.960938 405.414062 363.753906 405.503906 363.570312 405.636719 C 363.382812 405.769531 363.230469 405.933594 363.109375 406.125 C 362.984375 406.316406 362.902344 406.523438 362.859375 406.75 L 361.007812 417.796875 L 341.242188 476.03125 L 328.964844 446.046875 C 328.835938 445.734375 328.632812 445.480469 328.355469 445.285156 C 328.074219 445.09375 327.769531 444.988281 327.429688 444.976562 L 297.160156 443.542969 C 301.007812 435.050781 337.023438 359.296875 418.03125 329.90625 C 418.410156 329.773438 418.703125 329.535156 418.914062 329.191406 C 419.125 328.851562 419.207031 328.480469 419.15625 328.082031 C 421.761719 328.902344 424.433594 329.316406 427.164062 329.320312 C 427.933594 329.320312 428.714844 329.285156 429.511719 329.214844 C 429.527344 329.476562 429.597656 329.726562 429.726562 329.957031 C 429.859375 330.191406 430.066406 330.605469 430.34375 331.164062 C 442.242188 354.910156 454.492188 360.820312 463.726562 360.820312 C 465.101562 360.820312 466.464844 360.691406 467.8125 360.433594 C 487.433594 356.722656 491.269531 329.605469 492.039062 319.773438 C 525.652344 330.550781 618.238281 367.125 657.539062 452.679688 C 679.988281 501.578125 683.207031 537.003906 667.089844 557.953125 Z M 498.558594 472.15625 C 502.519531 469.886719 508.007812 470.699219 511.050781 473.996094 C 513.0625 476.277344 514.773438 478.765625 516.175781 481.460938 C 507.550781 480.921875 497.027344 482.230469 493.597656 483.507812 C 493.328125 478.183594 495.019531 474.191406 498.558594 472.15625 Z M 494.9375 490.636719 C 494.558594 489.402344 494.25 488.148438 494.011719 486.875 L 494.144531 486.875 C 494.359375 486.875 494.566406 486.835938 494.765625 486.761719 C 497.53125 485.699219 508.5 484.199219 517.429688 485.027344 C 517.609375 485.042969 517.78125 485.027344 517.957031 484.988281 C 521.277344 492.070312 524.171875 501.007812 526.550781 510.476562 L 525.648438 510.476562 C 516.273438 510.449219 515.167969 510.453125 501.375 512.347656 C 499.734375 506.527344 497.675781 499.605469 494.949219 490.636719 Z M 494.9375 490.636719 " fill-opacity="1" fill-rule="evenodd"/><path fill="#5479f7" d="M 516.1875 481.460938 C 507.5625 480.921875 497.035156 482.230469 493.609375 483.507812 C 493.328125 478.183594 495.019531 474.191406 498.570312 472.15625 C 502.53125 469.886719 508.019531 470.699219 511.0625 473.996094 C 513.074219 476.277344 514.78125 478.765625 516.1875 481.460938 Z M 516.1875 481.460938 " fill-opacity="1" fill-rule="evenodd"/><path fill="#5479f7" d="M 526.570312 510.472656 L 525.667969 510.472656 C 516.292969 510.445312 515.1875 510.449219 501.394531 512.34375 C 499.742188 506.519531 497.679688 499.597656 494.957031 490.628906 C 494.578125 489.394531 494.269531 488.140625 494.03125 486.867188 L 494.164062 486.867188 C 494.378906 486.867188 494.585938 486.828125 494.785156 486.753906 C 497.550781 485.691406 508.519531 484.191406 517.449219 485.019531 C 517.628906 485.035156 517.800781 485.019531 517.976562 484.980469 C 521.289062 492.074219 524.183594 501.011719 526.570312 510.472656 Z M 526.570312 510.472656 " fill-opacity="1" fill-rule="evenodd"/><path fill="#000000" d="M 384.710938 267.875 C 384.851562 255.46875 384.839844 255.484375 384.859375 254.410156 C 390.878906 252.53125 393.175781 252.109375 406.273438 241.105469 C 407.683594 243.691406 409.605469 251.59375 422.355469 249.3125 C 438.175781 246.488281 442.539062 229 443.144531 226.613281 C 469.1875 239.78125 459.757812 248.910156 468.503906 256.539062 C 474.003906 261.335938 480.183594 257.945312 481.699219 254.195312 C 483.113281 250.714844 484.003906 253.75 487.175781 255.601562 C 513.742188 231.832031 488.59375 187.464844 459.386719 194.144531 C 458.773438 194.28125 458.101562 183.136719 435.117188 180.289062 C 423.222656 178.804688 414.125 187.441406 412.734375 188.757812 C 397.199219 182.683594 380.652344 187.167969 378.585938 205.15625 C 378.363281 207.074219 355.757812 201.175781 350.417969 216.554688 C 343.148438 237.472656 367.660156 243.535156 370.304688 244.179688 C 364.203125 260.476562 376.417969 268.738281 384.71875 267.871094 Z M 384.710938 267.875 " fill-opacity="1" fill-rule="evenodd"/><path fill="#000000" d="M 404.375 627.832031 C 425.054688 618.539062 427.90625 620.027344 426.390625 618.886719 C 421.902344 615.5 413.457031 609.136719 377.828125 568.238281 C 380.414062 576.777344 385.765625 595.78125 391.605469 607.757812 C 396.832031 618.472656 398.332031 617.46875 404.375 627.839844 Z M 404.375 627.832031 " fill-opacity="1" fill-rule="evenodd"/><path fill="#000000" d="M 582.117188 481.640625 C 574.25 480.40625 572.609375 479.625 565.945312 477.507812 L 563.988281 476.894531 C 563.988281 476.808594 563.988281 476.722656 563.988281 476.640625 C 563.527344 469.410156 565.117188 464.304688 559.769531 447.683594 C 556.128906 436.355469 551.417969 418.421875 548.167969 407.398438 L 548.066406 407.042969 C 548.199219 407.140625 548.335938 407.234375 548.476562 407.339844 C 549.175781 407.875 549.832031 408.464844 550.445312 409.101562 C 560.421875 419.332031 571.710938 450.019531 577.792969 468.191406 C 578.019531 468.859375 578.234375 469.507812 578.441406 470.136719 C 579.902344 474.539062 581.007812 478.046875 581.648438 480.113281 C 581.855469 480.785156 582.011719 481.3125 582.117188 481.640625 Z M 582.117188 481.640625 " fill-opacity="1" fill-rule="evenodd"/><path fill="#000000" d="M 364.648438 407.054688 L 350.050781 497.523438 L 350.03125 497.640625 L 348.25 493.808594 L 340.710938 477.640625 L 341.253906 476.03125 L 361.007812 417.796875 Z M 364.648438 407.054688 " fill-opacity="1" fill-rule="evenodd"/><path fill="#000000" d="M 461.796875 304.359375 C 461.796875 304.359375 462.371094 319.324219 450.328125 333.792969 C 447.011719 330.839844 444.417969 327.351562 442.539062 323.328125 C 442.539062 323.328125 460.117188 308.09375 461.800781 304.359375 Z M 461.796875 304.359375 " fill-opacity="1" fill-rule="evenodd"/><path fill="#000000" d="M 477.367188 291.4375 C 476.972656 291.4375 476.617188 291.316406 476.304688 291.074219 C 475.992188 290.832031 475.789062 290.519531 475.691406 290.136719 C 475.59375 289.75 475.625 289.378906 475.78125 289.015625 C 475.941406 288.652344 476.191406 288.378906 476.539062 288.1875 C 494.574219 278.316406 490.199219 265.550781 488.433594 261.875 C 485.363281 255.535156 479.273438 251.671875 475.089844 253.40625 C 474.878906 253.492188 474.65625 253.539062 474.429688 253.539062 C 474.199219 253.539062 473.980469 253.496094 473.765625 253.410156 C 473.554688 253.324219 473.367188 253.199219 473.207031 253.035156 C 473.042969 252.875 472.917969 252.6875 472.828125 252.476562 C 472.742188 252.265625 472.695312 252.046875 472.695312 251.816406 C 472.695312 251.585938 472.738281 251.367188 472.824219 251.15625 C 472.914062 250.941406 473.035156 250.753906 473.199219 250.59375 C 473.359375 250.429688 473.546875 250.304688 473.757812 250.21875 C 479.675781 247.746094 487.667969 252.296875 491.550781 260.378906 C 495.882812 269.382812 494.648438 282.214844 478.203125 291.222656 C 477.945312 291.367188 477.664062 291.4375 477.367188 291.4375 Z M 477.367188 291.4375 " fill-opacity="1" fill-rule="nonzero"/><path fill="#000000" d="M 463.585938 344.921875 C 458.273438 344.921875 451.363281 341.039062 443.121094 327.832031 C 442.871094 327.449219 442.699219 327.164062 442.609375 327.035156 C 442.472656 326.847656 442.378906 326.644531 442.324219 326.421875 C 442.269531 326.199219 442.257812 325.976562 442.292969 325.75 C 442.328125 325.523438 442.40625 325.308594 442.523438 325.113281 C 442.644531 324.917969 442.796875 324.753906 442.980469 324.617188 C 443.164062 324.480469 443.367188 324.386719 443.589844 324.332031 C 443.8125 324.277344 444.039062 324.265625 444.265625 324.300781 C 444.492188 324.335938 444.703125 324.410156 444.898438 324.53125 C 445.097656 324.648438 445.261719 324.800781 445.398438 324.984375 C 445.515625 325.148438 445.738281 325.5 446.054688 326.003906 C 454.0625 338.855469 461.492188 343.820312 467.503906 340.363281 C 476.101562 335.4375 475.808594 316.371094 475.5625 299.546875 C 475.511719 296.335938 475.460938 293.167969 475.46875 290.140625 C 475.46875 289.183594 476.121094 288.28125 477.207031 288.414062 C 477.4375 288.417969 477.65625 288.460938 477.867188 288.550781 C 478.078125 288.640625 478.265625 288.765625 478.425781 288.929688 C 478.589844 289.089844 478.714844 289.277344 478.800781 289.492188 C 478.886719 289.703125 478.929688 289.921875 478.929688 290.152344 C 478.929688 293.15625 478.972656 296.292969 479.023438 299.492188 C 479.3125 318.144531 479.613281 337.429688 469.242188 343.367188 C 467.496094 344.394531 465.609375 344.914062 463.585938 344.921875 Z M 463.585938 344.921875 " fill-opacity="1" fill-rule="nonzero"/><path fill="#000000" d="M 474.660156 249.898438 C 474.597656 250.691406 474.46875 251.476562 474.277344 252.25 C 474.15625 252.695312 473.902344 253.042969 473.507812 253.28125 C 473.085938 253.550781 472.632812 253.617188 472.148438 253.480469 C 471.929688 253.425781 471.726562 253.328125 471.542969 253.1875 C 471.359375 253.050781 471.210938 252.882812 471.09375 252.683594 C 470.980469 252.484375 470.90625 252.273438 470.875 252.046875 C 470.84375 251.816406 470.859375 251.59375 470.917969 251.371094 C 471.78125 248.074219 471.1875 238.753906 467.023438 229.453125 C 464.957031 224.726562 462.101562 220.535156 458.460938 216.882812 C 449.113281 207.671875 436.183594 204.824219 419.976562 208.390625 C 418.574219 208.695312 417.144531 209.054688 415.6875 209.460938 C 411.753906 210.515625 408.085938 212.167969 404.679688 214.410156 C 401.277344 216.648438 398.316406 219.371094 395.789062 222.566406 C 389.929688 229.964844 386.371094 239.894531 385.476562 251.789062 C 385.414062 252.605469 385.367188 253.425781 385.328125 254.261719 C 385.300781 254.96875 385.277344 255.679688 385.265625 256.402344 C 384.738281 287.316406 400.6875 318.625 420.09375 324.761719 C 433.101562 328.867188 446.4375 321.460938 458.703125 303.34375 C 458.816406 303.175781 458.960938 303.03125 459.125 302.914062 C 459.292969 302.792969 459.476562 302.707031 459.675781 302.652344 C 459.871094 302.597656 460.074219 302.582031 460.277344 302.597656 C 460.484375 302.617188 460.679688 302.667969 460.863281 302.753906 C 461.050781 302.84375 461.214844 302.957031 461.359375 303.101562 C 461.503906 303.25 461.621094 303.414062 461.707031 303.601562 C 461.792969 303.789062 461.84375 303.984375 461.859375 304.1875 C 461.875 304.390625 461.855469 304.59375 461.800781 304.789062 C 461.75 304.96875 461.671875 305.132812 461.566406 305.285156 C 455.160156 314.75 448.90625 320.78125 443.058594 324.433594 C 439.9375 326.433594 436.574219 327.851562 432.964844 328.6875 C 431.828125 328.941406 430.675781 329.121094 429.511719 329.226562 C 428.714844 329.296875 427.933594 329.332031 427.164062 329.332031 C 424.433594 329.328125 421.761719 328.914062 419.15625 328.09375 L 419.054688 328.0625 C 418.25 327.808594 417.457031 327.519531 416.679688 327.195312 C 416.480469 327.117188 416.292969 327.035156 416.089844 326.949219 C 397.78125 318.972656 385.175781 292.65625 382.386719 267.894531 C 381.945312 264.058594 381.757812 260.210938 381.816406 256.351562 C 382.265625 230.148438 394.277344 211.84375 414.769531 206.136719 C 439.085938 199.363281 453.285156 206.898438 460.894531 214.417969 C 467.175781 220.597656 471.015625 228.664062 473.011719 235.957031 C 474.503906 241.398438 474.964844 246.410156 474.660156 249.898438 Z M 474.660156 249.898438 " fill-opacity="1" fill-rule="nonzero"/><path fill="#000000" d="M 418.421875 262.371094 C 417.722656 262.375 417.125 262.128906 416.628906 261.636719 C 414.78125 259.71875 414.765625 254.976562 415.542969 253.378906 C 415.71875 252.964844 416 252.640625 416.382812 252.40625 C 416.765625 252.171875 417.183594 252.070312 417.628906 252.101562 C 419.253906 252.253906 419.886719 254.128906 420.355469 255.875 C 420.394531 256.023438 420.414062 256.171875 420.410156 256.324219 C 421.117188 258.757812 421.289062 261.015625 419.683594 262.011719 C 419.296875 262.253906 418.875 262.375 418.421875 262.371094 Z M 418.421875 262.371094 " fill-opacity="1" fill-rule="nonzero"/><path fill="#000000" d="M 398.640625 267.414062 C 397.945312 267.421875 397.351562 267.179688 396.855469 266.691406 C 394.996094 264.734375 394.992188 260.003906 395.765625 258.414062 C 395.941406 258 396.222656 257.675781 396.605469 257.441406 C 396.988281 257.207031 397.40625 257.109375 397.855469 257.144531 C 399.472656 257.300781 400.105469 259.171875 400.574219 260.914062 C 400.613281 261.0625 400.632812 261.214844 400.632812 261.367188 C 401.335938 263.796875 401.511719 266.042969 399.914062 267.054688 C 399.523438 267.296875 399.101562 267.417969 398.640625 267.414062 Z M 398.640625 267.414062 " fill-opacity="1" fill-rule="nonzero"/><path fill="#000000" d="M 403.707031 287.296875 C 403.347656 287.296875 402.996094 287.261719 402.644531 287.195312 C 401.550781 286.96875 400.050781 286.265625 399.105469 284.191406 C 396.605469 278.699219 403.855469 272.464844 406.132812 270.679688 C 406.316406 270.539062 406.515625 270.4375 406.738281 270.375 C 406.960938 270.316406 407.183594 270.300781 407.410156 270.328125 C 407.640625 270.355469 407.855469 270.425781 408.054688 270.539062 C 408.253906 270.652344 408.421875 270.800781 408.566406 270.980469 C 408.707031 271.164062 408.808594 271.363281 408.867188 271.585938 C 408.929688 271.804688 408.945312 272.03125 408.917969 272.257812 C 408.890625 272.488281 408.820312 272.699219 408.707031 272.902344 C 408.59375 273.101562 408.445312 273.269531 408.261719 273.410156 C 404.617188 276.257812 401.179688 280.394531 402.253906 282.753906 C 402.636719 283.566406 403.023438 283.738281 403.339844 283.800781 C 404.875 284.121094 407.921875 282.269531 410.105469 280.265625 C 410.273438 280.097656 410.464844 279.96875 410.6875 279.882812 C 410.90625 279.792969 411.132812 279.753906 411.371094 279.757812 C 411.605469 279.761719 411.832031 279.8125 412.046875 279.910156 C 412.261719 280.007812 412.449219 280.144531 412.609375 280.320312 C 412.769531 280.496094 412.890625 280.691406 412.96875 280.917969 C 413.046875 281.140625 413.078125 281.371094 413.0625 281.605469 C 413.046875 281.839844 412.984375 282.066406 412.878906 282.277344 C 412.773438 282.488281 412.628906 282.667969 412.445312 282.820312 C 410.886719 284.238281 407.148438 287.296875 403.707031 287.296875 Z M 403.707031 287.296875 " fill-opacity="1" fill-rule="nonzero"/><path fill="#000000" d="M 447.996094 281.371094 C 447.894531 281.371094 447.792969 281.363281 447.691406 281.34375 C 445.773438 281.003906 444.796875 280.816406 443.855469 280.628906 C 442.914062 280.441406 441.902344 280.246094 439.816406 279.886719 C 439.597656 279.835938 439.394531 279.75 439.210938 279.625 C 439.027344 279.5 438.871094 279.34375 438.75 279.160156 C 438.625 278.972656 438.539062 278.773438 438.492188 278.554688 C 438.445312 278.335938 438.441406 278.117188 438.476562 277.898438 C 438.515625 277.675781 438.59375 277.472656 438.710938 277.28125 C 438.828125 277.09375 438.976562 276.929688 439.152344 276.796875 C 439.332031 276.664062 439.53125 276.570312 439.746094 276.511719 C 439.960938 276.457031 440.179688 276.441406 440.402344 276.46875 C 442.535156 276.855469 443.523438 277.035156 444.527344 277.238281 C 445.449219 277.421875 446.386719 277.621094 448.285156 277.941406 C 448.511719 277.957031 448.730469 278.019531 448.933594 278.125 C 449.136719 278.230469 449.3125 278.371094 449.460938 278.546875 C 449.609375 278.722656 449.71875 278.921875 449.789062 279.140625 C 449.859375 279.359375 449.882812 279.582031 449.863281 279.8125 C 449.84375 280.039062 449.78125 280.257812 449.675781 280.460938 C 449.570312 280.664062 449.429688 280.84375 449.253906 280.992188 C 449.082031 281.136719 448.882812 281.246094 448.664062 281.316406 C 448.445312 281.386719 448.222656 281.414062 447.992188 281.394531 Z M 447.996094 281.371094 " fill-opacity="1" fill-rule="nonzero"/><path fill="#000000" d="M 430.335938 304.636719 C 429.976562 304.636719 429.652344 304.535156 429.355469 304.332031 C 429.0625 304.125 428.851562 303.859375 428.726562 303.523438 C 428.597656 303.191406 428.574219 302.847656 428.660156 302.5 C 428.742188 302.15625 428.917969 301.859375 429.183594 301.621094 C 432.128906 298.964844 441.726562 289.613281 441.492188 280.65625 C 441.488281 280.425781 441.527344 280.207031 441.609375 279.992188 C 441.691406 279.777344 441.8125 279.585938 441.96875 279.421875 C 442.128906 279.253906 442.3125 279.125 442.523438 279.03125 C 442.730469 278.9375 442.953125 278.890625 443.179688 278.882812 C 444.242188 278.949219 444.929688 279.617188 444.953125 280.566406 C 445.226562 291 434.722656 301.289062 431.5 304.1875 C 431.171875 304.492188 430.78125 304.640625 430.335938 304.636719 Z M 430.335938 304.636719 " fill-opacity="1" fill-rule="nonzero"/><path fill="#000000" d="M 418.03125 329.90625 C 337.023438 359.296875 301.007812 435.050781 297.191406 443.542969 C 296.980469 444.003906 296.867188 444.269531 296.847656 444.308594 C 296.714844 444.632812 296.5 444.890625 296.210938 445.082031 C 295.921875 445.277344 295.601562 445.371094 295.253906 445.371094 C 295.019531 445.371094 294.796875 445.324219 294.585938 445.238281 C 294.15625 445.058594 293.851562 444.757812 293.671875 444.332031 C 293.535156 444.023438 293.496094 443.699219 293.546875 443.363281 C 293.570312 443.230469 293.605469 443.105469 293.660156 442.980469 C 294.007812 442.140625 329.726562 358.695312 416.089844 326.941406 L 416.859375 326.660156 C 417.074219 326.585938 417.296875 326.550781 417.523438 326.5625 C 417.753906 326.570312 417.972656 326.625 418.179688 326.722656 C 418.386719 326.820312 418.566406 326.953125 418.722656 327.121094 C 418.875 327.289062 418.992188 327.480469 419.074219 327.695312 C 419.117188 327.816406 419.148438 327.945312 419.164062 328.078125 C 419.214844 328.476562 419.132812 328.847656 418.921875 329.191406 C 418.707031 329.535156 418.414062 329.773438 418.03125 329.90625 Z M 418.03125 329.90625 " fill-opacity="1" fill-rule="nonzero"/><path fill="#000000" d="M 669.835938 560.058594 C 656.957031 576.800781 632.441406 585.203125 596.683594 585.203125 C 591.296875 585.203125 585.65625 585.011719 579.761719 584.632812 L 577.628906 584.488281 L 576.269531 584.382812 C 564.667969 583.5 552.117188 581.902344 538.621094 579.589844 L 537.816406 579.453125 C 537.589844 579.414062 537.378906 579.332031 537.1875 579.210938 C 536.992188 579.085938 536.828125 578.933594 536.695312 578.746094 C 536.5625 578.558594 536.472656 578.351562 536.421875 578.128906 C 536.371094 577.90625 536.367188 577.679688 536.40625 577.453125 C 536.445312 577.226562 536.523438 577.015625 536.648438 576.824219 C 536.769531 576.628906 536.925781 576.464844 537.113281 576.332031 C 537.300781 576.199219 537.503906 576.109375 537.730469 576.058594 C 537.953125 576.007812 538.175781 576.003906 538.402344 576.042969 L 539.304688 576.195312 C 605.996094 587.617188 648.988281 581.472656 667.078125 557.953125 C 683.195312 537.003906 679.976562 501.578125 657.507812 452.660156 C 618.21875 367.105469 525.632812 330.519531 492.039062 319.773438 C 490.828125 319.386719 489.695312 319.035156 488.644531 318.714844 C 483.058594 317.003906 479.769531 316.203125 479.570312 316.15625 C 479.367188 316.109375 479.179688 316.027344 479.007812 315.910156 C 478.707031 315.710938 478.488281 315.445312 478.359375 315.109375 C 478.226562 314.773438 478.203125 314.429688 478.285156 314.082031 C 478.296875 314.023438 478.316406 313.964844 478.335938 313.910156 C 478.402344 313.707031 478.507812 313.523438 478.644531 313.359375 C 478.78125 313.195312 478.941406 313.0625 479.128906 312.957031 C 479.316406 312.855469 479.519531 312.789062 479.730469 312.757812 C 479.941406 312.730469 480.152344 312.742188 480.359375 312.792969 C 481.667969 313.09375 611.757812 344.730469 660.699219 451.234375 C 683.714844 501.390625 686.800781 538.011719 669.835938 560.058594 Z M 669.835938 560.058594 " fill-opacity="1" fill-rule="nonzero"/><path fill="#000000" d="M 630.0625 494.980469 C 629.945312 495.332031 629.734375 495.621094 629.433594 495.835938 C 629.128906 496.054688 628.792969 496.164062 628.421875 496.167969 C 628.234375 496.167969 628.050781 496.136719 627.875 496.078125 C 627.195312 495.851562 560.726562 474.03125 517.070312 476.1875 C 516.265625 476.226562 515.46875 476.269531 514.679688 476.328125 C 514.453125 476.339844 514.230469 476.304688 514.015625 476.230469 C 513.800781 476.15625 513.609375 476.042969 513.4375 475.894531 C 513.265625 475.746094 513.125 475.570312 513.019531 475.367188 C 512.917969 475.164062 512.851562 474.953125 512.828125 474.726562 C 512.8125 474.496094 512.84375 474.273438 512.914062 474.054688 C 512.988281 473.835938 513.097656 473.640625 513.25 473.464844 C 513.402344 473.292969 513.578125 473.15625 513.785156 473.050781 C 513.992188 472.949219 514.207031 472.890625 514.4375 472.875 L 514.652344 472.875 C 529 471.878906 545.996094 473.601562 562.4375 476.390625 L 563.972656 476.65625 C 564.625 476.765625 565.277344 476.886719 565.929688 477.003906 C 571.300781 477.964844 576.570312 479.03125 581.664062 480.140625 C 607.726562 485.828125 628.59375 492.683594 628.972656 492.800781 C 629.1875 492.875 629.382812 492.984375 629.554688 493.136719 C 629.726562 493.285156 629.863281 493.464844 629.964844 493.667969 C 630.066406 493.871094 630.125 494.085938 630.144531 494.3125 C 630.160156 494.542969 630.132812 494.761719 630.0625 494.980469 Z M 630.0625 494.980469 " fill-opacity="1" fill-rule="nonzero"/><path fill="#000000" d="M 565.953125 478.425781 C 565.949219 478.65625 565.90625 478.875 565.816406 479.082031 C 565.726562 479.292969 565.601562 479.480469 565.441406 479.640625 C 565.277344 479.800781 565.089844 479.921875 564.882812 480.007812 C 564.671875 480.09375 564.449219 480.140625 564.222656 480.140625 L 564.203125 480.140625 C 563.972656 480.136719 563.753906 480.089844 563.542969 480 C 563.332031 479.910156 563.144531 479.78125 562.984375 479.617188 C 562.824219 479.453125 562.699219 479.261719 562.617188 479.050781 C 562.53125 478.835938 562.488281 478.613281 562.492188 478.386719 C 562.492188 477.773438 562.492188 477.105469 562.4375 476.375 C 561.4375 459.132812 547.125 410.074219 546.980469 409.5625 C 546.914062 409.34375 546.894531 409.121094 546.917969 408.894531 C 546.941406 408.664062 547.003906 408.453125 547.113281 408.25 C 547.21875 408.050781 547.363281 407.878906 547.539062 407.734375 C 547.714844 407.589844 547.914062 407.480469 548.128906 407.414062 L 548.152344 407.414062 C 548.253906 407.390625 548.355469 407.371094 548.460938 407.359375 C 548.875 407.320312 549.25 407.417969 549.59375 407.652344 C 549.933594 407.882812 550.164062 408.199219 550.28125 408.597656 L 550.429688 409.121094 C 552.101562 414.875 565.277344 460.648438 565.910156 476.996094 C 565.910156 477.171875 565.910156 477.34375 565.910156 477.515625 C 565.953125 477.824219 565.957031 478.132812 565.953125 478.425781 Z M 565.953125 478.425781 " fill-opacity="1" fill-rule="nonzero"/><path fill="#000000" d="M 603.84375 456.328125 L 580.320312 470.226562 C 580.121094 470.332031 579.914062 470.394531 579.691406 470.417969 C 579.46875 470.445312 579.253906 470.425781 579.039062 470.363281 C 578.824219 470.304688 578.628906 470.207031 578.453125 470.070312 C 578.277344 469.933594 578.132812 469.769531 578.019531 469.578125 C 577.90625 469.386719 577.832031 469.179688 577.796875 468.960938 C 577.765625 468.742188 577.773438 468.523438 577.824219 468.304688 C 577.875 468.089844 577.964844 467.890625 578.089844 467.707031 C 578.21875 467.523438 578.375 467.371094 578.5625 467.25 L 602.085938 453.34375 C 602.285156 453.226562 602.496094 453.148438 602.726562 453.113281 C 602.957031 453.078125 603.183594 453.089844 603.40625 453.148438 C 603.628906 453.203125 603.835938 453.300781 604.019531 453.441406 C 604.207031 453.578125 604.355469 453.746094 604.472656 453.945312 C 604.589844 454.144531 604.667969 454.359375 604.699219 454.589844 C 604.730469 454.816406 604.714844 455.042969 604.65625 455.269531 C 604.597656 455.492188 604.496094 455.695312 604.355469 455.878906 C 604.214844 456.0625 604.042969 456.210938 603.84375 456.328125 Z M 603.84375 456.328125 " fill-opacity="1" fill-rule="nonzero"/><path fill="#000000" d="M 539.335938 576.96875 C 539.171875 577.863281 538.933594 578.738281 538.621094 579.589844 C 536.703125 584.808594 532.25 588.167969 526.878906 588.175781 L 526.851562 588.175781 C 520.265625 588.175781 512.617188 582.804688 510.351562 570.859375 C 510.214844 570.132812 510.085938 569.421875 509.96875 568.722656 C 509.824219 567.957031 509.683594 567.214844 509.550781 566.5 C 509.101562 564.121094 508.6875 561.894531 508.296875 559.800781 C 508.070312 558.605469 507.859375 557.453125 507.648438 556.347656 L 507.617188 556.152344 C 502.8125 530.359375 501.886719 525.398438 492.097656 493.125 C 491.953125 492.636719 491.804688 492.144531 491.648438 491.644531 C 491.359375 490.6875 491.113281 489.765625 490.914062 488.878906 C 487.9375 475.933594 493.984375 470.8125 496.867188 469.15625 C 502.238281 466.085938 509.464844 467.144531 513.617188 471.652344 C 513.96875 472.035156 514.324219 472.441406 514.667969 472.863281 C 515.539062 473.925781 516.34375 475.035156 517.085938 476.191406 C 530.292969 496.476562 537.804688 543.679688 537.378906 564.414062 C 537.359375 565.371094 536.6875 566.054688 535.613281 566.109375 C 535.386719 566.105469 535.164062 566.054688 534.957031 565.964844 C 534.746094 565.871094 534.5625 565.742188 534.402344 565.578125 C 534.242188 565.410156 534.121094 565.222656 534.039062 565.007812 C 533.953125 564.792969 533.914062 564.570312 533.917969 564.34375 C 534.039062 558.785156 533.570312 551.410156 532.585938 543.238281 C 532.453125 542.101562 532.304688 540.953125 532.148438 539.785156 C 531.042969 531.511719 529.464844 522.585938 527.417969 513.96875 C 527.144531 512.808594 526.863281 511.65625 526.578125 510.515625 C 524.199219 501.046875 521.304688 492.097656 517.984375 485.027344 C 517.40625 483.792969 516.8125 482.613281 516.203125 481.496094 C 514.796875 478.800781 513.089844 476.308594 511.078125 474.03125 C 508.035156 470.734375 502.546875 469.921875 498.585938 472.191406 C 495.035156 474.226562 493.34375 478.214844 493.625 483.542969 C 493.691406 484.675781 493.828125 485.796875 494.039062 486.910156 C 494.277344 488.183594 494.585938 489.433594 494.964844 490.671875 C 497.6875 499.636719 499.75 506.558594 501.402344 512.386719 C 501.734375 513.535156 502.046875 514.664062 502.347656 515.746094 C 506.183594 529.675781 507.671875 537.59375 511.015625 555.550781 C 511.589844 558.644531 512.222656 562.039062 512.933594 565.816406 C 513.148438 566.953125 513.371094 568.125 513.597656 569.339844 L 513.769531 570.25 C 515.660156 580.269531 521.707031 584.75 526.867188 584.75 L 526.890625 584.75 C 531.457031 584.75 535.015625 581.453125 535.949219 576.375 C 535.988281 576.148438 536.070312 575.9375 536.195312 575.746094 C 536.320312 575.550781 536.476562 575.390625 536.667969 575.257812 C 536.855469 575.128906 537.0625 575.039062 537.289062 574.992188 C 537.515625 574.945312 537.742188 574.941406 537.964844 574.984375 C 538.191406 575.027344 538.402344 575.109375 538.59375 575.234375 C 538.789062 575.359375 538.949219 575.519531 539.078125 575.707031 C 539.207031 575.898438 539.296875 576.105469 539.34375 576.328125 C 539.390625 576.554688 539.394531 576.777344 539.351562 577.003906 Z M 539.335938 576.96875 " fill-opacity="1" fill-rule="nonzero"/><path fill="#000000" d="M 579.761719 584.632812 C 579.757812 584.75 579.734375 584.863281 579.703125 584.972656 L 578.835938 587.996094 C 578.742188 588.324219 578.570312 588.597656 578.3125 588.820312 C 578.058594 589.046875 577.761719 589.179688 577.425781 589.230469 C 530.917969 596.164062 505.769531 596.222656 495.117188 596.136719 C 492.117188 596.136719 489.574219 596.136719 489.011719 596.320312 C 488.828125 596.378906 488.644531 596.410156 488.453125 596.40625 C 488.019531 596.40625 487.636719 596.265625 487.300781 595.988281 C 487.144531 595.855469 487.019531 595.695312 486.917969 595.515625 C 486.878906 595.445312 486.847656 595.375 486.820312 595.300781 C 486.734375 595.09375 486.695312 594.882812 486.695312 594.660156 C 486.695312 594.441406 486.738281 594.230469 486.824219 594.023438 C 486.90625 593.820312 487.027344 593.640625 487.183594 593.484375 C 487.339844 593.328125 487.515625 593.207031 487.71875 593.121094 C 488.78125 592.671875 490.6875 592.667969 495.140625 592.675781 L 495.300781 592.675781 C 506.046875 592.730469 530.515625 592.675781 575.835938 585.960938 L 576.292969 584.371094 L 576.398438 584.007812 C 576.453125 583.804688 576.539062 583.621094 576.664062 583.453125 C 576.785156 583.285156 576.933594 583.144531 577.105469 583.027344 C 577.28125 582.914062 577.46875 582.835938 577.671875 582.789062 C 577.875 582.746094 578.078125 582.738281 578.285156 582.765625 C 578.371094 582.777344 578.453125 582.796875 578.535156 582.820312 C 578.929688 582.941406 579.242188 583.167969 579.46875 583.507812 C 579.703125 583.847656 579.796875 584.222656 579.761719 584.632812 Z M 579.761719 584.632812 " fill-opacity="1" fill-rule="nonzero"/><path fill="#000000" d="M 494.058594 492.511719 C 493.832031 492.824219 493.539062 493.035156 493.171875 493.144531 C 492.804688 493.257812 492.445312 493.25 492.082031 493.121094 C 491.921875 493.066406 491.773438 492.988281 491.636719 492.886719 L 491.539062 492.804688 C 488.019531 491.152344 450.753906 479.8125 426.734375 491.171875 C 416.234375 496.160156 409.769531 504.867188 407.523438 517.101562 C 406.886719 520.554688 407.328125 523.191406 408.792969 524.703125 C 410.066406 526.015625 412.15625 526.542969 414.6875 526.152344 C 420.503906 525.28125 423.511719 522.148438 426.425781 519.113281 C 429.335938 516.078125 432.25 512.949219 437.6875 513.238281 C 437.917969 513.25 438.136719 513.308594 438.34375 513.410156 C 438.550781 513.511719 438.730469 513.648438 438.882812 513.820312 C 439.035156 513.992188 439.148438 514.1875 439.226562 514.40625 C 439.300781 514.625 439.332031 514.847656 439.316406 515.078125 C 439.261719 516.03125 438.625 516.839844 437.488281 516.707031 C 437.269531 516.695312 437.046875 516.695312 436.824219 516.707031 C 433.429688 516.746094 431.546875 518.796875 428.921875 521.53125 C 425.917969 524.664062 422.179688 528.554688 415.199219 529.589844 C 414.511719 529.699219 413.816406 529.753906 413.117188 529.753906 C 410.34375 529.753906 407.972656 528.855469 406.308594 527.128906 C 404.71875 525.488281 403.050781 522.3125 404.117188 516.496094 C 407.390625 498.683594 418.695312 487.78125 437.703125 484.089844 C 457.75 480.214844 482.183594 485.625 490.898438 488.894531 C 492.742188 489.582031 493.882812 490.171875 494.125 490.554688 C 494.308594 490.859375 494.398438 491.1875 494.386719 491.542969 C 494.375 491.898438 494.265625 492.222656 494.058594 492.511719 Z M 494.058594 492.511719 " fill-opacity="1" fill-rule="nonzero"/><path fill="#000000" d="M 442.019531 514.558594 C 437.503906 522.367188 433.234375 529.753906 434.867188 535.234375 C 435.675781 537.992188 437.933594 540.300781 441.820312 542.289062 C 442.175781 542.472656 442.4375 542.746094 442.605469 543.109375 C 442.769531 543.472656 442.804688 543.847656 442.710938 544.234375 C 442.617188 544.625 442.414062 544.941406 442.101562 545.1875 C 441.789062 545.4375 441.429688 545.558594 441.03125 545.558594 C 440.753906 545.558594 440.488281 545.496094 440.242188 545.367188 C 435.484375 542.921875 432.636719 539.925781 431.546875 536.214844 C 429.828125 530.363281 432.886719 523.71875 436.839844 516.679688 C 437.417969 515.648438 438.015625 514.609375 438.617188 513.5625 L 439.042969 512.832031 C 440.285156 510.675781 441.558594 508.480469 442.761719 506.234375 C 442.867188 506.023438 443.007812 505.84375 443.183594 505.691406 C 443.363281 505.539062 443.5625 505.425781 443.789062 505.355469 C 444.011719 505.285156 444.238281 505.261719 444.472656 505.28125 C 444.707031 505.304688 444.925781 505.371094 445.132812 505.480469 C 445.339844 505.589844 445.515625 505.738281 445.660156 505.921875 C 445.808594 506.105469 445.914062 506.308594 445.976562 506.53125 C 446.039062 506.757812 446.058594 506.988281 446.027344 507.21875 C 446 507.453125 445.925781 507.671875 445.808594 507.871094 C 444.570312 510.148438 443.28125 512.394531 442.019531 514.558594 Z M 442.019531 514.558594 " fill-opacity="1" fill-rule="nonzero"/><path fill="#000000" d="M 465.0625 562.753906 C 465.074219 563.128906 464.972656 563.46875 464.761719 563.777344 C 464.546875 564.089844 464.265625 564.304688 463.910156 564.429688 C 463.742188 564.492188 463.566406 564.523438 463.386719 564.527344 C 462.953125 564.527344 462.527344 564.527344 462.105469 564.527344 C 453.003906 564.527344 446.875 562.03125 443.875 557.105469 C 441.8125 553.71875 441.476562 549.527344 442.101562 545.164062 C 442.210938 544.414062 442.335938 543.664062 442.484375 542.914062 C 444.226562 534.679688 448.871094 526.203125 451.417969 521.558594 C 451.957031 520.574219 452.398438 519.777344 452.679688 519.203125 C 452.789062 519.011719 452.929688 518.84375 453.101562 518.707031 C 453.277344 518.566406 453.46875 518.464844 453.679688 518.398438 C 453.890625 518.335938 454.105469 518.3125 454.328125 518.328125 C 454.546875 518.347656 454.757812 518.40625 454.957031 518.503906 C 455.15625 518.601562 455.328125 518.734375 455.476562 518.898438 C 455.625 519.0625 455.734375 519.25 455.8125 519.457031 C 455.886719 519.664062 455.921875 519.878906 455.917969 520.101562 C 455.910156 520.324219 455.863281 520.535156 455.777344 520.738281 C 455.476562 521.339844 455.011719 522.175781 454.453125 523.210938 C 450.617188 530.238281 441.578125 546.695312 446.8125 555.292969 C 449.242188 559.28125 454.757812 561.195312 463.085938 561.050781 L 463.324219 561.050781 C 463.550781 561.050781 463.773438 561.089844 463.984375 561.175781 C 464.195312 561.261719 464.382812 561.386719 464.542969 561.542969 C 464.707031 561.703125 464.832031 561.886719 464.921875 562.097656 C 465.011719 562.308594 465.058594 562.527344 465.0625 562.753906 Z M 465.0625 562.753906 " fill-opacity="1" fill-rule="nonzero"/><path fill="#000000" d="M 494.574219 559.589844 C 494.574219 559.703125 494.542969 559.820312 494.523438 559.972656 C 494.121094 562.65625 492.746094 568.492188 488.171875 571.964844 C 485.769531 573.789062 482.871094 574.707031 479.511719 574.707031 C 478.523438 574.703125 477.535156 574.628906 476.554688 574.484375 C 471.652344 573.773438 467.992188 571.640625 465.671875 568.128906 C 464.921875 566.976562 464.332031 565.746094 463.902344 564.441406 C 463.535156 563.34375 463.269531 562.226562 463.09375 561.085938 C 461.945312 553.761719 464.164062 545.429688 465.398438 540.804688 C 465.632812 539.898438 465.832031 539.179688 465.925781 538.699219 C 465.976562 538.480469 466.066406 538.277344 466.195312 538.089844 C 466.324219 537.90625 466.484375 537.75 466.671875 537.628906 C 466.863281 537.507812 467.070312 537.421875 467.289062 537.382812 C 467.511719 537.339844 467.734375 537.339844 467.957031 537.382812 C 468.175781 537.429688 468.382812 537.515625 468.570312 537.640625 C 468.757812 537.761719 468.917969 537.917969 469.042969 538.105469 C 469.171875 538.292969 469.257812 538.496094 469.304688 538.71875 C 469.355469 538.9375 469.359375 539.160156 469.316406 539.382812 C 469.210938 539.90625 469.003906 540.703125 468.738281 541.683594 C 467.332031 546.972656 464.035156 559.359375 468.558594 566.210938 C 470.335938 568.898438 473.109375 570.476562 477.050781 571.046875 C 480.730469 571.578125 483.765625 570.957031 486.082031 569.199219 C 489.378906 566.699219 490.574219 562.4375 491 560.035156 C 491.0625 559.703125 491.105469 559.402344 491.140625 559.152344 C 491.167969 558.921875 491.242188 558.707031 491.355469 558.507812 C 491.472656 558.308594 491.621094 558.136719 491.800781 557.996094 C 491.984375 557.855469 492.1875 557.753906 492.410156 557.691406 C 492.632812 557.632812 492.859375 557.617188 493.089844 557.648438 C 493.316406 557.675781 493.53125 557.75 493.730469 557.863281 C 493.933594 557.976562 494.101562 558.125 494.246094 558.308594 C 494.386719 558.492188 494.484375 558.695312 494.546875 558.917969 C 494.605469 559.140625 494.621094 559.367188 494.59375 559.597656 Z M 494.574219 559.589844 " fill-opacity="1" fill-rule="nonzero"/><path fill="#000000" d="M 511.023438 558.054688 C 511.023438 558.28125 510.980469 558.503906 510.894531 558.714844 C 510.808594 558.929688 510.683594 559.117188 510.523438 559.28125 C 510.363281 559.445312 510.175781 559.570312 509.964844 559.660156 C 509.753906 559.75 509.535156 559.792969 509.304688 559.796875 L 508.28125 559.796875 C 501.492188 559.835938 497.984375 559.886719 494.523438 559.957031 L 491 560.03125 L 490.101562 560.054688 L 480.195312 560.269531 L 480.164062 560.269531 C 479.945312 560.257812 479.738281 560.207031 479.539062 560.113281 C 479.339844 560.023438 479.164062 559.898438 479.011719 559.738281 C 478.859375 559.578125 478.742188 559.398438 478.660156 559.195312 C 478.578125 558.992188 478.535156 558.78125 478.53125 558.5625 C 478.53125 558.339844 478.566406 558.128906 478.644531 557.921875 C 478.726562 557.71875 478.839844 557.535156 478.988281 557.375 C 479.136719 557.210938 479.308594 557.082031 479.507812 556.988281 C 479.703125 556.890625 479.910156 556.835938 480.132812 556.816406 L 490.023438 556.601562 C 495.484375 556.480469 498.539062 556.40625 507.632812 556.347656 L 509.285156 556.347656 C 509.511719 556.34375 509.734375 556.386719 509.945312 556.472656 C 510.15625 556.558594 510.34375 556.683594 510.503906 556.84375 C 510.667969 557 510.792969 557.1875 510.882812 557.394531 C 510.972656 557.605469 511.019531 557.824219 511.023438 558.054688 Z M 511.023438 558.054688 " fill-opacity="1" fill-rule="nonzero"/><path fill="#000000" d="M 519.324219 483.464844 C 519.285156 483.839844 519.140625 484.167969 518.890625 484.449219 C 518.644531 484.734375 518.335938 484.917969 517.96875 485 C 517.792969 485.039062 517.621094 485.054688 517.441406 485.039062 C 508.511719 484.210938 497.542969 485.710938 494.777344 486.773438 C 494.578125 486.847656 494.371094 486.886719 494.15625 486.886719 L 494.023438 486.886719 C 493.621094 486.859375 493.269531 486.703125 492.976562 486.429688 C 492.679688 486.152344 492.5 485.8125 492.441406 485.414062 C 492.382812 485.011719 492.457031 484.636719 492.664062 484.285156 C 492.867188 483.9375 493.160156 483.691406 493.539062 483.546875 L 493.609375 483.519531 C 497.035156 482.242188 507.5625 480.933594 516.1875 481.472656 C 516.722656 481.507812 517.242188 481.546875 517.757812 481.597656 C 517.984375 481.617188 518.199219 481.679688 518.402344 481.789062 C 518.601562 481.894531 518.777344 482.035156 518.925781 482.207031 C 519.070312 482.382812 519.179688 482.582031 519.246094 482.796875 C 519.316406 483.015625 519.339844 483.238281 519.324219 483.464844 Z M 519.324219 483.464844 " fill-opacity="1" fill-rule="nonzero"/><path fill="#000000" d="M 529.535156 512.21875 C 529.535156 512.449219 529.492188 512.667969 529.402344 512.878906 C 529.3125 513.09375 529.1875 513.277344 529.027344 513.441406 C 528.863281 513.601562 528.679688 513.726562 528.464844 513.8125 C 528.253906 513.902344 528.035156 513.945312 527.804688 513.945312 L 525.65625 513.945312 C 516.449219 513.90625 515.429688 513.921875 502.332031 515.714844 L 501.023438 515.894531 C 500.945312 515.902344 500.863281 515.902344 500.785156 515.894531 C 500.558594 515.910156 500.332031 515.882812 500.117188 515.808594 C 499.898438 515.734375 499.703125 515.625 499.53125 515.472656 C 499.359375 515.320312 499.21875 515.144531 499.117188 514.9375 C 499.015625 514.734375 498.957031 514.515625 498.941406 514.285156 C 498.925781 514.058594 498.957031 513.835938 499.027344 513.617188 C 499.101562 513.398438 499.214844 513.203125 499.363281 513.03125 C 499.515625 512.859375 499.695312 512.722656 499.898438 512.617188 C 500.105469 512.515625 500.324219 512.457031 500.550781 512.441406 L 501.386719 512.328125 C 515.179688 510.433594 516.285156 510.429688 525.660156 510.457031 L 527.808594 510.457031 C 528.042969 510.460938 528.265625 510.503906 528.476562 510.59375 C 528.691406 510.683594 528.878906 510.8125 529.042969 510.976562 C 529.203125 511.144531 529.328125 511.332031 529.414062 511.550781 C 529.5 511.765625 529.539062 511.988281 529.535156 512.21875 Z M 529.535156 512.21875 " fill-opacity="1" fill-rule="nonzero"/><path fill="#000000" d="M 535.144531 541.9375 C 534.761719 542.527344 534.640625 542.707031 532.570312 543.226562 C 531.785156 543.425781 530.71875 543.679688 529.25 544.027344 L 520.261719 546.1875 C 520.128906 546.222656 519.992188 546.238281 519.851562 546.238281 C 519.640625 546.242188 519.433594 546.203125 519.234375 546.128906 C 519.035156 546.054688 518.855469 545.945312 518.695312 545.804688 C 518.535156 545.664062 518.40625 545.5 518.308594 545.3125 C 518.210938 545.125 518.148438 544.925781 518.125 544.714844 C 518.097656 544.503906 518.109375 544.292969 518.164062 544.085938 C 518.214844 543.882812 518.300781 543.691406 518.421875 543.515625 C 518.546875 543.34375 518.695312 543.195312 518.871094 543.078125 C 519.046875 542.957031 519.238281 542.871094 519.445312 542.824219 L 528.445312 540.664062 C 530.210938 540.246094 531.441406 539.953125 532.132812 539.773438 L 532.605469 539.644531 C 532.765625 539.507812 532.945312 539.40625 533.140625 539.339844 C 533.339844 539.269531 533.542969 539.234375 533.75 539.242188 C 533.960938 539.246094 534.160156 539.285156 534.355469 539.363281 C 534.550781 539.4375 534.722656 539.546875 534.878906 539.6875 C 535.035156 539.828125 535.160156 539.992188 535.253906 540.175781 C 535.351562 540.363281 535.410156 540.558594 535.433594 540.765625 C 535.460938 540.972656 535.445312 541.179688 535.398438 541.382812 C 535.347656 541.585938 535.265625 541.773438 535.144531 541.945312 Z M 535.144531 541.9375 " fill-opacity="1" fill-rule="nonzero"/><path fill="#000000" d="M 528.417969 567.605469 C 528.421875 567.832031 528.386719 568.054688 528.304688 568.269531 C 528.226562 568.484375 528.105469 568.675781 527.949219 568.84375 C 527.792969 569.011719 527.613281 569.144531 527.402344 569.238281 C 527.195312 569.335938 526.976562 569.386719 526.746094 569.394531 L 524.917969 569.457031 C 522.550781 569.539062 521.027344 569.59375 519.613281 569.59375 C 517.878906 569.59375 516.316406 569.511719 513.582031 569.304688 L 510.894531 569.089844 C 510.667969 569.070312 510.453125 569.007812 510.246094 568.90625 C 510.042969 568.800781 509.867188 568.660156 509.71875 568.488281 C 509.570312 568.3125 509.460938 568.117188 509.390625 567.898438 C 509.320312 567.679688 509.292969 567.457031 509.3125 567.226562 C 509.332031 566.964844 509.410156 566.722656 509.546875 566.5 C 509.714844 566.214844 509.945312 565.996094 510.238281 565.839844 C 510.53125 565.6875 510.84375 565.621094 511.171875 565.644531 L 512.929688 565.78125 C 518.496094 566.222656 519.285156 566.195312 524.804688 566 L 526.636719 565.933594 C 526.863281 565.933594 527.082031 565.976562 527.292969 566.058594 C 527.503906 566.140625 527.691406 566.261719 527.855469 566.417969 C 528.023438 566.570312 528.152344 566.75 528.25 566.957031 C 528.347656 567.160156 528.402344 567.378906 528.417969 567.605469 Z M 528.417969 567.605469 " fill-opacity="1" fill-rule="nonzero"/><path fill="#000000" d="M 492.089844 318.71875 C 492.089844 319.039062 492.046875 319.382812 492.019531 319.753906 C 491.277344 329.605469 487.414062 356.722656 467.8125 360.429688 C 466.464844 360.683594 465.101562 360.8125 463.726562 360.8125 C 454.492188 360.8125 442.242188 354.902344 430.34375 331.15625 C 430.066406 330.597656 429.859375 330.183594 429.726562 329.949219 C 429.617188 329.75 429.546875 329.535156 429.519531 329.308594 C 429.492188 329.082031 429.511719 328.859375 429.574219 328.636719 C 429.632812 328.417969 429.734375 328.214844 429.878906 328.035156 C 430.019531 327.855469 430.1875 327.710938 430.390625 327.597656 C 430.589844 327.484375 430.800781 327.414062 431.027344 327.386719 C 431.257812 327.359375 431.480469 327.375 431.703125 327.4375 C 431.921875 327.5 432.121094 327.601562 432.304688 327.742188 C 432.484375 327.882812 432.628906 328.050781 432.742188 328.25 C 432.800781 328.355469 432.878906 328.496094 432.964844 328.667969 C 433.09375 328.914062 433.25 329.234375 433.4375 329.605469 C 437.171875 337.046875 440.886719 342.617188 444.480469 346.730469 C 445.347656 347.71875 446.203125 348.621094 447.046875 349.4375 C 454.789062 356.980469 461.847656 358.042969 467.167969 357.027344 C 469.480469 356.597656 471.632812 355.757812 473.621094 354.5 C 474.605469 353.871094 475.53125 353.164062 476.394531 352.375 C 481.824219 347.4375 484.871094 339.617188 486.578125 332.503906 C 486.867188 331.285156 487.125 330.085938 487.34375 328.925781 C 487.980469 325.542969 488.414062 322.132812 488.640625 318.695312 L 488.640625 318.503906 C 488.671875 318.023438 488.867188 317.617188 489.222656 317.292969 C 489.574219 316.957031 489.996094 316.820312 490.480469 316.886719 C 490.707031 316.898438 490.925781 316.957031 491.132812 317.058594 C 491.335938 317.160156 491.515625 317.296875 491.667969 317.46875 C 491.820312 317.640625 491.933594 317.832031 492.007812 318.050781 C 492.078125 318.269531 492.109375 318.492188 492.09375 318.71875 Z M 492.089844 318.71875 " fill-opacity="1" fill-rule="nonzero"/><path fill="#000000" d="M 475.15625 355.484375 C 474.835938 355.484375 474.542969 355.402344 474.273438 355.242188 C 474 355.078125 473.789062 354.859375 473.640625 354.582031 L 467.15625 342.714844 C 467.042969 342.515625 466.96875 342.296875 466.9375 342.066406 C 466.910156 341.835938 466.925781 341.605469 466.988281 341.382812 C 467.050781 341.15625 467.15625 340.953125 467.300781 340.769531 C 467.449219 340.585938 467.625 340.441406 467.828125 340.328125 C 468.035156 340.21875 468.253906 340.148438 468.484375 340.125 C 468.714844 340.105469 468.945312 340.125 469.167969 340.195312 C 469.390625 340.265625 469.589844 340.375 469.769531 340.523438 C 469.949219 340.675781 470.089844 340.855469 470.195312 341.0625 L 476.6875 352.925781 C 476.800781 353.128906 476.867188 353.34375 476.890625 353.570312 C 476.914062 353.796875 476.894531 354.023438 476.828125 354.242188 C 476.765625 354.460938 476.660156 354.660156 476.515625 354.839844 C 476.371094 355.015625 476.199219 355.160156 476 355.269531 C 475.734375 355.417969 475.453125 355.488281 475.15625 355.484375 Z M 475.15625 355.484375 " fill-opacity="1" fill-rule="nonzero"/><path fill="#000000" d="M 488.367188 333.304688 C 488.046875 333.304688 487.75 333.21875 487.476562 333.054688 L 478.316406 327.542969 C 478.117188 327.425781 477.953125 327.273438 477.816406 327.089844 C 477.679688 326.90625 477.582031 326.703125 477.527344 326.480469 C 477.46875 326.257812 477.460938 326.03125 477.492188 325.804688 C 477.527344 325.578125 477.601562 325.363281 477.722656 325.167969 C 477.839844 324.96875 477.992188 324.804688 478.175781 324.667969 C 478.363281 324.53125 478.566406 324.433594 478.789062 324.378906 C 479.011719 324.324219 479.238281 324.3125 479.464844 324.347656 C 479.691406 324.382812 479.902344 324.460938 480.101562 324.578125 L 489.257812 330.089844 C 489.59375 330.289062 489.832031 330.570312 489.976562 330.929688 C 490.121094 331.292969 490.140625 331.660156 490.039062 332.035156 C 489.933594 332.414062 489.726562 332.71875 489.414062 332.953125 C 489.105469 333.1875 488.753906 333.304688 488.367188 333.304688 Z M 488.367188 333.304688 " fill-opacity="1" fill-rule="nonzero"/><path fill="#000000" d="M 445.519531 350.367188 C 445.375 350.367188 445.234375 350.347656 445.09375 350.3125 C 444.953125 350.277344 444.820312 350.226562 444.691406 350.15625 C 444.566406 350.085938 444.449219 350.003906 444.34375 349.90625 C 444.238281 349.804688 444.144531 349.695312 444.066406 349.574219 C 443.988281 349.453125 443.925781 349.324219 443.878906 349.1875 C 443.832031 349.050781 443.804688 348.910156 443.792969 348.765625 C 443.785156 348.621094 443.792969 348.476562 443.816406 348.335938 C 443.84375 348.191406 443.882812 348.054688 443.945312 347.921875 L 449.34375 336.027344 C 449.441406 335.828125 449.578125 335.652344 449.746094 335.503906 C 449.910156 335.355469 450.101562 335.246094 450.3125 335.171875 C 450.523438 335.097656 450.742188 335.0625 450.964844 335.074219 C 451.1875 335.082031 451.402344 335.132812 451.605469 335.226562 C 451.808594 335.316406 451.988281 335.445312 452.140625 335.605469 C 452.296875 335.769531 452.414062 335.953125 452.5 336.160156 C 452.582031 336.371094 452.621094 336.585938 452.621094 336.808594 C 452.621094 337.03125 452.578125 337.25 452.492188 337.457031 L 447.09375 349.351562 C 446.957031 349.660156 446.742188 349.90625 446.457031 350.089844 C 446.171875 350.277344 445.859375 350.367188 445.519531 350.367188 Z M 445.519531 350.367188 " fill-opacity="1" fill-rule="nonzero"/><path fill="#000000" d="M 475.070312 472.027344 C 474.976562 472.238281 474.84375 472.421875 474.675781 472.578125 C 474.507812 472.738281 474.3125 472.855469 474.097656 472.9375 C 473.882812 473.019531 473.660156 473.054688 473.429688 473.046875 C 473.199219 473.039062 472.976562 472.988281 472.769531 472.890625 C 419.707031 448.90625 399.949219 417.234375 392.492188 405.296875 C 391.777344 404.148438 391.175781 403.179688 390.675781 402.4375 C 390.527344 402.25 390.425781 402.039062 390.363281 401.804688 C 390.304688 401.574219 390.296875 401.339844 390.332031 401.101562 C 390.371094 400.863281 390.457031 400.644531 390.585938 400.441406 C 390.714844 400.242188 390.878906 400.074219 391.078125 399.9375 C 391.28125 399.804688 391.496094 399.71875 391.734375 399.675781 C 391.96875 399.632812 392.207031 399.636719 392.4375 399.695312 C 392.671875 399.75 392.886719 399.847656 393.078125 399.992188 C 393.269531 400.136719 393.425781 400.3125 393.542969 400.519531 C 394.0625 401.289062 394.695312 402.289062 395.433594 403.480469 C 402.722656 415.167969 422.089844 446.199219 474.207031 469.753906 C 474.414062 469.847656 474.59375 469.976562 474.75 470.144531 C 474.90625 470.308594 475.023438 470.5 475.105469 470.710938 C 475.183594 470.925781 475.222656 471.144531 475.214844 471.375 C 475.210938 471.601562 475.160156 471.820312 475.070312 472.027344 Z M 475.070312 472.027344 " fill-opacity="1" fill-rule="nonzero"/><path fill="#000000" d="M 366.269531 407.320312 L 350.855469 499.199219 C 350.84375 499.261719 350.832031 499.324219 350.8125 499.382812 C 350.707031 499.753906 350.5 500.058594 350.195312 500.292969 C 349.886719 500.527344 349.539062 500.644531 349.152344 500.644531 C 349.054688 500.644531 348.957031 500.636719 348.859375 500.621094 C 348.632812 500.582031 348.421875 500.503906 348.226562 500.378906 C 348.035156 500.257812 347.871094 500.105469 347.738281 499.917969 C 347.605469 499.730469 347.511719 499.523438 347.460938 499.300781 C 347.410156 499.078125 347.402344 498.851562 347.4375 498.625 L 348.25 493.808594 L 348.328125 493.320312 L 360.992188 417.796875 L 362.84375 406.75 C 362.886719 406.523438 362.96875 406.316406 363.09375 406.125 C 363.214844 405.933594 363.371094 405.769531 363.554688 405.636719 C 363.742188 405.503906 363.945312 405.414062 364.164062 405.359375 C 364.386719 405.304688 364.609375 405.296875 364.835938 405.328125 C 365.0625 405.363281 365.277344 405.441406 365.472656 405.5625 C 365.667969 405.683594 365.835938 405.835938 365.96875 406.023438 C 366.105469 406.210938 366.199219 406.417969 366.25 406.640625 C 366.300781 406.867188 366.308594 407.09375 366.269531 407.320312 Z M 366.269531 407.320312 " fill-opacity="1" fill-rule="nonzero"/><g clip-path="url(#66dcc78d07)"><path fill="#000000" d="M 403.785156 628.785156 L 403.402344 627.886719 L 403.109375 627.171875 L 401.464844 623.144531 L 380.023438 570.753906 L 379.746094 570.078125 L 378.191406 566.28125 L 350.8125 499.382812 L 350.042969 497.523438 L 348.320312 493.304688 L 341.242188 476.03125 L 328.964844 446.046875 C 328.835938 445.734375 328.632812 445.480469 328.355469 445.285156 C 328.074219 445.09375 327.769531 444.988281 327.429688 444.976562 L 297.160156 443.542969 L 295.898438 443.480469 L 293.519531 443.367188 L 110.109375 434.667969 C 109.980469 434.648438 109.851562 434.648438 109.722656 434.667969 C 109.226562 434.75 108.839844 435.003906 108.574219 435.433594 C 108.402344 435.683594 108.308594 435.960938 108.28125 436.261719 C 108.257812 436.5625 108.308594 436.851562 108.433594 437.125 L 109.71875 439.925781 L 185.476562 604.917969 C 185.601562 605.195312 185.785156 605.417969 186.027344 605.597656 C 186.273438 605.773438 186.542969 605.882812 186.84375 605.917969 L 401.863281 631.179688 L 401.941406 631.179688 C 402 631.183594 402.058594 631.183594 402.117188 631.179688 C 402.234375 631.179688 402.347656 631.167969 402.460938 631.140625 L 402.550781 631.140625 C 402.59375 631.132812 402.636719 631.121094 402.679688 631.101562 L 402.777344 631.0625 L 402.882812 631.019531 C 403.128906 630.898438 403.332031 630.730469 403.496094 630.515625 C 403.695312 630.273438 403.824219 630 403.875 629.691406 C 403.925781 629.378906 403.898438 629.078125 403.785156 628.785156 Z M 326.199219 448.378906 L 387.78125 598.839844 L 389.976562 604.210938 L 389.976562 604.242188 L 399.449219 627.382812 L 188.269531 602.5625 L 112.824219 438.253906 Z M 326.199219 448.378906 " fill-opacity="1" fill-rule="nonzero"/></g><g clip-path="url(#90986749f7)"><path fill="#000000" d="M 498.65625 591.285156 L 495.28125 592.6875 L 490.242188 594.777344 L 487.289062 596 L 402.941406 630.992188 L 402.835938 631.039062 L 402.738281 631.074219 C 402.695312 631.09375 402.652344 631.105469 402.609375 631.113281 L 402.519531 631.113281 C 402.40625 631.140625 402.289062 631.152344 402.175781 631.152344 C 402.117188 631.15625 402.058594 631.15625 401.996094 631.152344 L 401.921875 631.152344 C 401.597656 631.105469 401.308594 630.976562 401.058594 630.765625 C 400.808594 630.554688 400.632812 630.292969 400.53125 629.980469 C 400.429688 629.671875 400.414062 629.355469 400.492188 629.035156 C 400.566406 628.71875 400.722656 628.445312 400.953125 628.214844 C 401.113281 628.046875 401.300781 627.917969 401.511719 627.828125 L 403.113281 627.160156 L 403.816406 626.875 L 425.226562 617.992188 L 491.894531 590.332031 L 379.746094 570.066406 L 379.363281 570 L 378.292969 569.804688 L 376.636719 569.507812 C 376.410156 569.464844 376.199219 569.382812 376.007812 569.257812 C 375.8125 569.136719 375.652344 568.980469 375.519531 568.789062 C 375.390625 568.601562 375.300781 568.394531 375.25 568.171875 C 375.203125 567.945312 375.199219 567.722656 375.238281 567.496094 C 375.28125 567.273438 375.367188 567.0625 375.492188 566.871094 C 375.617188 566.679688 375.773438 566.519531 375.960938 566.390625 C 376.148438 566.257812 376.351562 566.167969 376.574219 566.117188 C 376.800781 566.066406 377.023438 566.0625 377.25 566.097656 L 378.179688 566.269531 L 498.28125 587.96875 C 498.65625 588.039062 498.976562 588.214844 499.234375 588.496094 C 499.496094 588.777344 499.648438 589.109375 499.6875 589.488281 C 499.730469 589.871094 499.652344 590.226562 499.457031 590.554688 C 499.265625 590.886719 498.988281 591.125 498.636719 591.273438 Z M 498.65625 591.285156 " fill-opacity="1" fill-rule="nonzero"/></g><path fill="#000000" d="M 260.90625 380.332031 C 260.289062 380.332031 259.808594 380.074219 259.464844 379.5625 C 255.265625 373.21875 244.296875 354.523438 245.914062 334.875 C 229.234375 324.722656 213.796875 296.828125 223.367188 271.398438 C 223.445312 271.179688 223.5625 270.988281 223.71875 270.820312 C 223.875 270.652344 224.054688 270.519531 224.265625 270.425781 C 224.476562 270.328125 224.695312 270.277344 224.925781 270.273438 C 225.15625 270.265625 225.375 270.304688 225.589844 270.386719 C 225.804688 270.46875 225.996094 270.585938 226.164062 270.742188 C 226.332031 270.902344 226.460938 271.082031 226.558594 271.292969 C 226.652344 271.5 226.703125 271.71875 226.710938 271.949219 C 226.71875 272.175781 226.679688 272.398438 226.601562 272.613281 C 218.046875 295.34375 231.589844 321.023438 246.398438 331.054688 C 247.148438 326.535156 248.605469 322.253906 250.761719 318.210938 C 256.167969 308.109375 263.339844 307.007812 267.84375 309.117188 C 272.90625 311.5 276.285156 318.875 272.613281 327.859375 C 268.632812 337.578125 260.445312 341.105469 250.742188 337.28125 C 250.253906 337.089844 249.765625 336.898438 249.277344 336.65625 C 248.394531 354.660156 258.460938 371.753906 262.359375 377.648438 C 262.488281 377.839844 262.574219 378.046875 262.617188 378.273438 C 262.660156 378.5 262.660156 378.726562 262.613281 378.949219 C 262.570312 379.175781 262.480469 379.382812 262.351562 379.574219 C 262.226562 379.765625 262.066406 379.921875 261.875 380.050781 C 261.582031 380.242188 261.257812 380.335938 260.90625 380.332031 Z M 249.601562 332.964844 C 250.382812 333.371094 251.179688 333.734375 251.992188 334.054688 C 256.597656 335.859375 265.007812 337.304688 269.410156 326.539062 C 272.285156 319.53125 269.988281 313.941406 266.371094 312.238281 C 263.234375 310.761719 258.066406 311.878906 253.820312 319.832031 C 251.621094 323.957031 250.214844 328.332031 249.601562 332.964844 Z M 249.601562 332.964844 " fill-opacity="1" fill-rule="nonzero"/><path fill="#000000" d="M 589.230469 334.234375 C 588.921875 334.234375 588.636719 334.160156 588.371094 334.011719 C 588.171875 333.894531 588 333.746094 587.859375 333.566406 C 587.71875 333.382812 587.617188 333.183594 587.558594 332.960938 C 587.496094 332.738281 587.480469 332.515625 587.511719 332.289062 C 587.539062 332.058594 587.609375 331.847656 587.726562 331.644531 L 598.722656 312.347656 C 598.835938 312.144531 598.980469 311.976562 599.164062 311.832031 C 599.34375 311.691406 599.546875 311.589844 599.769531 311.53125 C 599.992188 311.46875 600.214844 311.453125 600.445312 311.480469 C 600.671875 311.507812 600.886719 311.582031 601.085938 311.695312 C 601.285156 311.808594 601.457031 311.957031 601.597656 312.136719 C 601.738281 312.320312 601.839844 312.523438 601.898438 312.746094 C 601.960938 312.964844 601.976562 313.191406 601.945312 313.417969 C 601.917969 313.648438 601.84375 313.863281 601.730469 314.0625 L 590.730469 333.367188 C 590.574219 333.632812 590.363281 333.847656 590.097656 334 C 589.828125 334.15625 589.539062 334.234375 589.230469 334.234375 Z M 589.230469 334.234375 " fill-opacity="1" fill-rule="nonzero"/><path fill="#000000" d="M 614.703125 351.941406 C 614.351562 351.941406 614.03125 351.839844 613.738281 351.644531 C 613.445312 351.449219 613.234375 351.1875 613.101562 350.859375 C 612.96875 350.535156 612.941406 350.199219 613.011719 349.855469 C 613.085938 349.511719 613.246094 349.214844 613.496094 348.96875 L 618.347656 344.246094 C 618.511719 344.085938 618.703125 343.964844 618.914062 343.878906 C 619.128906 343.792969 619.351562 343.753906 619.578125 343.757812 C 619.808594 343.761719 620.027344 343.808594 620.238281 343.898438 C 620.449219 343.988281 620.636719 344.117188 620.796875 344.28125 C 620.957031 344.445312 621.078125 344.636719 621.164062 344.847656 C 621.25 345.0625 621.289062 345.28125 621.285156 345.511719 C 621.28125 345.742188 621.234375 345.960938 621.144531 346.171875 C 621.054688 346.382812 620.925781 346.570312 620.761719 346.730469 L 615.910156 351.449219 C 615.574219 351.777344 615.171875 351.941406 614.703125 351.941406 Z M 614.703125 351.941406 " fill-opacity="1" fill-rule="nonzero"/><path fill="#000000" d="M 629.695312 368.277344 C 629.484375 368.277344 629.285156 368.238281 629.089844 368.167969 C 628.894531 368.09375 628.71875 367.988281 628.5625 367.851562 C 628.40625 367.714844 628.277344 367.554688 628.179688 367.371094 C 628.082031 367.1875 628.015625 366.992188 627.988281 366.789062 C 627.960938 366.582031 627.96875 366.378906 628.011719 366.175781 C 628.058594 365.972656 628.136719 365.78125 628.25 365.609375 C 628.363281 365.433594 628.5 365.285156 628.667969 365.160156 C 628.835938 365.035156 629.019531 364.945312 629.21875 364.886719 L 649.523438 359.085938 C 649.742188 359.027344 649.964844 359.011719 650.1875 359.042969 C 650.414062 359.074219 650.621094 359.144531 650.820312 359.253906 C 651.015625 359.367188 651.183594 359.511719 651.324219 359.691406 C 651.464844 359.867188 651.5625 360.066406 651.625 360.28125 C 651.6875 360.5 651.707031 360.722656 651.683594 360.945312 C 651.65625 361.171875 651.59375 361.382812 651.484375 361.582031 C 651.378906 361.78125 651.234375 361.953125 651.0625 362.09375 C 650.886719 362.238281 650.691406 362.34375 650.476562 362.410156 L 630.167969 368.210938 C 630.015625 368.257812 629.855469 368.28125 629.695312 368.277344 Z M 629.695312 368.277344 " fill-opacity="1" fill-rule="nonzero"/><path fill="#000000" d="M 671.628906 585.558594 C 671.246094 585.558594 670.902344 585.449219 670.59375 585.222656 C 670.285156 584.996094 670.074219 584.699219 669.960938 584.332031 C 669.851562 583.964844 669.859375 583.601562 669.992188 583.242188 C 670.121094 582.882812 670.347656 582.597656 670.664062 582.386719 C 676.972656 578.277344 691.910156 566.976562 694.886719 550.59375 C 694.925781 550.367188 695.007812 550.160156 695.132812 549.964844 C 695.257812 549.773438 695.414062 549.609375 695.605469 549.480469 C 695.792969 549.351562 696 549.261719 696.222656 549.210938 C 696.449219 549.164062 696.671875 549.160156 696.898438 549.203125 C 697.125 549.242188 697.335938 549.324219 697.527344 549.449219 C 697.71875 549.574219 697.882812 549.730469 698.011719 549.921875 C 698.144531 550.109375 698.234375 550.316406 698.28125 550.539062 C 698.328125 550.765625 698.332031 550.988281 698.292969 551.214844 C 695.078125 568.921875 679.238281 580.933594 672.585938 585.273438 C 672.292969 585.460938 671.976562 585.558594 671.628906 585.558594 Z M 671.628906 585.558594 " fill-opacity="1" fill-rule="nonzero"/><path fill="#000000" d="M 691.695312 593.628906 C 691.203125 593.632812 690.789062 593.453125 690.449219 593.097656 C 690.289062 592.933594 690.167969 592.742188 690.085938 592.527344 C 690 592.316406 689.960938 592.09375 689.964844 591.863281 C 689.96875 591.636719 690.019531 591.414062 690.113281 591.207031 C 690.203125 590.996094 690.332031 590.8125 690.5 590.652344 C 691.738281 589.464844 692.617188 588.734375 693.371094 588.078125 C 694.949219 586.734375 695.816406 585.996094 698.457031 582.324219 C 698.589844 582.136719 698.757812 581.980469 698.953125 581.859375 C 699.144531 581.742188 699.355469 581.660156 699.585938 581.625 C 699.8125 581.585938 700.035156 581.59375 700.257812 581.648438 C 700.484375 581.699219 700.6875 581.792969 700.875 581.925781 C 701.0625 582.0625 701.214844 582.226562 701.335938 582.421875 C 701.457031 582.617188 701.535156 582.828125 701.574219 583.054688 C 701.609375 583.28125 701.601562 583.507812 701.550781 583.730469 C 701.496094 583.953125 701.402344 584.15625 701.269531 584.34375 C 698.382812 588.359375 697.277344 589.292969 695.609375 590.714844 C 694.898438 591.316406 694.074219 592.027344 692.894531 593.148438 C 692.5625 593.472656 692.160156 593.632812 691.695312 593.628906 Z M 691.695312 593.628906 " fill-opacity="1" fill-rule="nonzero"/></svg>